  0
SECTION
  2
HEADER
  9
$ACADVER
  1
AC1009
  9
$EXTMIN
 10
0.0
 20
0.0
 30
0.0
  9
$EXTMAX
 10
1000.0
 20
1000.0
 30
0.0
  9
$FILLMODE
 70
 0
  9
$SPLFRAME
 70
 1
  0
ENDSEC
  0
SECTION
  2
TABLES
  0
TABLE
  2
LAYER
 70
1
  0
LAYER
  2
0
 70
     0
 62
     7
  6
CONTINUOUS
  0
ENDTAB
  0
ENDSEC
  0
SECTION
  2
ENTITIES
  0
LINE
  8
0
 62
     0
 10
36.6215
 20
0.141938
 30
0.0
 11
0.414789
 21
0.141938
 31
0.0
  0
LINE
  8
0
 62
     0
 10
0.414789
 20
0.141938
 30
0.0
 11
0.141938
 21
120.734
 31
0.0
  0
LINE
  8
0
 62
     0
 10
0.141938
 20
120.734
 30
0.0
 11
0.245291
 21
120.704
 31
0.0
  0
LINE
  8
0
 62
     0
 10
0.245291
 20
120.704
 30
0.0
 11
0.54846
 21
120.602
 31
0.0
  0
LINE
  8
0
 62
     0
 10
0.54846
 20
120.602
 30
0.0
 11
1.03628
 21
120.41
 31
0.0
  0
LINE
  8
0
 62
     0
 10
1.03628
 20
120.41
 30
0.0
 11
1.69636
 21
120.114
 31
0.0
  0
LINE
  8
0
 62
     0
 10
1.69636
 20
120.114
 30
0.0
 11
2.51768
 21
119.694
 31
0.0
  0
LINE
  8
0
 62
     0
 10
2.51768
 20
119.694
 30
0.0
 11
3.48368
 21
119.134
 31
0.0
  0
LINE
  8
0
 62
     0
 10
3.48368
 20
119.134
 30
0.0
 11
4.58198
 21
118.418
 31
0.0
  0
LINE
  8
0
 62
     0
 10
4.58198
 20
118.418
 30
0.0
 11
5.80154
 21
117.527
 31
0.0
  0
LINE
  8
0
 62
     0
 10
5.80154
 20
117.527
 30
0.0
 11
7.12583
 21
116.447
 31
0.0
  0
LINE
  8
0
 62
     0
 10
7.12583
 20
116.447
 30
0.0
 11
8.54523
 21
115.16
 31
0.0
  0
LINE
  8
0
 62
     0
 10
8.54523
 20
115.16
 30
0.0
 11
10.0432
 21
113.648
 31
0.0
  0
LINE
  8
0
 62
     0
 10
10.0432
 20
113.648
 30
0.0
 11
11.6086
 21
111.894
 31
0.0
  0
LINE
  8
0
 62
     0
 10
11.6086
 20
111.894
 30
0.0
 11
13.2278
 21
109.883
 31
0.0
  0
LINE
  8
0
 62
     0
 10
13.2278
 20
109.883
 30
0.0
 11
14.8869
 21
107.597
 31
0.0
  0
LINE
  8
0
 62
     0
 10
14.8869
 20
107.597
 30
0.0
 11
16.5737
 21
105.019
 31
0.0
  0
LINE
  8
0
 62
     0
 10
16.5737
 20
105.019
 30
0.0
 11
18.2742
 21
102.132
 31
0.0
  0
LINE
  8
0
 62
     0
 10
18.2742
 20
102.132
 30
0.0
 11
19.976
 21
98.9196
 31
0.0
  0
LINE
  8
0
 62
     0
 10
19.976
 20
98.9196
 30
0.0
 11
21.6642
 21
95.3643
 31
0.0
  0
LINE
  8
0
 62
     0
 10
21.6642
 20
95.3643
 30
0.0
 11
23.3288
 21
91.4495
 31
0.0
  0
LINE
  8
0
 62
     0
 10
23.3288
 20
91.4495
 30
0.0
 11
24.9535
 21
87.1583
 31
0.0
  0
LINE
  8
0
 62
     0
 10
24.9535
 20
87.1583
 30
0.0
 11
26.5259
 21
82.4742
 31
0.0
  0
LINE
  8
0
 62
     0
 10
26.5259
 20
82.4742
 30
0.0
 11
28.0334
 21
77.3783
 31
0.0
  0
LINE
  8
0
 62
     0
 10
28.0334
 20
77.3783
 30
0.0
 11
29.4624
 21
71.8566
 31
0.0
  0
LINE
  8
0
 62
     0
 10
29.4624
 20
71.8566
 30
0.0
 11
30.8005
 21
65.8908
 31
0.0
  0
LINE
  8
0
 62
     0
 10
30.8005
 20
65.8908
 30
0.0
 11
32.0339
 21
59.4639
 31
0.0
  0
LINE
  8
0
 62
     0
 10
32.0339
 20
59.4639
 30
0.0
 11
33.1487
 21
52.5582
 31
0.0
  0
LINE
  8
0
 62
     0
 10
33.1487
 20
52.5582
 30
0.0
 11
34.1326
 21
45.1584
 31
0.0
  0
LINE
  8
0
 62
     0
 10
34.1326
 20
45.1584
 30
0.0
 11
34.9718
 21
37.2456
 31
0.0
  0
LINE
  8
0
 62
     0
 10
34.9718
 20
37.2456
 30
0.0
 11
35.6528
 21
28.8051
 31
0.0
  0
LINE
  8
0
 62
     0
 10
35.6528
 20
28.8051
 30
0.0
 11
36.164
 21
19.8189
 31
0.0
  0
LINE
  8
0
 62
     0
 10
36.164
 20
19.8189
 30
0.0
 11
36.4906
 21
10.2705
 31
0.0
  0
LINE
  8
0
 62
     0
 10
36.4906
 20
10.2705
 30
0.0
 11
36.6215
 21
0.141938
 31
0.0
  0
ENDSEC
  0
EOF
