  0
SECTION
  2
HEADER
  9
$ACADVER
  1
AC1009
  9
$EXTMIN
 10
0.0
 20
0.0
 30
0.0
  9
$EXTMAX
 10
1000.0
 20
1000.0
 30
0.0
  9
$FILLMODE
 70
 0
  9
$SPLFRAME
 70
 1
  0
ENDSEC
  0
SECTION
  2
TABLES
  0
TABLE
  2
LAYER
 70
1
  0
LAYER
  2
0
 70
     0
 62
     7
  6
CONTINUOUS
  0
ENDTAB
  0
ENDSEC
  0
SECTION
  2
ENTITIES
  0
LINE
  8
0
 62
     0
 10
0.817178
 20
108.073
 30
0.0
 11
0
 21
81.9326
 31
0.0
  0
LINE
  8
0
 62
     0
 10
0
 20
81.9326
 30
0.0
 11
0.108865
 21
81.9037
 31
0.0
  0
LINE
  8
0
 62
     0
 10
0.108865
 20
81.9037
 30
0.0
 11
0.359668
 21
81.8374
 31
0.0
  0
LINE
  8
0
 62
     0
 10
0.359668
 20
81.8374
 30
0.0
 11
1.0983
 21
81.6349
 31
0.0
  0
LINE
  8
0
 62
     0
 10
1.0983
 20
81.6349
 30
0.0
 11
2.30132
 21
81.2934
 31
0.0
  0
LINE
  8
0
 62
     0
 10
2.30132
 20
81.2934
 30
0.0
 11
3.94533
 21
80.8136
 31
0.0
  0
LINE
  8
0
 62
     0
 10
3.94533
 20
80.8136
 30
0.0
 11
6.00548
 21
80.191
 31
0.0
  0
LINE
  8
0
 62
     0
 10
6.00548
 20
80.191
 30
0.0
 11
8.45979
 21
79.4247
 31
0.0
  0
LINE
  8
0
 62
     0
 10
8.45979
 20
79.4247
 30
0.0
 11
11.2848
 21
78.5125
 31
0.0
  0
LINE
  8
0
 62
     0
 10
11.2848
 20
78.5125
 30
0.0
 11
14.457
 21
77.4513
 31
0.0
  0
LINE
  8
0
 62
     0
 10
14.457
 20
77.4513
 30
0.0
 11
17.9531
 21
76.2399
 31
0.0
  0
LINE
  8
0
 62
     0
 10
17.9531
 20
76.2399
 30
0.0
 11
21.7496
 21
74.8771
 31
0.0
  0
LINE
  8
0
 62
     0
 10
21.7496
 20
74.8771
 30
0.0
 11
25.8217
 21
73.3584
 31
0.0
  0
LINE
  8
0
 62
     0
 10
25.8217
 20
73.3584
 30
0.0
 11
30.1487
 21
71.6855
 31
0.0
  0
LINE
  8
0
 62
     0
 10
30.1487
 20
71.6855
 30
0.0
 11
34.7045
 21
69.8514
 31
0.0
  0
LINE
  8
0
 62
     0
 10
34.7045
 20
69.8514
 30
0.0
 11
39.4684
 21
67.8586
 31
0.0
  0
LINE
  8
0
 62
     0
 10
39.4684
 20
67.8586
 30
0.0
 11
44.414
 21
65.702
 31
0.0
  0
LINE
  8
0
 62
     0
 10
44.414
 20
65.702
 30
0.0
 11
49.5212
 21
63.3815
 31
0.0
  0
LINE
  8
0
 62
     0
 10
49.5212
 20
63.3815
 30
0.0
 11
54.7631
 21
60.8926
 31
0.0
  0
LINE
  8
0
 62
     0
 10
54.7631
 20
60.8926
 30
0.0
 11
60.1197
 21
58.2359
 31
0.0
  0
LINE
  8
0
 62
     0
 10
60.1197
 20
58.2359
 30
0.0
 11
65.5655
 21
55.4083
 31
0.0
  0
LINE
  8
0
 62
     0
 10
65.5655
 20
55.4083
 30
0.0
 11
71.0777
 21
52.4069
 31
0.0
  0
LINE
  8
0
 62
     0
 10
71.0777
 20
52.4069
 30
0.0
 11
76.6339
 21
49.2291
 31
0.0
  0
LINE
  8
0
 62
     0
 10
76.6339
 20
49.2291
 30
0.0
 11
82.2082
 21
45.8763
 31
0.0
  0
LINE
  8
0
 62
     0
 10
82.2082
 20
45.8763
 30
0.0
 11
87.7796
 21
42.3414
 31
0.0
  0
LINE
  8
0
 62
     0
 10
87.7796
 20
42.3414
 30
0.0
 11
93.3235
 21
38.6278
 31
0.0
  0
LINE
  8
0
 62
     0
 10
93.3235
 20
38.6278
 30
0.0
 11
98.8162
 21
34.7293
 31
0.0
  0
LINE
  8
0
 62
     0
 10
98.8162
 20
34.7293
 30
0.0
 11
104.236
 21
30.6448
 31
0.0
  0
LINE
  8
0
 62
     0
 10
104.236
 20
30.6448
 30
0.0
 11
109.558
 21
26.3729
 31
0.0
  0
LINE
  8
0
 62
     0
 10
109.558
 20
26.3729
 30
0.0
 11
114.759
 21
21.9108
 31
0.0
  0
LINE
  8
0
 62
     0
 10
114.759
 20
21.9108
 30
0.0
 11
119.816
 21
17.2572
 31
0.0
  0
LINE
  8
0
 62
     0
 10
119.816
 20
17.2572
 30
0.0
 11
124.707
 21
12.4092
 31
0.0
  0
LINE
  8
0
 62
     0
 10
124.707
 20
12.4092
 30
0.0
 11
129.405
 21
7.36561
 31
0.0
  0
LINE
  8
0
 62
     0
 10
129.405
 20
7.36561
 30
0.0
 11
133.89
 21
2.12356
 31
0.0
  0
LINE
  8
0
 62
     0
 10
133.89
 20
2.12356
 30
0.0
 11
134.933
 21
1.00321
 31
0.0
  0
LINE
  8
0
 62
     0
 10
134.933
 20
1.00321
 30
0.0
 11
135.884
 21
0.304546
 31
0.0
  0
LINE
  8
0
 62
     0
 10
135.884
 20
0.304546
 30
0.0
 11
136.756
 21
0.0110243
 31
0.0
  0
LINE
  8
0
 62
     0
 10
136.756
 20
0.0110243
 30
0.0
 11
137.547
 21
0.115755
 31
0.0
  0
LINE
  8
0
 62
     0
 10
137.547
 20
0.115755
 30
0.0
 11
138.227
 21
0.592557
 31
0.0
  0
LINE
  8
0
 62
     0
 10
138.227
 20
0.592557
 30
0.0
 11
138.793
 21
1.3932
 31
0.0
  0
LINE
  8
0
 62
     0
 10
138.793
 20
1.3932
 30
0.0
 11
139.262
 21
2.48047
 31
0.0
  0
LINE
  8
0
 62
     0
 10
139.262
 20
2.48047
 30
0.0
 11
139.649
 21
3.83233
 31
0.0
  0
LINE
  8
0
 62
     0
 10
139.649
 20
3.83233
 30
0.0
 11
140.203
 21
7.24299
 31
0.0
  0
LINE
  8
0
 62
     0
 10
140.203
 20
7.24299
 30
0.0
 11
140.502
 21
11.4253
 31
0.0
  0
LINE
  8
0
 62
     0
 10
140.502
 20
11.4253
 30
0.0
 11
140.586
 21
16.1796
 31
0.0
  0
LINE
  8
0
 62
     0
 10
140.586
 20
16.1796
 30
0.0
 11
140.497
 21
21.3031
 31
0.0
  0
LINE
  8
0
 62
     0
 10
140.497
 20
21.3031
 30
0.0
 11
140.269
 21
26.592
 31
0.0
  0
LINE
  8
0
 62
     0
 10
140.269
 20
26.592
 30
0.0
 11
139.947
 21
31.8409
 31
0.0
  0
LINE
  8
0
 62
     0
 10
139.947
 20
31.8409
 30
0.0
 11
139.566
 21
36.8445
 31
0.0
  0
LINE
  8
0
 62
     0
 10
139.566
 20
36.8445
 30
0.0
 11
139.168
 21
41.3992
 31
0.0
  0
LINE
  8
0
 62
     0
 10
139.168
 20
41.3992
 30
0.0
 11
138.789
 21
45.2974
 31
0.0
  0
LINE
  8
0
 62
     0
 10
138.789
 20
45.2974
 30
0.0
 11
138.471
 21
48.3376
 31
0.0
  0
LINE
  8
0
 62
     0
 10
138.471
 20
48.3376
 30
0.0
 11
138.252
 21
50.3107
 31
0.0
  0
LINE
  8
0
 62
     0
 10
138.252
 20
50.3107
 30
0.0
 11
138.17
 21
51.0134
 31
0.0
  0
LINE
  8
0
 62
     0
 10
138.17
 20
51.0134
 30
0.0
 11
138.155
 21
51.1404
 31
0.0
  0
LINE
  8
0
 62
     0
 10
138.155
 20
51.1404
 30
0.0
 11
138.029
 21
51.1376
 31
0.0
  0
LINE
  8
0
 62
     0
 10
138.029
 20
51.1376
 30
0.0
 11
111.454
 21
50.7351
 31
0.0
  0
LINE
  8
0
 62
     0
 10
111.454
 20
50.7351
 30
0.0
 11
0.817178
 21
108.073
 31
0.0
  0
LINE
  8
0
 62
     0
 10
1.08452
 20
107.615
 30
0.0
 11
111.387
 21
50.4515
 31
0.0
  0
LINE
  8
0
 62
     0
 10
111.387
 20
50.4515
 30
0.0
 11
137.903
 21
50.8536
 31
0.0
  0
LINE
  8
0
 62
     0
 10
137.903
 20
50.8536
 30
0.0
 11
137.991
 21
50.0944
 31
0.0
  0
LINE
  8
0
 62
     0
 10
137.991
 20
50.0944
 30
0.0
 11
138.213
 21
48.0991
 31
0.0
  0
LINE
  8
0
 62
     0
 10
138.213
 20
48.0991
 30
0.0
 11
138.53
 21
45.066
 31
0.0
  0
LINE
  8
0
 62
     0
 10
138.53
 20
45.066
 30
0.0
 11
138.903
 21
41.1963
 31
0.0
  0
LINE
  8
0
 62
     0
 10
138.903
 20
41.1963
 30
0.0
 11
139.297
 21
36.6847
 31
0.0
  0
LINE
  8
0
 62
     0
 10
139.297
 20
36.6847
 30
0.0
 11
139.672
 21
31.7321
 31
0.0
  0
LINE
  8
0
 62
     0
 10
139.672
 20
31.7321
 30
0.0
 11
139.989
 21
26.5355
 31
0.0
  0
LINE
  8
0
 62
     0
 10
139.989
 20
26.5355
 30
0.0
 11
140.214
 21
21.2935
 31
0.0
  0
LINE
  8
0
 62
     0
 10
140.214
 20
21.2935
 30
0.0
 11
140.304
 21
16.1782
 31
0.0
  0
LINE
  8
0
 62
     0
 10
140.304
 20
16.1782
 30
0.0
 11
140.218
 21
11.435
 31
0.0
  0
LINE
  8
0
 62
     0
 10
140.218
 20
11.435
 30
0.0
 11
139.92
 21
7.27191
 31
0.0
  0
LINE
  8
0
 62
     0
 10
139.92
 20
7.27191
 30
0.0
 11
139.375
 21
3.89848
 31
0.0
  0
LINE
  8
0
 62
     0
 10
139.375
 20
3.89848
 30
0.0
 11
138.994
 21
2.57418
 31
0.0
  0
LINE
  8
0
 62
     0
 10
138.994
 20
2.57418
 30
0.0
 11
138.545
 21
1.52687
 31
0.0
  0
LINE
  8
0
 62
     0
 10
138.545
 20
1.52687
 30
0.0
 11
138.024
 21
0.790995
 31
0.0
  0
LINE
  8
0
 62
     0
 10
138.024
 20
0.790995
 30
0.0
 11
137.442
 21
0.376206
 31
0.0
  0
LINE
  8
0
 62
     0
 10
137.442
 20
0.376206
 30
0.0
 11
136.785
 21
0.289388
 31
0.0
  0
LINE
  8
0
 62
     0
 10
136.785
 20
0.289388
 30
0.0
 11
136.019
 21
0.552595
 31
0.0
  0
LINE
  8
0
 62
     0
 10
136.019
 20
0.552595
 30
0.0
 11
135.123
 21
1.21267
 31
0.0
  0
LINE
  8
0
 62
     0
 10
135.123
 20
1.21267
 30
0.0
 11
134.108
 21
2.30132
 31
0.0
  0
LINE
  8
0
 62
     0
 10
134.108
 20
2.30132
 30
0.0
 11
124.944
 21
12.5705
 31
0.0
  0
LINE
  8
0
 62
     0
 10
124.944
 20
12.5705
 30
0.0
 11
115.024
 21
22.0582
 31
0.0
  0
LINE
  8
0
 62
     0
 10
115.024
 20
22.0582
 30
0.0
 11
104.533
 21
30.7799
 31
0.0
  0
LINE
  8
0
 62
     0
 10
104.533
 20
30.7799
 30
0.0
 11
93.6554
 21
38.7533
 31
0.0
  0
LINE
  8
0
 62
     0
 10
93.6554
 20
38.7533
 30
0.0
 11
82.5761
 21
45.9948
 31
0.0
  0
LINE
  8
0
 62
     0
 10
82.5761
 20
45.9948
 30
0.0
 11
71.4802
 21
52.5212
 31
0.0
  0
LINE
  8
0
 62
     0
 10
71.4802
 20
52.5212
 30
0.0
 11
60.5536
 21
58.3487
 31
0.0
  0
LINE
  8
0
 62
     0
 10
60.5536
 20
58.3487
 30
0.0
 11
49.9801
 21
63.4958
 31
0.0
  0
LINE
  8
0
 62
     0
 10
49.9801
 20
63.4958
 30
0.0
 11
39.944
 21
67.9771
 31
0.0
  0
LINE
  8
0
 62
     0
 10
39.944
 20
67.9771
 30
0.0
 11
30.631
 21
71.8111
 31
0.0
  0
LINE
  8
0
 62
     0
 10
30.631
 20
71.8111
 30
0.0
 11
22.225
 21
75.015
 31
0.0
  0
LINE
  8
0
 62
     0
 10
22.225
 20
75.015
 30
0.0
 11
14.9131
 21
77.603
 31
0.0
  0
LINE
  8
0
 62
     0
 10
14.9131
 20
77.603
 30
0.0
 11
8.87871
 21
79.5941
 31
0.0
  0
LINE
  8
0
 62
     0
 10
8.87871
 20
79.5941
 30
0.0
 11
4.30636
 21
81.0038
 31
0.0
  0
LINE
  8
0
 62
     0
 10
4.30636
 20
81.0038
 30
0.0
 11
1.38079
 21
81.8487
 31
0.0
  0
LINE
  8
0
 62
     0
 10
1.38079
 20
81.8487
 30
0.0
 11
0.289388
 21
82.1461
 31
0.0
  0
LINE
  8
0
 62
     0
 10
0.289388
 20
82.1461
 30
0.0
 11
1.08452
 21
107.615
 31
0.0
  0
LINE
  8
0
 62
     0
 10
133.357
 20
3.6394
 30
0.0
 11
127.193
 21
10.3628
 31
0.0
  0
LINE
  8
0
 62
     0
 10
127.193
 20
10.3628
 30
0.0
 11
121.062
 21
16.5861
 31
0.0
  0
LINE
  8
0
 62
     0
 10
121.062
 20
16.5861
 30
0.0
 11
114.86
 21
22.3973
 31
0.0
  0
LINE
  8
0
 62
     0
 10
114.86
 20
22.3973
 30
0.0
 11
108.482
 21
27.8791
 31
0.0
  0
LINE
  8
0
 62
     0
 10
108.482
 20
27.8791
 30
0.0
 11
101.825
 21
33.1211
 31
0.0
  0
LINE
  8
0
 62
     0
 10
101.825
 20
33.1211
 30
0.0
 11
94.7857
 21
38.2048
 31
0.0
  0
LINE
  8
0
 62
     0
 10
94.7857
 20
38.2048
 30
0.0
 11
87.2603
 21
43.2181
 31
0.0
  0
LINE
  8
0
 62
     0
 10
87.2603
 20
43.2181
 30
0.0
 11
79.145
 21
48.2452
 31
0.0
  0
LINE
  8
0
 62
     0
 10
79.145
 20
48.2452
 30
0.0
 11
70.6561
 21
53.1262
 31
0.0
  0
LINE
  8
0
 62
     0
 10
70.6561
 20
53.1262
 30
0.0
 11
61.6726
 21
57.9053
 31
0.0
  0
LINE
  8
0
 62
     0
 10
61.6726
 20
57.9053
 30
0.0
 11
52.3392
 21
62.5189
 31
0.0
  0
LINE
  8
0
 62
     0
 10
52.3392
 20
62.5189
 30
0.0
 11
42.8061
 21
66.8997
 31
0.0
  0
LINE
  8
0
 62
     0
 10
42.8061
 20
66.8997
 30
0.0
 11
33.2176
 21
70.9828
 31
0.0
  0
LINE
  8
0
 62
     0
 10
33.2176
 20
70.9828
 30
0.0
 11
23.7229
 21
74.7035
 31
0.0
  0
LINE
  8
0
 62
     0
 10
23.7229
 20
74.7035
 30
0.0
 11
14.4694
 21
77.9985
 31
0.0
  0
LINE
  8
0
 62
     0
 10
14.4694
 20
77.9985
 30
0.0
 11
5.6031
 21
80.7985
 31
0.0
  0
LINE
  8
0
 62
     0
 10
5.6031
 20
80.7985
 30
0.0
 11
3.853
 21
81.3304
 31
0.0
  0
LINE
  8
0
 62
     0
 10
3.853
 20
81.3304
 30
0.0
 11
2.36885
 21
81.8127
 31
0.0
  0
LINE
  8
0
 62
     0
 10
2.36885
 20
81.8127
 30
0.0
 11
1.30638
 21
82.193
 31
0.0
  0
LINE
  8
0
 62
     0
 10
1.30638
 20
82.193
 30
0.0
 11
0.822688
 21
82.4191
 31
0.0
  0
LINE
  8
0
 62
     0
 10
0.822688
 20
82.4191
 30
0.0
 11
0.728984
 21
83.5505
 31
0.0
  0
LINE
  8
0
 62
     0
 10
0.728984
 20
83.5505
 30
0.0
 11
0.7152
 21
86.3244
 31
0.0
  0
LINE
  8
0
 62
     0
 10
0.7152
 20
86.3244
 30
0.0
 11
0.766191
 21
90.194
 31
0.0
  0
LINE
  8
0
 62
     0
 10
0.766191
 20
90.194
 30
0.0
 11
0.868165
 21
94.6132
 31
0.0
  0
LINE
  8
0
 62
     0
 10
0.868165
 20
94.6132
 30
0.0
 11
1.00459
 21
99.0353
 31
0.0
  0
LINE
  8
0
 62
     0
 10
1.00459
 20
99.0353
 30
0.0
 11
1.16307
 21
102.912
 31
0.0
  0
LINE
  8
0
 62
     0
 10
1.16307
 20
102.912
 30
0.0
 11
1.32567
 21
105.697
 31
0.0
  0
LINE
  8
0
 62
     0
 10
1.32567
 20
105.697
 30
0.0
 11
1.48139
 21
106.843
 31
0.0
  0
LINE
  8
0
 62
     0
 10
1.48139
 20
106.843
 30
0.0
 11
1.78869
 21
106.72
 31
0.0
  0
LINE
  8
0
 62
     0
 10
1.78869
 20
106.72
 30
0.0
 11
2.64445
 21
106.31
 31
0.0
  0
LINE
  8
0
 62
     0
 10
2.64445
 20
106.31
 30
0.0
 11
4.02248
 21
105.628
 31
0.0
  0
LINE
  8
0
 62
     0
 10
4.02248
 20
105.628
 30
0.0
 11
5.89386
 21
104.69
 31
0.0
  0
LINE
  8
0
 62
     0
 10
5.89386
 20
104.69
 30
0.0
 11
8.22964
 21
103.509
 31
0.0
  0
LINE
  8
0
 62
     0
 10
8.22964
 20
103.509
 30
0.0
 11
11.0009
 21
102.1
 31
0.0
  0
LINE
  8
0
 62
     0
 10
11.0009
 20
102.1
 30
0.0
 11
14.1814
 21
100.478
 31
0.0
  0
LINE
  8
0
 62
     0
 10
14.1814
 20
100.478
 30
0.0
 11
17.7423
 21
98.6578
 31
0.0
  0
LINE
  8
0
 62
     0
 10
17.7423
 20
98.6578
 30
0.0
 11
21.6545
 21
96.6516
 31
0.0
  0
LINE
  8
0
 62
     0
 10
21.6545
 20
96.6516
 30
0.0
 11
25.8906
 21
94.4771
 31
0.0
  0
LINE
  8
0
 62
     0
 10
25.8906
 20
94.4771
 30
0.0
 11
30.423
 21
92.1452
 31
0.0
  0
LINE
  8
0
 62
     0
 10
30.423
 20
92.1452
 30
0.0
 11
35.2213
 21
89.6729
 31
0.0
  0
LINE
  8
0
 62
     0
 10
35.2213
 20
89.6729
 30
0.0
 11
40.2594
 21
87.0726
 31
0.0
  0
LINE
  8
0
 62
     0
 10
40.2594
 20
87.0726
 30
0.0
 11
45.5069
 21
84.3622
 31
0.0
  0
LINE
  8
0
 62
     0
 10
45.5069
 20
84.3622
 30
0.0
 11
50.9379
 21
81.5523
 31
0.0
  0
LINE
  8
0
 62
     0
 10
50.9379
 20
81.5523
 30
0.0
 11
56.5245
 21
78.6585
 31
0.0
  0
LINE
  8
0
 62
     0
 10
56.5245
 20
78.6585
 30
0.0
 11
111.343
 21
50.2476
 31
0.0
  0
LINE
  8
0
 62
     0
 10
111.343
 20
50.2476
 30
0.0
 11
124.47
 21
50.461
 31
0.0
  0
LINE
  8
0
 62
     0
 10
124.47
 20
50.461
 30
0.0
 11
137.599
 21
50.6758
 31
0.0
  0
LINE
  8
0
 62
     0
 10
137.599
 20
50.6758
 30
0.0
 11
137.807
 21
49.7085
 31
0.0
  0
LINE
  8
0
 62
     0
 10
137.807
 20
49.7085
 30
0.0
 11
137.936
 21
48.7938
 31
0.0
  0
LINE
  8
0
 62
     0
 10
137.936
 20
48.7938
 30
0.0
 11
138.136
 21
47.0147
 31
0.0
  0
LINE
  8
0
 62
     0
 10
138.136
 20
47.0147
 30
0.0
 11
138.378
 21
44.6264
 31
0.0
  0
LINE
  8
0
 62
     0
 10
138.378
 20
44.6264
 30
0.0
 11
138.636
 21
41.8881
 31
0.0
  0
LINE
  8
0
 62
     0
 10
138.636
 20
41.8881
 30
0.0
 11
139.271
 21
34.1933
 31
0.0
  0
LINE
  8
0
 62
     0
 10
139.271
 20
34.1933
 30
0.0
 11
139.722
 21
27.219
 31
0.0
  0
LINE
  8
0
 62
     0
 10
139.722
 20
27.219
 30
0.0
 11
139.987
 21
20.9985
 31
0.0
  0
LINE
  8
0
 62
     0
 10
139.987
 20
20.9985
 30
0.0
 11
140.067
 21
15.5567
 31
0.0
  0
LINE
  8
0
 62
     0
 10
140.067
 20
15.5567
 30
0.0
 11
139.959
 21
10.9251
 31
0.0
  0
LINE
  8
0
 62
     0
 10
139.959
 20
10.9251
 30
0.0
 11
139.665
 21
7.13133
 31
0.0
  0
LINE
  8
0
 62
     0
 10
139.665
 20
7.13133
 30
0.0
 11
139.187
 21
4.20578
 31
0.0
  0
LINE
  8
0
 62
     0
 10
139.187
 20
4.20578
 30
0.0
 11
138.525
 21
2.17592
 31
0.0
  0
LINE
  8
0
 62
     0
 10
138.525
 20
2.17592
 30
0.0
 11
138.108
 21
1.42351
 31
0.0
  0
LINE
  8
0
 62
     0
 10
138.108
 20
1.42351
 30
0.0
 11
137.684
 21
0.920531
 31
0.0
  0
LINE
  8
0
 62
     0
 10
137.684
 20
0.920531
 30
0.0
 11
137.225
 21
0.676617
 31
0.0
  0
LINE
  8
0
 62
     0
 10
137.225
 20
0.676617
 30
0.0
 11
136.699
 21
0.701421
 31
0.0
  0
LINE
  8
0
 62
     0
 10
136.699
 20
0.701421
 30
0.0
 11
136.078
 21
1.00183
 31
0.0
  0
LINE
  8
0
 62
     0
 10
136.078
 20
1.00183
 30
0.0
 11
135.334
 21
1.58612
 31
0.0
  0
LINE
  8
0
 62
     0
 10
135.334
 20
1.58612
 30
0.0
 11
134.436
 21
2.46255
 31
0.0
  0
LINE
  8
0
 62
     0
 10
134.436
 20
2.46255
 30
0.0
 11
133.357
 21
3.6394
 31
0.0
  0
ENDSEC
  0
EOF
