<?xml version="1.0" encoding="UTF-8" standalone="no"?>
<!-- Created with Inkscape (http://www.inkscape.org/) -->

<svg
   xmlns:dc="http://purl.org/dc/elements/1.1/"
   xmlns:cc="http://creativecommons.org/ns#"
   xmlns:rdf="http://www.w3.org/1999/02/22-rdf-syntax-ns#"
   xmlns:svg="http://www.w3.org/2000/svg"
   xmlns="http://www.w3.org/2000/svg"
   xmlns:sodipodi="http://sodipodi.sourceforge.net/DTD/sodipodi-0.dtd"
   xmlns:inkscape="http://www.inkscape.org/namespaces/inkscape"
   width="210mm"
   height="297mm"
   viewBox="0 0 744.09448819 1052.3622047"
   id="svg4208"
   version="1.1"
   inkscape:version="0.91 r13725"
   sodipodi:docname="flower.svg">
  <defs
     id="defs4210" />
  <sodipodi:namedview
     id="base"
     pagecolor="#ffffff"
     bordercolor="#666666"
     borderopacity="1.0"
     inkscape:pageopacity="0.0"
     inkscape:pageshadow="2"
     inkscape:zoom="0.98994949"
     inkscape:cx="69.232179"
     inkscape:cy="433.1107"
     inkscape:document-units="px"
     inkscape:current-layer="layer1"
     showgrid="false"
     inkscape:window-width="1855"
     inkscape:window-height="1056"
     inkscape:window-x="65"
     inkscape:window-y="1104"
     inkscape:window-maximized="1" />
  <metadata
     id="metadata4213">
    <rdf:RDF>
      <cc:Work
         rdf:about="">
        <dc:format>image/svg+xml</dc:format>
        <dc:type
           rdf:resource="http://purl.org/dc/dcmitype/StillImage" />
        <dc:title />
      </cc:Work>
    </rdf:RDF>
  </metadata>
  <g
     inkscape:label="Layer 1"
     inkscape:groupmode="layer"
     id="layer1">
    <path
       style="fill:none;fill-rule:evenodd;stroke:#000000;stroke-width:1px;stroke-linecap:butt;stroke-linejoin:miter;stroke-opacity:1"
       d="m 148.12109,264.41016 -0.0488,0.77734 -1.44532,23.12109 0.20899,0.16211 c 117.88477,91.56971 168.21989,241.44041 189.05664,368.45313 20.83674,127.01272 12.17969,231.11133 12.17969,231.11133 l -0.043,0.5332 89.71289,1.44726 -0.10742,-0.59765 C 391.30747,629.74322 319.14288,473.60404 258.53516,382.37109 228.23129,336.75462 200.81622,307.3642 180.96875,289.375 161.12128,271.3858 148.80859,264.7793 148.80859,264.7793 l -0.6875,-0.36914 z m 0.89649,1.6875 c 0.92364,0.50592 12.28315,6.79821 31.28125,24.01757 19.78542,17.93297 47.1447,47.25877 77.40429,92.8086 60.47156,91.02796 132.52193,246.87319 178.83399,506.07226 l -87.4375,-1.41211 c 0.12354,-1.50524 8.48516,-104.60734 -12.2207,-230.82226 C 316.03337,529.69539 265.69937,379.67373 147.6582,287.84961 l 1.35938,-21.75195 z"
       id="path4216"
       inkscape:connector-curvature="0" />
    <path
       style="fill:#2216cd;fill-opacity:1;stroke:#1b0000;stroke-width:1.01015258;stroke-opacity:1"
       d="m 369.5931,886.99338 -19.55439,-0.29786 0.75783,-11.34203 c 1.11578,-16.69924 0.82884,-79.12125 -0.46539,-101.2456 -6.71546,-114.79685 -26.52175,-209.42746 -61.73641,-294.96454 -6.99772,-16.99758 -26.11401,-55.30396 -35.1337,-70.40301 -14.40413,-24.11266 -31.15369,-47.50767 -48.05956,-67.12738 -11.55145,-13.40576 -36.4735,-37.88939 -48.03952,-47.19442 l -8.54182,-6.87202 0.28784,-8.75238 c 0.15832,-4.8138 0.67842,-9.15612 1.15579,-9.64959 1.95937,-2.02545 22.43243,14.66685 41.93122,34.18777 105.79186,105.91198 191.21849,307.16774 239.30523,563.77682 1.98507,10.59307 3.60921,19.5708 3.60921,19.95052 0,0.64825 -19.93266,0.62809 -65.51633,-0.0663 z"
       id="path4142"
       inkscape:connector-curvature="0" />
    <path
       inkscape:connector-curvature="0"
       id="path4144"
       d="m 369.5931,886.99338 -19.55439,-0.29786 0.75783,-11.34203 c 1.11578,-16.69924 0.82884,-79.12125 -0.46539,-101.2456 -6.71546,-114.79685 -26.52175,-209.42746 -61.73641,-294.96454 -6.99772,-16.99758 -26.11401,-55.30396 -35.1337,-70.40301 -14.40413,-24.11266 -31.15369,-47.50767 -48.05956,-67.12738 -11.55145,-13.40576 -36.4735,-37.88939 -48.03952,-47.19442 l -8.54182,-6.87202 0.28784,-8.75238 c 0.15832,-4.8138 0.67842,-9.15612 1.15579,-9.64959 1.95937,-2.02545 22.43243,14.66685 41.93122,34.18777 105.79186,105.91198 191.21849,307.16774 239.30523,563.77682 1.98507,10.59307 3.60921,19.5708 3.60921,19.95052 0,0.64825 -19.93266,0.62809 -65.51633,-0.0663 z"
       style="fill:#2216cd;fill-opacity:1;stroke:#1b0000;stroke-width:1.01015258;stroke-opacity:1" />
  </g>
</svg>
