<?xml version="1.0" encoding="UTF-8" standalone="no"?>
<!-- Created with Inkscape (http://www.inkscape.org/) -->

<svg
   xmlns:dc="http://purl.org/dc/elements/1.1/"
   xmlns:cc="http://creativecommons.org/ns#"
   xmlns:rdf="http://www.w3.org/1999/02/22-rdf-syntax-ns#"
   xmlns:svg="http://www.w3.org/2000/svg"
   xmlns="http://www.w3.org/2000/svg"
   xmlns:sodipodi="http://sodipodi.sourceforge.net/DTD/sodipodi-0.dtd"
   xmlns:inkscape="http://www.inkscape.org/namespaces/inkscape"
   width="210mm"
   height="297mm"
   viewBox="0 0 744.09448819 1052.3622047"
   id="svg4208"
   version="1.1"
   inkscape:version="0.91 r13725"
   sodipodi:docname="flower.svg">
  <defs
     id="defs4210" />
  <sodipodi:namedview
     id="base"
     pagecolor="#ffffff"
     bordercolor="#666666"
     borderopacity="1.0"
     inkscape:pageopacity="0.0"
     inkscape:pageshadow="2"
     inkscape:zoom="0.7"
     inkscape:cx="210.15285"
     inkscape:cy="346.82261"
     inkscape:document-units="px"
     inkscape:current-layer="layer1"
     showgrid="false"
     inkscape:window-width="1855"
     inkscape:window-height="1056"
     inkscape:window-x="65"
     inkscape:window-y="1104"
     inkscape:window-maximized="1" />
  <metadata
     id="metadata4213">
    <rdf:RDF>
      <cc:Work
         rdf:about="">
        <dc:format>image/svg+xml</dc:format>
        <dc:type
           rdf:resource="http://purl.org/dc/dcmitype/StillImage" />
        <dc:title></dc:title>
      </cc:Work>
    </rdf:RDF>
  </metadata>
  <g
     inkscape:label="Layer 1"
     inkscape:groupmode="layer"
     id="layer1">
    <path
       style="color:#000000;font-style:normal;font-variant:normal;font-weight:normal;font-stretch:normal;font-size:medium;line-height:normal;font-family:sans-serif;text-indent:0;text-align:start;text-decoration:none;text-decoration-line:none;text-decoration-style:solid;text-decoration-color:#000000;letter-spacing:normal;word-spacing:normal;text-transform:none;direction:ltr;block-progression:tb;writing-mode:lr-tb;baseline-shift:baseline;text-anchor:start;white-space:normal;clip-rule:nonzero;display:inline;overflow:visible;visibility:visible;opacity:1;isolation:auto;mix-blend-mode:normal;color-interpolation:sRGB;color-interpolation-filters:linearRGB;solid-color:#000000;solid-opacity:1;fill:#1216cd;fill-opacity:1;fill-rule:evenodd;stroke:none;stroke-width:1px;stroke-linecap:butt;stroke-linejoin:miter;stroke-miterlimit:4;stroke-dasharray:none;stroke-dashoffset:0;stroke-opacity:1;color-rendering:auto;image-rendering:auto;shape-rendering:auto;text-rendering:auto;enable-background:accumulate"
       d="m 148.12109,264.41016 -0.0488,0.77734 -1.44532,23.12109 0.20899,0.16211 c 117.88477,91.56971 168.21989,241.44041 189.05664,368.45313 20.83674,127.01272 12.17969,231.11133 12.17969,231.11133 l -0.043,0.5332 89.71289,1.44726 -0.10742,-0.59765 C 391.30747,629.74322 319.14288,473.60404 258.53516,382.37109 228.23129,336.75462 200.81622,307.3642 180.96875,289.375 161.12128,271.3858 148.80859,264.7793 148.80859,264.7793 l -0.6875,-0.36914 z m 0.89649,1.6875 c 0.92364,0.50592 12.28315,6.79821 31.28125,24.01757 19.78542,17.93297 47.1447,47.25877 77.40429,92.8086 60.47156,91.02796 132.52193,246.87319 178.83399,506.07226 l -87.4375,-1.41211 c 0.12354,-1.50524 8.48516,-104.60734 -12.2207,-230.82226 C 316.03337,529.69539 265.69937,379.67373 147.6582,287.84961 l 1.35938,-21.75195 z"
       id="path4216"
       inkscape:connector-curvature="0" />
    <path
       style="fill:#1216cd;fill-opacity:1;stroke:#000000;stroke-width:1.42857146;stroke-opacity:1"
       d="m 364.6363,887.04926 -13.6594,-0.46378 -0.01,-52.45152 C 350.9563,780.74979 349.69037,756.10524 344.60325,710.25388 328.13007,561.77702 283.67536,439.36479 215.16416,353.82531 202.57908,338.11224 175.98334,310.7019 160.8849,297.88353 L 149.01,287.8019 l 0,-10.67269 0,-10.67269 7.96303,5.64903 c 14.03906,9.95942 31.94242,26.27352 47.35167,43.14833 98.43593,107.79801 177.72715,296.9613 223.95555,534.28571 3.59666,18.46429 6.77918,34.69643 7.07225,36.07143 0.49525,2.32354 -1.49953,2.4789 -28.26196,2.20102 -15.83716,-0.16445 -34.94156,-0.50769 -42.45424,-0.76278 z"
       id="path4787"
       inkscape:connector-curvature="0" />
    <path
       style="fill:#1216cd;fill-opacity:1;stroke:#000000;stroke-width:1.42857146;stroke-opacity:1"
       d="m 364.528,885.62112 -12.33913,-0.47378 -0.73117,-64.58959 c -0.72309,-63.8751 -1.70789,-80.37597 -7.52105,-126.01816 -17.80877,-139.82637 -59.99263,-253.83645 -124.96007,-337.72894 -10.484,-13.53801 -47.05226,-51.4025 -61.11205,-63.27831 l -7.57404,-6.39751 0.43118,-8.91486 0.43118,-8.91485 10,7.48883 c 14.05001,10.52182 50.57179,47.65583 65.0108,66.10061 29.36175,37.5075 53.27695,76.05736 78.56685,126.64503 40.49073,80.99409 71.4424,167.37526 98.72308,275.52043 10.1197,40.11617 29.84213,131.91293 29.84213,138.89823 0,2.59784 -1.30864,2.71057 -28.21428,2.43043 -15.51786,-0.16156 -33.7669,-0.50697 -40.55343,-0.76756 z"
       id="path4789"
       inkscape:connector-curvature="0" />
    <path
       style="fill:#1216cd;fill-opacity:1;stroke:#000000;stroke-width:1.42857146;stroke-opacity:1"
       d="m 364.58714,884.19596 -10.85144,-0.48291 -1.01092,-60.30101 c -1.09354,-65.2299 -2.16521,-84.7402 -6.64718,-121.0153 -17.01857,-137.74092 -55.19908,-247.23175 -115.87875,-332.30738 -15.23972,-21.36677 -50.56683,-59.47447 -72.97647,-78.72041 -4.86874,-4.18139 -5.35524,-5.25207 -5.35524,-11.78571 0,-3.95258 0.39099,-7.18651 0.86887,-7.18651 2.66145,0 21.47398,17.05981 42.18841,38.25782 40.23648,41.17579 68.85662,82.54343 103.50006,149.59933 47.4988,91.9387 85.0702,200.27707 114.19526,329.28571 8.08246,35.80103 19.22951,89.80695 19.23983,93.21429 0.007,2.30648 -2.1763,2.47774 -28.20672,2.21251 -15.51785,-0.15813 -33.09742,-0.50481 -39.06571,-0.77043 z"
       id="path4791"
       inkscape:connector-curvature="0" />
    <path
       style="fill:#1216cd;fill-opacity:1;stroke:#000000;stroke-width:1.42857146;stroke-opacity:1"
       d="m 363.93081,882.77481 -8.65061,-0.49997 -1.68987,-68.86763 c -0.96222,-39.21319 -2.63735,-77.7872 -3.89025,-89.5819 C 334.6024,581.69564 297.98417,468.37899 238.90596,380.96816 222.89145,357.27344 207.61211,339.3901 178.66698,310.46287 153.46386,285.27533 153.15129,284.88736 153.57795,279.32098 l 0.43205,-5.6366 17.85714,16.31726 C 224.80018,338.3701 262.2745,390.736 303.927,474.53959 c 50.6376,101.8814 86.2572,211.68813 117.7052,362.85715 3.92288,18.85714 7.56564,37.01785 8.09501,40.35714 l 0.9625,6.07143 -29.05414,-0.27526 c -15.97979,-0.15139 -32.94692,-0.50024 -37.70476,-0.77524 z"
       id="path4793"
       inkscape:connector-curvature="0" />
    <path
       style="fill:#1216cd;fill-opacity:1;stroke:#000000;stroke-width:1.42857146;stroke-opacity:1"
       d=""
       id="path4795"
       inkscape:connector-curvature="0" />
  </g>
</svg>
