  0
SECTION
  2
HEADER
  9
$ACADVER
  1
AC1009
  9
$EXTMIN
 10
0.0
 20
0.0
 30
0.0
  9
$EXTMAX
 10
1000.0
 20
1000.0
 30
0.0
  9
$FILLMODE
 70
 0
  9
$SPLFRAME
 70
 1
  0
ENDSEC
  0
SECTION
  2
TABLES
  0
TABLE
  2
LAYER
 70
1
  0
LAYER
  2
0
 70
     0
 62
     7
  6
CONTINUOUS
  0
ENDTAB
  0
ENDSEC
  0
SECTION
  2
ENTITIES
  0
LINE
  8
0
 62
     0
 10
62.3217
 20
0.355533
 30
0.0
 11
57.4753
 21
0.439593
 31
0.0
  0
LINE
  8
0
 62
     0
 10
57.4753
 20
0.439593
 30
0.0
 11
57.5758
 21
12.7634
 31
0.0
  0
LINE
  8
0
 62
     0
 10
57.5758
 20
12.7634
 30
0.0
 11
57.591
 21
18.1226
 31
0.0
  0
LINE
  8
0
 62
     0
 10
57.591
 20
18.1226
 30
0.0
 11
57.5539
 21
23.282
 31
0.0
  0
LINE
  8
0
 62
     0
 10
57.5539
 20
23.282
 30
0.0
 11
57.471
 21
27.7592
 31
0.0
  0
LINE
  8
0
 62
     0
 10
57.471
 20
27.7592
 30
0.0
 11
57.3497
 21
31.0747
 31
0.0
  0
LINE
  8
0
 62
     0
 10
57.3497
 20
31.0747
 30
0.0
 11
56.534
 21
42.6364
 31
0.0
  0
LINE
  8
0
 62
     0
 10
56.534
 20
42.6364
 30
0.0
 11
55.3752
 21
53.7602
 31
0.0
  0
LINE
  8
0
 62
     0
 10
55.3752
 20
53.7602
 30
0.0
 11
53.8649
 21
64.4744
 31
0.0
  0
LINE
  8
0
 62
     0
 10
53.8649
 20
64.4744
 30
0.0
 11
52.0001
 21
74.8012
 31
0.0
  0
LINE
  8
0
 62
     0
 10
52.0001
 20
74.8012
 30
0.0
 11
49.7762
 21
84.7686
 31
0.0
  0
LINE
  8
0
 62
     0
 10
49.7762
 20
84.7686
 30
0.0
 11
47.1868
 21
94.3984
 31
0.0
  0
LINE
  8
0
 62
     0
 10
47.1868
 20
94.3984
 30
0.0
 11
44.2267
 21
103.718
 31
0.0
  0
LINE
  8
0
 62
     0
 10
44.2267
 20
103.718
 30
0.0
 11
40.8933
 21
112.75
 31
0.0
  0
LINE
  8
0
 62
     0
 10
40.8933
 20
112.75
 30
0.0
 11
40.0128
 21
114.868
 31
0.0
  0
LINE
  8
0
 62
     0
 10
40.0128
 20
114.868
 30
0.0
 11
38.898
 21
117.395
 31
0.0
  0
LINE
  8
0
 62
     0
 10
38.898
 20
117.395
 30
0.0
 11
37.6093
 21
120.197
 31
0.0
  0
LINE
  8
0
 62
     0
 10
37.6093
 20
120.197
 30
0.0
 11
36.2148
 21
123.14
 31
0.0
  0
LINE
  8
0
 62
     0
 10
36.2148
 20
123.14
 30
0.0
 11
34.7789
 21
126.088
 31
0.0
  0
LINE
  8
0
 62
     0
 10
34.7789
 20
126.088
 30
0.0
 11
33.3651
 21
128.907
 31
0.0
  0
LINE
  8
0
 62
     0
 10
33.3651
 20
128.907
 30
0.0
 11
32.038
 21
131.462
 31
0.0
  0
LINE
  8
0
 62
     0
 10
32.038
 20
131.462
 30
0.0
 11
30.8639
 21
133.619
 31
0.0
  0
LINE
  8
0
 62
     0
 10
30.8639
 20
133.619
 30
0.0
 11
27.8129
 21
138.668
 31
0.0
  0
LINE
  8
0
 62
     0
 10
27.8129
 20
138.668
 30
0.0
 11
24.23
 21
143.998
 31
0.0
  0
LINE
  8
0
 62
     0
 10
24.23
 20
143.998
 30
0.0
 11
20.4088
 21
149.189
 31
0.0
  0
LINE
  8
0
 62
     0
 10
20.4088
 20
149.189
 30
0.0
 11
16.6467
 21
153.822
 31
0.0
  0
LINE
  8
0
 62
     0
 10
16.6467
 20
153.822
 30
0.0
 11
12.452
 21
158.8
 31
0.0
  0
LINE
  8
0
 62
     0
 10
12.452
 20
158.8
 30
0.0
 11
8.31233
 21
163.109
 31
0.0
  0
LINE
  8
0
 62
     0
 10
8.31233
 20
163.109
 30
0.0
 11
5.11665
 21
165.927
 31
0.0
  0
LINE
  8
0
 62
     0
 10
5.11665
 20
165.927
 30
0.0
 11
0.600826
 21
171.679
 31
0.0
  0
LINE
  8
0
 62
     0
 10
0.600826
 20
171.679
 30
0.0
 11
0.148828
 21
172.648
 31
0.0
  0
LINE
  8
0
 62
     0
 10
0.148828
 20
172.648
 30
0.0
 11
0.265961
 21
173.395
 31
0.0
  0
LINE
  8
0
 62
     0
 10
0.265961
 20
173.395
 30
0.0
 11
0.644924
 21
173.877
 31
0.0
  0
LINE
  8
0
 62
     0
 10
0.644924
 20
173.877
 30
0.0
 11
0.986677
 21
174.046
 31
0.0
  0
LINE
  8
0
 62
     0
 10
0.986677
 20
174.046
 30
0.0
 11
1.41111
 21
173.936
 31
0.0
  0
LINE
  8
0
 62
     0
 10
1.41111
 20
173.936
 30
0.0
 11
2.28479
 21
173.619
 31
0.0
  0
LINE
  8
0
 62
     0
 10
2.28479
 20
173.619
 30
0.0
 11
3.54707
 21
173.118
 31
0.0
  0
LINE
  8
0
 62
     0
 10
3.54707
 20
173.118
 30
0.0
 11
5.14283
 21
172.45
 31
0.0
  0
LINE
  8
0
 62
     0
 10
5.14283
 20
172.45
 30
0.0
 11
7.01559
 21
171.643
 31
0.0
  0
LINE
  8
0
 62
     0
 10
7.01559
 20
171.643
 30
0.0
 11
9.10883
 21
170.713
 31
0.0
  0
LINE
  8
0
 62
     0
 10
9.10883
 20
170.713
 30
0.0
 11
11.3647
 21
169.685
 31
0.0
  0
LINE
  8
0
 62
     0
 10
11.3647
 20
169.685
 30
0.0
 11
13.728
 21
168.577
 31
0.0
  0
LINE
  8
0
 62
     0
 10
13.728
 20
168.577
 30
0.0
 11
16.1423
 21
167.414
 31
0.0
  0
LINE
  8
0
 62
     0
 10
16.1423
 20
167.414
 30
0.0
 11
18.5484
 21
166.215
 31
0.0
  0
LINE
  8
0
 62
     0
 10
18.5484
 20
166.215
 30
0.0
 11
20.8925
 21
165.002
 31
0.0
  0
LINE
  8
0
 62
     0
 10
20.8925
 20
165.002
 30
0.0
 11
23.1166
 21
163.796
 31
0.0
  0
LINE
  8
0
 62
     0
 10
23.1166
 20
163.796
 30
0.0
 11
25.1643
 21
162.62
 31
0.0
  0
LINE
  8
0
 62
     0
 10
25.1643
 20
162.62
 30
0.0
 11
26.9779
 21
161.494
 31
0.0
  0
LINE
  8
0
 62
     0
 10
26.9779
 20
161.494
 30
0.0
 11
28.5034
 21
160.441
 31
0.0
  0
LINE
  8
0
 62
     0
 10
28.5034
 20
160.441
 30
0.0
 11
29.6816
 21
159.479
 31
0.0
  0
LINE
  8
0
 62
     0
 10
29.6816
 20
159.479
 30
0.0
 11
35.2171
 21
154.377
 31
0.0
  0
LINE
  8
0
 62
     0
 10
35.2171
 20
154.377
 30
0.0
 11
40.0308
 21
149.886
 31
0.0
  0
LINE
  8
0
 62
     0
 10
40.0308
 20
149.886
 30
0.0
 11
44.2076
 21
145.876
 31
0.0
  0
LINE
  8
0
 62
     0
 10
44.2076
 20
145.876
 30
0.0
 11
47.8345
 21
142.218
 31
0.0
  0
LINE
  8
0
 62
     0
 10
47.8345
 20
142.218
 30
0.0
 11
50.9972
 21
138.78
 31
0.0
  0
LINE
  8
0
 62
     0
 10
50.9972
 20
138.78
 30
0.0
 11
53.7834
 21
135.434
 31
0.0
  0
LINE
  8
0
 62
     0
 10
53.7834
 20
135.434
 30
0.0
 11
56.2762
 21
132.049
 31
0.0
  0
LINE
  8
0
 62
     0
 10
56.2762
 20
132.049
 30
0.0
 11
58.5653
 21
128.495
 31
0.0
  0
LINE
  8
0
 62
     0
 10
58.5653
 20
128.495
 30
0.0
 11
60.7356
 21
124.642
 31
0.0
  0
LINE
  8
0
 62
     0
 10
60.7356
 20
124.642
 30
0.0
 11
62.8717
 21
120.362
 31
0.0
  0
LINE
  8
0
 62
     0
 10
62.8717
 20
120.362
 30
0.0
 11
65.0628
 21
115.522
 31
0.0
  0
LINE
  8
0
 62
     0
 10
65.0628
 20
115.522
 30
0.0
 11
67.3929
 21
109.994
 31
0.0
  0
LINE
  8
0
 62
     0
 10
67.3929
 20
109.994
 30
0.0
 11
69.9477
 21
103.648
 31
0.0
  0
LINE
  8
0
 62
     0
 10
69.9477
 20
103.648
 30
0.0
 11
72.8169
 21
96.3524
 31
0.0
  0
LINE
  8
0
 62
     0
 10
72.8169
 20
96.3524
 30
0.0
 11
76.0829
 21
87.9782
 31
0.0
  0
LINE
  8
0
 62
     0
 10
76.0829
 20
87.9782
 30
0.0
 11
79.834
 21
78.3953
 31
0.0
  0
LINE
  8
0
 62
     0
 10
79.834
 20
78.3953
 30
0.0
 11
80.0474
 21
77.0047
 31
0.0
  0
LINE
  8
0
 62
     0
 10
80.0474
 20
77.0047
 30
0.0
 11
80.2224
 21
74.1687
 31
0.0
  0
LINE
  8
0
 62
     0
 10
80.2224
 20
74.1687
 30
0.0
 11
80.3617
 21
70.098
 31
0.0
  0
LINE
  8
0
 62
     0
 10
80.3617
 20
70.098
 30
0.0
 11
80.4693
 21
65.005
 31
0.0
  0
LINE
  8
0
 62
     0
 10
80.4693
 20
65.005
 30
0.0
 11
80.5476
 21
59.0998
 31
0.0
  0
LINE
  8
0
 62
     0
 10
80.5476
 20
59.0998
 30
0.0
 11
80.6016
 21
52.5942
 31
0.0
  0
LINE
  8
0
 62
     0
 10
80.6016
 20
52.5942
 30
0.0
 11
80.6344
 21
45.6999
 31
0.0
  0
LINE
  8
0
 62
     0
 10
80.6344
 20
45.6999
 30
0.0
 11
80.6496
 21
38.6249
 31
0.0
  0
LINE
  8
0
 62
     0
 10
80.6496
 20
38.6249
 30
0.0
 11
80.651
 21
31.5847
 31
0.0
  0
LINE
  8
0
 62
     0
 10
80.651
 20
31.5847
 30
0.0
 11
80.6429
 21
24.7868
 31
0.0
  0
LINE
  8
0
 62
     0
 10
80.6429
 20
24.7868
 30
0.0
 11
80.6291
 21
18.4423
 31
0.0
  0
LINE
  8
0
 62
     0
 10
80.6291
 20
18.4423
 30
0.0
 11
80.6111
 21
12.7648
 31
0.0
  0
LINE
  8
0
 62
     0
 10
80.6111
 20
12.7648
 30
0.0
 11
80.596
 21
7.9623
 31
0.0
  0
LINE
  8
0
 62
     0
 10
80.596
 20
7.9623
 30
0.0
 11
80.585
 21
4.2485
 31
0.0
  0
LINE
  8
0
 62
     0
 10
80.585
 20
4.2485
 30
0.0
 11
80.5822
 21
1.83279
 31
0.0
  0
LINE
  8
0
 62
     0
 10
80.5822
 20
1.83279
 30
0.0
 11
80.5917
 21
0.926042
 31
0.0
  0
LINE
  8
0
 62
     0
 10
80.5917
 20
0.926042
 30
0.0
 11
80.7558
 21
0.141938
 31
0.0
  0
LINE
  8
0
 62
     0
 10
80.7558
 20
0.141938
 30
0.0
 11
73.962
 21
0.206706
 31
0.0
  0
LINE
  8
0
 62
     0
 10
73.962
 20
0.206706
 30
0.0
 11
70.9415
 21
0.238401
 31
0.0
  0
LINE
  8
0
 62
     0
 10
70.9415
 20
0.238401
 30
0.0
 11
67.7404
 21
0.276986
 31
0.0
  0
LINE
  8
0
 62
     0
 10
67.7404
 20
0.276986
 30
0.0
 11
64.739
 21
0.318327
 31
0.0
  0
LINE
  8
0
 62
     0
 10
64.739
 20
0.318327
 30
0.0
 11
62.3217
 21
0.355533
 31
0.0
  0
ENDSEC
  0
EOF
