<?xml version="1.0" encoding="UTF-8" standalone="no"?>
<!-- Created with Inkscape (http://www.inkscape.org/) -->

<svg
   xmlns:dc="http://purl.org/dc/elements/1.1/"
   xmlns:cc="http://creativecommons.org/ns#"
   xmlns:rdf="http://www.w3.org/1999/02/22-rdf-syntax-ns#"
   xmlns:svg="http://www.w3.org/2000/svg"
   xmlns="http://www.w3.org/2000/svg"
   xmlns:sodipodi="http://sodipodi.sourceforge.net/DTD/sodipodi-0.dtd"
   xmlns:inkscape="http://www.inkscape.org/namespaces/inkscape"
   width="210mm"
   height="297mm"
   viewBox="0 0 744.09448819 1052.3622047"
   id="svg2"
   version="1.1"
   inkscape:version="0.91 r13725"
   sodipodi:docname="bishop_outline.svg">
  <defs
     id="defs4" />
  <sodipodi:namedview
     id="base"
     pagecolor="#ffffff"
     bordercolor="#666666"
     borderopacity="1.0"
     inkscape:pageopacity="0.0"
     inkscape:pageshadow="2"
     inkscape:zoom="0.98994949"
     inkscape:cx="191.27923"
     inkscape:cy="547.45377"
     inkscape:document-units="px"
     inkscape:current-layer="layer1"
     showgrid="false"
     inkscape:window-width="1855"
     inkscape:window-height="1056"
     inkscape:window-x="65"
     inkscape:window-y="1104"
     inkscape:window-maximized="1" />
  <metadata
     id="metadata7">
    <rdf:RDF>
      <cc:Work
         rdf:about="">
        <dc:format>image/svg+xml</dc:format>
        <dc:type
           rdf:resource="http://purl.org/dc/dcmitype/StillImage" />
      </cc:Work>
    </rdf:RDF>
  </metadata>
  <g
     inkscape:label="Layer 1"
     inkscape:groupmode="layer"
     id="layer1">
    <path
       style="fill:none;fill-rule:evenodd;stroke:#000000;stroke-width:1px;stroke-linecap:butt;stroke-linejoin:miter;stroke-opacity:1"
       d="m 417.43177,899.1172 -17.1726,-0.30056 0.35675,-43.66655 c 0.20443,-25.02321 -0.13811,-52.72348 -0.8023,-64.87975 -6.08523,-111.3736 -25.01534,-205.32469 -58.31106,-289.40075 -6.98873,-17.64748 -25.35893,-55.8721 -35.5368,-73.94479 C 293.28159,404.40169 272.7635,375.24372 255.5897,355.33606 245.03397,343.1 216.69818,315.12299 206.05735,306.43088 l -7.32361,-5.98239 0,-8.38483 c 0,-6.3846 0.32681,-8.38483 1.36997,-8.38483 3.46608,0 26.0429,19.44469 43.67065,37.61212 102.89851,106.04886 187.00291,304.44747 233.7079,551.30682 2.25996,11.94505 4.36909,22.96834 4.68694,24.4962 l 0.57793,2.77792 -24.07138,-0.22706 c -13.23927,-0.12489 -31.79906,-0.36231 -41.24398,-0.52763 z"
       id="path4204"
       inkscape:connector-curvature="0"
       sodipodi:nodetypes="cccc" />
  </g>
</svg>
