  0
SECTION
  2
HEADER
  9
$ACADVER
  1
AC1009
  9
$EXTMIN
 10
0.0
 20
0.0
 30
0.0
  9
$EXTMAX
 10
1000.0
 20
1000.0
 30
0.0
  9
$FILLMODE
 70
 0
  9
$SPLFRAME
 70
 1
  0
ENDSEC
  0
SECTION
  2
TABLES
  0
TABLE
  2
LAYER
 70
1
  0
LAYER
  2
0
 70
     0
 62
     7
  6
CONTINUOUS
  0
ENDTAB
  0
ENDSEC
  0
SECTION
  2
ENTITIES
  0
LINE
  8
0
 62
     0
 10
0.567754
 20
176.703
 30
0.0
 11
0.55397
 21
176.484
 31
0.0
  0
LINE
  8
0
 62
     0
 10
0.55397
 20
176.484
 30
0.0
 11
0.146072
 21
169.959
 31
0.0
  0
LINE
  8
0
 62
     0
 10
0.146072
 20
169.959
 30
0.0
 11
0.20395
 21
169.914
 31
0.0
  0
LINE
  8
0
 62
     0
 10
0.20395
 20
169.914
 30
0.0
 11
6.22046
 21
164.881
 31
0.0
  0
LINE
  8
0
 62
     0
 10
6.22046
 20
164.881
 30
0.0
 11
11.807
 21
159.497
 31
0.0
  0
LINE
  8
0
 62
     0
 10
11.807
 20
159.497
 30
0.0
 11
16.9774
 21
153.793
 31
0.0
  0
LINE
  8
0
 62
     0
 10
16.9774
 20
153.793
 30
0.0
 11
21.7496
 21
147.804
 31
0.0
  0
LINE
  8
0
 62
     0
 10
21.7496
 20
147.804
 30
0.0
 11
26.1359
 21
141.564
 31
0.0
  0
LINE
  8
0
 62
     0
 10
26.1359
 20
141.564
 30
0.0
 11
30.1556
 21
135.107
 31
0.0
  0
LINE
  8
0
 62
     0
 10
30.1556
 20
135.107
 30
0.0
 11
33.8226
 21
128.465
 31
0.0
  0
LINE
  8
0
 62
     0
 10
33.8226
 20
128.465
 30
0.0
 11
37.1531
 21
121.672
 31
0.0
  0
LINE
  8
0
 62
     0
 10
37.1531
 20
121.672
 30
0.0
 11
40.1616
 21
114.762
 31
0.0
  0
LINE
  8
0
 62
     0
 10
40.1616
 20
114.762
 30
0.0
 11
42.8653
 21
107.768
 31
0.0
  0
LINE
  8
0
 62
     0
 10
42.8653
 20
107.768
 30
0.0
 11
45.2797
 21
100.725
 31
0.0
  0
LINE
  8
0
 62
     0
 10
45.2797
 20
100.725
 30
0.0
 11
47.4211
 21
93.6639
 31
0.0
  0
LINE
  8
0
 62
     0
 10
47.4211
 20
93.6639
 30
0.0
 11
49.3035
 21
86.6207
 31
0.0
  0
LINE
  8
0
 62
     0
 10
49.3035
 20
86.6207
 30
0.0
 11
50.9432
 21
79.6272
 31
0.0
  0
LINE
  8
0
 62
     0
 10
50.9432
 20
79.6272
 30
0.0
 11
52.3572
 21
72.7191
 31
0.0
  0
LINE
  8
0
 62
     0
 10
52.3572
 20
72.7191
 30
0.0
 11
53.5601
 21
65.9268
 31
0.0
  0
LINE
  8
0
 62
     0
 10
53.5601
 20
65.9268
 30
0.0
 11
54.5677
 21
59.2875
 31
0.0
  0
LINE
  8
0
 62
     0
 10
54.5677
 20
59.2875
 30
0.0
 11
55.3956
 21
52.8327
 31
0.0
  0
LINE
  8
0
 62
     0
 10
55.3956
 20
52.8327
 30
0.0
 11
56.0613
 21
46.597
 31
0.0
  0
LINE
  8
0
 62
     0
 10
56.0613
 20
46.597
 30
0.0
 11
56.5781
 21
40.6135
 31
0.0
  0
LINE
  8
0
 62
     0
 10
56.5781
 20
40.6135
 30
0.0
 11
56.9627
 21
34.9167
 31
0.0
  0
LINE
  8
0
 62
     0
 10
56.9627
 20
34.9167
 30
0.0
 11
57.2325
 21
29.5383
 31
0.0
  0
LINE
  8
0
 62
     0
 10
57.2325
 20
29.5383
 30
0.0
 11
57.4008
 21
24.5126
 31
0.0
  0
LINE
  8
0
 62
     0
 10
57.4008
 20
24.5126
 30
0.0
 11
57.4848
 21
19.8727
 31
0.0
  0
LINE
  8
0
 62
     0
 10
57.4848
 20
19.8727
 30
0.0
 11
57.4985
 21
15.6545
 31
0.0
  0
LINE
  8
0
 62
     0
 10
57.4985
 20
15.6545
 30
0.0
 11
57.4601
 21
11.8897
 31
0.0
  0
LINE
  8
0
 62
     0
 10
57.4601
 20
11.8897
 30
0.0
 11
57.3842
 21
8.61138
 31
0.0
  0
LINE
  8
0
 62
     0
 10
57.3842
 20
8.61138
 30
0.0
 11
57.2879
 21
5.85392
 31
0.0
  0
LINE
  8
0
 62
     0
 10
57.2879
 20
5.85392
 30
0.0
 11
57.1846
 21
3.65044
 31
0.0
  0
LINE
  8
0
 62
     0
 10
57.1846
 20
3.65044
 30
0.0
 11
57.0907
 21
2.03536
 31
0.0
  0
LINE
  8
0
 62
     0
 10
57.0907
 20
2.03536
 30
0.0
 11
57.0234
 21
1.0418
 31
0.0
  0
LINE
  8
0
 62
     0
 10
57.0234
 20
1.0418
 30
0.0
 11
56.9983
 21
0.7028
 31
0.0
  0
LINE
  8
0
 62
     0
 10
56.9983
 20
0.7028
 30
0.0
 11
56.986
 21
0.552595
 31
0.0
  0
LINE
  8
0
 62
     0
 10
56.986
 20
0.552595
 30
0.0
 11
82.3048
 21
0.143316
 31
0.0
  0
LINE
  8
0
 62
     0
 10
82.3048
 20
0.143316
 30
0.0
 11
82.2745
 21
0.312815
 31
0.0
  0
LINE
  8
0
 62
     0
 10
82.2745
 20
0.312815
 30
0.0
 11
79.7387
 21
13.7142
 31
0.0
  0
LINE
  8
0
 62
     0
 10
79.7387
 20
13.7142
 30
0.0
 11
77.0488
 21
26.4473
 31
0.0
  0
LINE
  8
0
 62
     0
 10
77.0488
 20
26.4473
 30
0.0
 11
74.2199
 21
38.5272
 31
0.0
  0
LINE
  8
0
 62
     0
 10
74.2199
 20
38.5272
 30
0.0
 11
71.2653
 21
49.9692
 31
0.0
  0
LINE
  8
0
 62
     0
 10
71.2653
 20
49.9692
 30
0.0
 11
68.2018
 21
60.7907
 31
0.0
  0
LINE
  8
0
 62
     0
 10
68.2018
 20
60.7907
 30
0.0
 11
65.0448
 21
71.0075
 31
0.0
  0
LINE
  8
0
 62
     0
 10
65.0448
 20
71.0075
 30
0.0
 11
61.8105
 21
80.6344
 31
0.0
  0
LINE
  8
0
 62
     0
 10
61.8105
 20
80.6344
 30
0.0
 11
58.5114
 21
89.6895
 31
0.0
  0
LINE
  8
0
 62
     0
 10
58.5114
 20
89.6895
 30
0.0
 11
55.167
 21
98.1865
 31
0.0
  0
LINE
  8
0
 62
     0
 10
55.167
 20
98.1865
 30
0.0
 11
51.7895
 21
106.143
 31
0.0
  0
LINE
  8
0
 62
     0
 10
51.7895
 20
106.143
 30
0.0
 11
48.3969
 21
113.575
 31
0.0
  0
LINE
  8
0
 62
     0
 10
48.3969
 20
113.575
 30
0.0
 11
45.0025
 21
120.497
 31
0.0
  0
LINE
  8
0
 62
     0
 10
45.0025
 20
120.497
 30
0.0
 11
41.6235
 21
126.926
 31
0.0
  0
LINE
  8
0
 62
     0
 10
41.6235
 20
126.926
 30
0.0
 11
38.2736
 21
132.877
 31
0.0
  0
LINE
  8
0
 62
     0
 10
38.2736
 20
132.877
 30
0.0
 11
34.9705
 21
138.368
 31
0.0
  0
LINE
  8
0
 62
     0
 10
34.9705
 20
138.368
 30
0.0
 11
31.728
 21
143.412
 31
0.0
  0
LINE
  8
0
 62
     0
 10
31.728
 20
143.412
 30
0.0
 11
25.4868
 21
152.231
 31
0.0
  0
LINE
  8
0
 62
     0
 10
25.4868
 20
152.231
 30
0.0
 11
19.6756
 21
159.46
 31
0.0
  0
LINE
  8
0
 62
     0
 10
19.6756
 20
159.46
 30
0.0
 11
14.4184
 21
165.225
 31
0.0
  0
LINE
  8
0
 62
     0
 10
14.4184
 20
165.225
 30
0.0
 11
9.83781
 21
169.657
 31
0.0
  0
LINE
  8
0
 62
     0
 10
9.83781
 20
169.657
 30
0.0
 11
6.05511
 21
172.884
 31
0.0
  0
LINE
  8
0
 62
     0
 10
6.05511
 20
172.884
 30
0.0
 11
3.19843
 21
175.033
 31
0.0
  0
LINE
  8
0
 62
     0
 10
3.19843
 20
175.033
 30
0.0
 11
1.39044
 21
176.23
 31
0.0
  0
LINE
  8
0
 62
     0
 10
1.39044
 20
176.23
 30
0.0
 11
0.760677
 21
176.6
 31
0.0
  0
LINE
  8
0
 62
     0
 10
0.760677
 20
176.6
 30
0.0
 11
0.567754
 21
176.703
 31
0.0
  0
LINE
  8
0
 62
     0
 10
0.819933
 20
176.228
 30
0.0
 11
1.55443
 21
175.792
 31
0.0
  0
LINE
  8
0
 62
     0
 10
1.55443
 20
175.792
 30
0.0
 11
3.32107
 21
174.607
 31
0.0
  0
LINE
  8
0
 62
     0
 10
3.32107
 20
174.607
 30
0.0
 11
6.0427
 21
172.539
 31
0.0
  0
LINE
  8
0
 62
     0
 10
6.0427
 20
172.539
 30
0.0
 11
9.64904
 21
169.449
 31
0.0
  0
LINE
  8
0
 62
     0
 10
9.64904
 20
169.449
 30
0.0
 11
14.2159
 21
165.03
 31
0.0
  0
LINE
  8
0
 62
     0
 10
14.2159
 20
165.03
 30
0.0
 11
19.462
 21
159.276
 31
0.0
  0
LINE
  8
0
 62
     0
 10
19.462
 20
159.276
 30
0.0
 11
25.2622
 21
152.061
 31
0.0
  0
LINE
  8
0
 62
     0
 10
25.2622
 20
152.061
 30
0.0
 11
31.4937
 21
143.257
 31
0.0
  0
LINE
  8
0
 62
     0
 10
31.4937
 20
143.257
 30
0.0
 11
34.7293
 21
138.223
 31
0.0
  0
LINE
  8
0
 62
     0
 10
34.7293
 20
138.223
 30
0.0
 11
38.0256
 21
132.745
 31
0.0
  0
LINE
  8
0
 62
     0
 10
38.0256
 20
132.745
 30
0.0
 11
41.3688
 21
126.806
 31
0.0
  0
LINE
  8
0
 62
     0
 10
41.3688
 20
126.806
 30
0.0
 11
44.7407
 21
120.39
 31
0.0
  0
LINE
  8
0
 62
     0
 10
44.7407
 20
120.39
 30
0.0
 11
48.1295
 21
113.482
 31
0.0
  0
LINE
  8
0
 62
     0
 10
48.1295
 20
113.482
 30
0.0
 11
51.5165
 21
106.065
 31
0.0
  0
LINE
  8
0
 62
     0
 10
51.5165
 20
106.065
 30
0.0
 11
54.8873
 21
98.1234
 31
0.0
  0
LINE
  8
0
 62
     0
 10
54.8873
 20
98.1234
 30
0.0
 11
58.2277
 21
89.6426
 31
0.0
  0
LINE
  8
0
 62
     0
 10
58.2277
 20
89.6426
 30
0.0
 11
61.5199
 21
80.6055
 31
0.0
  0
LINE
  8
0
 62
     0
 10
61.5199
 20
80.6055
 30
0.0
 11
64.7499
 21
70.9951
 31
0.0
  0
LINE
  8
0
 62
     0
 10
64.7499
 20
70.9951
 30
0.0
 11
67.9041
 21
60.7977
 31
0.0
  0
LINE
  8
0
 62
     0
 10
67.9041
 20
60.7977
 30
0.0
 11
70.9634
 21
49.9967
 31
0.0
  0
LINE
  8
0
 62
     0
 10
70.9634
 20
49.9967
 30
0.0
 11
73.9151
 21
38.5755
 31
0.0
  0
LINE
  8
0
 62
     0
 10
73.9151
 20
38.5755
 30
0.0
 11
76.7429
 21
26.5176
 31
0.0
  0
LINE
  8
0
 62
     0
 10
76.7429
 20
26.5176
 30
0.0
 11
79.43
 21
13.8093
 31
0.0
  0
LINE
  8
0
 62
     0
 10
79.43
 20
13.8093
 30
0.0
 11
81.9644
 21
0.431327
 31
0.0
  0
LINE
  8
0
 62
     0
 10
81.9644
 20
0.431327
 30
0.0
 11
57.2879
 21
0.829578
 31
0.0
  0
LINE
  8
0
 62
     0
 10
57.2879
 20
0.829578
 30
0.0
 11
57.3183
 21
1.24024
 31
0.0
  0
LINE
  8
0
 62
     0
 10
57.3183
 20
1.24024
 30
0.0
 11
57.3885
 21
2.2903
 31
0.0
  0
LINE
  8
0
 62
     0
 10
57.3885
 20
2.2903
 30
0.0
 11
57.482
 21
3.94808
 31
0.0
  0
LINE
  8
0
 62
     0
 10
57.482
 20
3.94808
 30
0.0
 11
57.5839
 21
6.17911
 31
0.0
  0
LINE
  8
0
 62
     0
 10
57.5839
 20
6.17911
 30
0.0
 11
57.6792
 21
8.95311
 31
0.0
  0
LINE
  8
0
 62
     0
 10
57.6792
 20
8.95311
 30
0.0
 11
57.7522
 21
12.237
 31
0.0
  0
LINE
  8
0
 62
     0
 10
57.7522
 20
12.237
 30
0.0
 11
57.7868
 21
15.9977
 31
0.0
  0
LINE
  8
0
 62
     0
 10
57.7868
 20
15.9977
 30
0.0
 11
57.7674
 21
20.2034
 31
0.0
  0
LINE
  8
0
 62
     0
 10
57.7674
 20
20.2034
 30
0.0
 11
57.6792
 21
24.8226
 31
0.0
  0
LINE
  8
0
 62
     0
 10
57.6792
 20
24.8226
 30
0.0
 11
57.507
 21
29.8208
 31
0.0
  0
LINE
  8
0
 62
     0
 10
57.507
 20
29.8208
 30
0.0
 11
57.234
 21
35.1662
 31
0.0
  0
LINE
  8
0
 62
     0
 10
57.234
 20
35.1662
 30
0.0
 11
56.847
 21
40.827
 31
0.0
  0
LINE
  8
0
 62
     0
 10
56.847
 20
40.827
 30
0.0
 11
56.3287
 21
46.772
 31
0.0
  0
LINE
  8
0
 62
     0
 10
56.3287
 20
46.772
 30
0.0
 11
55.6659
 21
52.965
 31
0.0
  0
LINE
  8
0
 62
     0
 10
55.6659
 20
52.965
 30
0.0
 11
54.8404
 21
59.3771
 31
0.0
  0
LINE
  8
0
 62
     0
 10
54.8404
 20
59.3771
 30
0.0
 11
53.8385
 21
65.9737
 31
0.0
  0
LINE
  8
0
 62
     0
 10
53.8385
 20
65.9737
 30
0.0
 11
52.6341
 21
72.7685
 31
0.0
  0
LINE
  8
0
 62
     0
 10
52.6341
 20
72.7685
 30
0.0
 11
51.2202
 21
79.6809
 31
0.0
  0
LINE
  8
0
 62
     0
 10
51.2202
 20
79.6809
 30
0.0
 11
49.5804
 21
86.6786
 31
0.0
  0
LINE
  8
0
 62
     0
 10
49.5804
 20
86.6786
 30
0.0
 11
47.6966
 21
93.7274
 31
0.0
  0
LINE
  8
0
 62
     0
 10
47.6966
 20
93.7274
 30
0.0
 11
45.5553
 21
100.792
 31
0.0
  0
LINE
  8
0
 62
     0
 10
45.5553
 20
100.792
 30
0.0
 11
43.1394
 21
107.842
 31
0.0
  0
LINE
  8
0
 62
     0
 10
43.1394
 20
107.842
 30
0.0
 11
40.4343
 21
114.843
 31
0.0
  0
LINE
  8
0
 62
     0
 10
40.4343
 20
114.843
 30
0.0
 11
37.4234
 21
121.761
 31
0.0
  0
LINE
  8
0
 62
     0
 10
37.4234
 20
121.761
 30
0.0
 11
34.0913
 21
128.563
 31
0.0
  0
LINE
  8
0
 62
     0
 10
34.0913
 20
128.563
 30
0.0
 11
30.4216
 21
135.213
 31
0.0
  0
LINE
  8
0
 62
     0
 10
30.4216
 20
135.213
 30
0.0
 11
26.3991
 21
141.68
 31
0.0
  0
LINE
  8
0
 62
     0
 10
26.3991
 20
141.68
 30
0.0
 11
22.0073
 21
147.931
 31
0.0
  0
LINE
  8
0
 62
     0
 10
22.0073
 20
147.931
 30
0.0
 11
17.231
 21
153.931
 31
0.0
  0
LINE
  8
0
 62
     0
 10
17.231
 20
153.931
 30
0.0
 11
12.0537
 21
159.646
 31
0.0
  0
LINE
  8
0
 62
     0
 10
12.0537
 20
159.646
 30
0.0
 11
6.46162
 21
165.044
 31
0.0
  0
LINE
  8
0
 62
     0
 10
6.46162
 20
165.044
 30
0.0
 11
0.436838
 21
170.089
 31
0.0
  0
LINE
  8
0
 62
     0
 10
0.436838
 20
170.089
 30
0.0
 11
0.819933
 21
176.228
 31
0.0
  0
LINE
  8
0
 62
     182
 10
63.0714
 20
0.996322
 30
0.0
 11
57.5525
 21
1.08038
 31
0.0
  0
LINE
  8
0
 62
     182
 10
57.5525
 20
1.08038
 30
0.0
 11
57.7674
 21
4.28156
 31
0.0
  0
LINE
  8
0
 62
     182
 10
57.7674
 20
4.28156
 30
0.0
 11
57.8665
 21
6.6077
 31
0.0
  0
LINE
  8
0
 62
     182
 10
57.8665
 20
6.6077
 30
0.0
 11
57.93
 21
9.85711
 31
0.0
  0
LINE
  8
0
 62
     182
 10
57.93
 20
9.85711
 30
0.0
 11
57.9589
 21
13.7473
 31
0.0
  0
LINE
  8
0
 62
     182
 10
57.9589
 20
13.7473
 30
0.0
 11
57.9547
 21
17.9944
 31
0.0
  0
LINE
  8
0
 62
     182
 10
57.9547
 20
17.9944
 30
0.0
 11
57.9191
 21
22.3132
 31
0.0
  0
LINE
  8
0
 62
     182
 10
57.9191
 20
22.3132
 30
0.0
 11
57.8527
 21
26.4197
 31
0.0
  0
LINE
  8
0
 62
     182
 10
57.8527
 20
26.4197
 30
0.0
 11
57.7578
 21
30.0288
 31
0.0
  0
LINE
  8
0
 62
     182
 10
57.7578
 20
30.0288
 30
0.0
 11
57.6351
 21
32.8552
 31
0.0
  0
LINE
  8
0
 62
     182
 10
57.6351
 20
32.8552
 30
0.0
 11
56.7489
 21
44.7449
 31
0.0
  0
LINE
  8
0
 62
     182
 10
56.7489
 20
44.7449
 30
0.0
 11
55.5103
 21
56.1372
 31
0.0
  0
LINE
  8
0
 62
     182
 10
55.5103
 20
56.1372
 30
0.0
 11
53.9101
 21
67.0676
 31
0.0
  0
LINE
  8
0
 62
     182
 10
53.9101
 20
67.0676
 30
0.0
 11
51.9395
 21
77.5751
 31
0.0
  0
LINE
  8
0
 62
     182
 10
51.9395
 20
77.5751
 30
0.0
 11
49.5928
 21
87.697
 31
0.0
  0
LINE
  8
0
 62
     182
 10
49.5928
 20
87.697
 30
0.0
 11
46.8602
 21
97.4658
 31
0.0
  0
LINE
  8
0
 62
     182
 10
46.8602
 20
97.4658
 30
0.0
 11
43.7363
 21
106.923
 31
0.0
  0
LINE
  8
0
 62
     182
 10
43.7363
 20
106.923
 30
0.0
 11
40.2124
 21
116.101
 31
0.0
  0
LINE
  8
0
 62
     182
 10
40.2124
 20
116.101
 30
0.0
 11
39.3224
 21
118.159
 31
0.0
  0
LINE
  8
0
 62
     182
 10
39.3224
 20
118.159
 30
0.0
 11
38.1868
 21
120.631
 31
0.0
  0
LINE
  8
0
 62
     182
 10
38.1868
 20
120.631
 30
0.0
 11
36.8762
 21
123.373
 31
0.0
  0
LINE
  8
0
 62
     182
 10
36.8762
 20
123.373
 30
0.0
 11
35.4665
 21
126.237
 31
0.0
  0
LINE
  8
0
 62
     182
 10
35.4665
 20
126.237
 30
0.0
 11
34.0306
 21
129.077
 31
0.0
  0
LINE
  8
0
 62
     182
 10
34.0306
 20
129.077
 30
0.0
 11
32.6402
 21
131.743
 31
0.0
  0
LINE
  8
0
 62
     182
 10
32.6402
 20
131.743
 30
0.0
 11
31.371
 21
134.09
 31
0.0
  0
LINE
  8
0
 62
     182
 10
31.371
 20
134.09
 30
0.0
 11
30.2962
 21
135.97
 31
0.0
  0
LINE
  8
0
 62
     182
 10
30.2962
 20
135.97
 30
0.0
 11
23.7794
 21
145.919
 31
0.0
  0
LINE
  8
0
 62
     182
 10
23.7794
 20
145.919
 30
0.0
 11
16.7335
 21
154.915
 31
0.0
  0
LINE
  8
0
 62
     182
 10
16.7335
 20
154.915
 30
0.0
 11
15.3486
 21
156.466
 31
0.0
  0
LINE
  8
0
 62
     182
 10
15.3486
 20
156.466
 30
0.0
 11
13.6977
 21
158.224
 31
0.0
  0
LINE
  8
0
 62
     182
 10
13.6977
 20
158.224
 30
0.0
 11
11.8704
 21
160.1
 31
0.0
  0
LINE
  8
0
 62
     182
 10
11.8704
 20
160.1
 30
0.0
 11
9.95497
 21
162.009
 31
0.0
  0
LINE
  8
0
 62
     182
 10
9.95497
 20
162.009
 30
0.0
 11
8.03949
 21
163.865
 31
0.0
  0
LINE
  8
0
 62
     182
 10
8.03949
 20
163.865
 30
0.0
 11
6.2122
 21
165.578
 31
0.0
  0
LINE
  8
0
 62
     182
 10
6.2122
 20
165.578
 30
0.0
 11
4.55994
 21
167.065
 31
0.0
  0
LINE
  8
0
 62
     182
 10
4.55994
 20
167.065
 30
0.0
 11
3.175
 21
168.235
 31
0.0
  0
LINE
  8
0
 62
     182
 10
3.175
 20
168.235
 30
0.0
 11
0.764812
 21
170.174
 31
0.0
  0
LINE
  8
0
 62
     182
 10
0.764812
 20
170.174
 30
0.0
 11
0.846116
 21
172.643
 31
0.0
  0
LINE
  8
0
 62
     182
 10
0.846116
 20
172.643
 30
0.0
 11
0.895724
 21
173.623
 31
0.0
  0
LINE
  8
0
 62
     182
 10
0.895724
 20
173.623
 30
0.0
 11
0.974273
 21
174.464
 31
0.0
  0
LINE
  8
0
 62
     182
 10
0.974273
 20
174.464
 30
0.0
 11
1.06936
 21
175.076
 31
0.0
  0
LINE
  8
0
 62
     182
 10
1.06936
 20
175.076
 30
0.0
 11
1.17133
 21
175.368
 31
0.0
  0
LINE
  8
0
 62
     182
 10
1.17133
 20
175.368
 30
0.0
 11
1.6123
 21
175.343
 31
0.0
  0
LINE
  8
0
 62
     182
 10
1.6123
 20
175.343
 30
0.0
 11
2.47909
 21
174.876
 31
0.0
  0
LINE
  8
0
 62
     182
 10
2.47909
 20
174.876
 30
0.0
 11
3.70829
 21
174.019
 31
0.0
  0
LINE
  8
0
 62
     182
 10
3.70829
 20
174.019
 30
0.0
 11
5.2324
 21
172.824
 31
0.0
  0
LINE
  8
0
 62
     182
 10
5.2324
 20
172.824
 30
0.0
 11
6.98803
 21
171.344
 31
0.0
  0
LINE
  8
0
 62
     182
 10
6.98803
 20
171.344
 30
0.0
 11
8.91314
 21
169.631
 31
0.0
  0
LINE
  8
0
 62
     182
 10
8.91314
 20
169.631
 30
0.0
 11
10.9402
 21
167.739
 31
0.0
  0
LINE
  8
0
 62
     182
 10
10.9402
 20
167.739
 30
0.0
 11
13.0059
 21
165.719
 31
0.0
  0
LINE
  8
0
 62
     182
 10
13.0059
 20
165.719
 30
0.0
 11
18.5346
 21
159.803
 31
0.0
  0
LINE
  8
0
 62
     182
 10
18.5346
 20
159.803
 30
0.0
 11
23.9227
 21
153.271
 31
0.0
  0
LINE
  8
0
 62
     182
 10
23.9227
 20
153.271
 30
0.0
 11
29.1621
 21
146.142
 31
0.0
  0
LINE
  8
0
 62
     182
 10
29.1621
 20
146.142
 30
0.0
 11
34.2456
 21
138.432
 31
0.0
  0
LINE
  8
0
 62
     182
 10
34.2456
 20
138.432
 30
0.0
 11
39.1654
 21
130.158
 31
0.0
  0
LINE
  8
0
 62
     182
 10
39.1654
 20
130.158
 30
0.0
 11
43.9166
 21
121.335
 31
0.0
  0
LINE
  8
0
 62
     182
 10
43.9166
 20
121.335
 30
0.0
 11
48.4904
 21
111.982
 31
0.0
  0
LINE
  8
0
 62
     182
 10
48.4904
 20
111.982
 30
0.0
 11
52.8807
 21
102.113
 31
0.0
  0
LINE
  8
0
 62
     182
 10
52.8807
 20
102.113
 30
0.0
 11
57.0798
 21
91.7455
 31
0.0
  0
LINE
  8
0
 62
     182
 10
57.0798
 20
91.7455
 30
0.0
 11
61.0817
 21
80.8965
 31
0.0
  0
LINE
  8
0
 62
     182
 10
61.0817
 20
80.8965
 30
0.0
 11
64.878
 21
69.5826
 31
0.0
  0
LINE
  8
0
 62
     182
 10
64.878
 20
69.5826
 30
0.0
 11
68.4622
 21
57.8196
 31
0.0
  0
LINE
  8
0
 62
     182
 10
68.4622
 20
57.8196
 30
0.0
 11
71.8287
 21
45.624
 31
0.0
  0
LINE
  8
0
 62
     182
 10
71.8287
 20
45.624
 30
0.0
 11
74.9695
 21
33.0137
 31
0.0
  0
LINE
  8
0
 62
     182
 10
74.9695
 20
33.0137
 30
0.0
 11
77.8757
 21
20.0022
 31
0.0
  0
LINE
  8
0
 62
     182
 10
77.8757
 20
20.0022
 30
0.0
 11
80.5438
 21
6.60908
 31
0.0
  0
LINE
  8
0
 62
     182
 10
80.5438
 20
6.60908
 30
0.0
 11
80.9378
 21
4.48275
 31
0.0
  0
LINE
  8
0
 62
     182
 10
80.9378
 20
4.48275
 30
0.0
 11
81.2617
 21
2.71336
 31
0.0
  0
LINE
  8
0
 62
     182
 10
81.2617
 20
2.71336
 30
0.0
 11
81.4807
 21
1.48277
 31
0.0
  0
LINE
  8
0
 62
     182
 10
81.4807
 20
1.48277
 30
0.0
 11
81.5619
 21
0.978408
 31
0.0
  0
LINE
  8
0
 62
     182
 10
81.5619
 20
0.978408
 30
0.0
 11
80.4817
 21
0.876434
 31
0.0
  0
LINE
  8
0
 62
     182
 10
80.4817
 20
0.876434
 30
0.0
 11
77.1412
 21
0.846116
 31
0.0
  0
LINE
  8
0
 62
     182
 10
77.1412
 20
0.846116
 30
0.0
 11
71.3878
 21
0.886079
 31
0.0
  0
LINE
  8
0
 62
     182
 10
71.3878
 20
0.886079
 30
0.0
 11
63.0714
 21
0.996322
 31
0.0
  0
LINE
  8
0
 62
     0
 10
63.0714
 20
0.996322
 30
0.0
 11
57.5525
 21
1.08038
 31
0.0
  0
LINE
  8
0
 62
     0
 10
57.5525
 20
1.08038
 30
0.0
 11
57.7674
 21
4.28156
 31
0.0
  0
LINE
  8
0
 62
     0
 10
57.7674
 20
4.28156
 30
0.0
 11
57.8665
 21
6.6077
 31
0.0
  0
LINE
  8
0
 62
     0
 10
57.8665
 20
6.6077
 30
0.0
 11
57.93
 21
9.85711
 31
0.0
  0
LINE
  8
0
 62
     0
 10
57.93
 20
9.85711
 30
0.0
 11
57.9589
 21
13.7473
 31
0.0
  0
LINE
  8
0
 62
     0
 10
57.9589
 20
13.7473
 30
0.0
 11
57.9547
 21
17.9944
 31
0.0
  0
LINE
  8
0
 62
     0
 10
57.9547
 20
17.9944
 30
0.0
 11
57.9191
 21
22.3132
 31
0.0
  0
LINE
  8
0
 62
     0
 10
57.9191
 20
22.3132
 30
0.0
 11
57.8527
 21
26.4197
 31
0.0
  0
LINE
  8
0
 62
     0
 10
57.8527
 20
26.4197
 30
0.0
 11
57.7578
 21
30.0288
 31
0.0
  0
LINE
  8
0
 62
     0
 10
57.7578
 20
30.0288
 30
0.0
 11
57.6351
 21
32.8552
 31
0.0
  0
LINE
  8
0
 62
     0
 10
57.6351
 20
32.8552
 30
0.0
 11
56.7489
 21
44.7449
 31
0.0
  0
LINE
  8
0
 62
     0
 10
56.7489
 20
44.7449
 30
0.0
 11
55.5103
 21
56.1372
 31
0.0
  0
LINE
  8
0
 62
     0
 10
55.5103
 20
56.1372
 30
0.0
 11
53.9101
 21
67.0676
 31
0.0
  0
LINE
  8
0
 62
     0
 10
53.9101
 20
67.0676
 30
0.0
 11
51.9395
 21
77.5751
 31
0.0
  0
LINE
  8
0
 62
     0
 10
51.9395
 20
77.5751
 30
0.0
 11
49.5928
 21
87.697
 31
0.0
  0
LINE
  8
0
 62
     0
 10
49.5928
 20
87.697
 30
0.0
 11
46.8602
 21
97.4658
 31
0.0
  0
LINE
  8
0
 62
     0
 10
46.8602
 20
97.4658
 30
0.0
 11
43.7363
 21
106.923
 31
0.0
  0
LINE
  8
0
 62
     0
 10
43.7363
 20
106.923
 30
0.0
 11
40.2124
 21
116.101
 31
0.0
  0
LINE
  8
0
 62
     0
 10
40.2124
 20
116.101
 30
0.0
 11
39.3224
 21
118.159
 31
0.0
  0
LINE
  8
0
 62
     0
 10
39.3224
 20
118.159
 30
0.0
 11
38.1868
 21
120.631
 31
0.0
  0
LINE
  8
0
 62
     0
 10
38.1868
 20
120.631
 30
0.0
 11
36.8762
 21
123.373
 31
0.0
  0
LINE
  8
0
 62
     0
 10
36.8762
 20
123.373
 30
0.0
 11
35.4665
 21
126.237
 31
0.0
  0
LINE
  8
0
 62
     0
 10
35.4665
 20
126.237
 30
0.0
 11
34.0306
 21
129.077
 31
0.0
  0
LINE
  8
0
 62
     0
 10
34.0306
 20
129.077
 30
0.0
 11
32.6402
 21
131.743
 31
0.0
  0
LINE
  8
0
 62
     0
 10
32.6402
 20
131.743
 30
0.0
 11
31.371
 21
134.09
 31
0.0
  0
LINE
  8
0
 62
     0
 10
31.371
 20
134.09
 30
0.0
 11
30.2962
 21
135.97
 31
0.0
  0
LINE
  8
0
 62
     0
 10
30.2962
 20
135.97
 30
0.0
 11
23.7794
 21
145.919
 31
0.0
  0
LINE
  8
0
 62
     0
 10
23.7794
 20
145.919
 30
0.0
 11
16.7335
 21
154.915
 31
0.0
  0
LINE
  8
0
 62
     0
 10
16.7335
 20
154.915
 30
0.0
 11
15.3486
 21
156.466
 31
0.0
  0
LINE
  8
0
 62
     0
 10
15.3486
 20
156.466
 30
0.0
 11
13.6977
 21
158.224
 31
0.0
  0
LINE
  8
0
 62
     0
 10
13.6977
 20
158.224
 30
0.0
 11
11.8704
 21
160.1
 31
0.0
  0
LINE
  8
0
 62
     0
 10
11.8704
 20
160.1
 30
0.0
 11
9.95497
 21
162.009
 31
0.0
  0
LINE
  8
0
 62
     0
 10
9.95497
 20
162.009
 30
0.0
 11
8.03949
 21
163.865
 31
0.0
  0
LINE
  8
0
 62
     0
 10
8.03949
 20
163.865
 30
0.0
 11
6.2122
 21
165.578
 31
0.0
  0
LINE
  8
0
 62
     0
 10
6.2122
 20
165.578
 30
0.0
 11
4.55994
 21
167.065
 31
0.0
  0
LINE
  8
0
 62
     0
 10
4.55994
 20
167.065
 30
0.0
 11
3.175
 21
168.235
 31
0.0
  0
LINE
  8
0
 62
     0
 10
3.175
 20
168.235
 30
0.0
 11
0.764812
 21
170.174
 31
0.0
  0
LINE
  8
0
 62
     0
 10
0.764812
 20
170.174
 30
0.0
 11
0.846116
 21
172.643
 31
0.0
  0
LINE
  8
0
 62
     0
 10
0.846116
 20
172.643
 30
0.0
 11
0.895724
 21
173.623
 31
0.0
  0
LINE
  8
0
 62
     0
 10
0.895724
 20
173.623
 30
0.0
 11
0.974273
 21
174.464
 31
0.0
  0
LINE
  8
0
 62
     0
 10
0.974273
 20
174.464
 30
0.0
 11
1.06936
 21
175.076
 31
0.0
  0
LINE
  8
0
 62
     0
 10
1.06936
 20
175.076
 30
0.0
 11
1.17133
 21
175.368
 31
0.0
  0
LINE
  8
0
 62
     0
 10
1.17133
 20
175.368
 30
0.0
 11
1.6123
 21
175.343
 31
0.0
  0
LINE
  8
0
 62
     0
 10
1.6123
 20
175.343
 30
0.0
 11
2.47909
 21
174.876
 31
0.0
  0
LINE
  8
0
 62
     0
 10
2.47909
 20
174.876
 30
0.0
 11
3.70829
 21
174.019
 31
0.0
  0
LINE
  8
0
 62
     0
 10
3.70829
 20
174.019
 30
0.0
 11
5.2324
 21
172.824
 31
0.0
  0
LINE
  8
0
 62
     0
 10
5.2324
 20
172.824
 30
0.0
 11
6.98803
 21
171.344
 31
0.0
  0
LINE
  8
0
 62
     0
 10
6.98803
 20
171.344
 30
0.0
 11
8.91314
 21
169.631
 31
0.0
  0
LINE
  8
0
 62
     0
 10
8.91314
 20
169.631
 30
0.0
 11
10.9402
 21
167.739
 31
0.0
  0
LINE
  8
0
 62
     0
 10
10.9402
 20
167.739
 30
0.0
 11
13.0059
 21
165.719
 31
0.0
  0
LINE
  8
0
 62
     0
 10
13.0059
 20
165.719
 30
0.0
 11
18.5346
 21
159.803
 31
0.0
  0
LINE
  8
0
 62
     0
 10
18.5346
 20
159.803
 30
0.0
 11
23.9227
 21
153.271
 31
0.0
  0
LINE
  8
0
 62
     0
 10
23.9227
 20
153.271
 30
0.0
 11
29.1621
 21
146.142
 31
0.0
  0
LINE
  8
0
 62
     0
 10
29.1621
 20
146.142
 30
0.0
 11
34.2456
 21
138.432
 31
0.0
  0
LINE
  8
0
 62
     0
 10
34.2456
 20
138.432
 30
0.0
 11
39.1654
 21
130.158
 31
0.0
  0
LINE
  8
0
 62
     0
 10
39.1654
 20
130.158
 30
0.0
 11
43.9166
 21
121.335
 31
0.0
  0
LINE
  8
0
 62
     0
 10
43.9166
 20
121.335
 30
0.0
 11
48.4904
 21
111.982
 31
0.0
  0
LINE
  8
0
 62
     0
 10
48.4904
 20
111.982
 30
0.0
 11
52.8807
 21
102.113
 31
0.0
  0
LINE
  8
0
 62
     0
 10
52.8807
 20
102.113
 30
0.0
 11
57.0798
 21
91.7455
 31
0.0
  0
LINE
  8
0
 62
     0
 10
57.0798
 20
91.7455
 30
0.0
 11
61.0817
 21
80.8965
 31
0.0
  0
LINE
  8
0
 62
     0
 10
61.0817
 20
80.8965
 30
0.0
 11
64.878
 21
69.5826
 31
0.0
  0
LINE
  8
0
 62
     0
 10
64.878
 20
69.5826
 30
0.0
 11
68.4622
 21
57.8196
 31
0.0
  0
LINE
  8
0
 62
     0
 10
68.4622
 20
57.8196
 30
0.0
 11
71.8287
 21
45.624
 31
0.0
  0
LINE
  8
0
 62
     0
 10
71.8287
 20
45.624
 30
0.0
 11
74.9695
 21
33.0137
 31
0.0
  0
LINE
  8
0
 62
     0
 10
74.9695
 20
33.0137
 30
0.0
 11
77.8757
 21
20.0022
 31
0.0
  0
LINE
  8
0
 62
     0
 10
77.8757
 20
20.0022
 30
0.0
 11
80.5438
 21
6.60908
 31
0.0
  0
LINE
  8
0
 62
     0
 10
80.5438
 20
6.60908
 30
0.0
 11
80.9378
 21
4.48275
 31
0.0
  0
LINE
  8
0
 62
     0
 10
80.9378
 20
4.48275
 30
0.0
 11
81.2617
 21
2.71336
 31
0.0
  0
LINE
  8
0
 62
     0
 10
81.2617
 20
2.71336
 30
0.0
 11
81.4807
 21
1.48277
 31
0.0
  0
LINE
  8
0
 62
     0
 10
81.4807
 20
1.48277
 30
0.0
 11
81.5619
 21
0.978408
 31
0.0
  0
LINE
  8
0
 62
     0
 10
81.5619
 20
0.978408
 30
0.0
 11
80.4817
 21
0.876434
 31
0.0
  0
LINE
  8
0
 62
     0
 10
80.4817
 20
0.876434
 30
0.0
 11
77.1412
 21
0.846116
 31
0.0
  0
LINE
  8
0
 62
     0
 10
77.1412
 20
0.846116
 30
0.0
 11
71.3878
 21
0.886079
 31
0.0
  0
LINE
  8
0
 62
     0
 10
71.3878
 20
0.886079
 30
0.0
 11
63.0714
 21
0.996322
 31
0.0
  0
LINE
  8
0
 62
     182
 10
63.0714
 20
0.996322
 30
0.0
 11
57.5525
 21
1.08038
 31
0.0
  0
LINE
  8
0
 62
     182
 10
57.5525
 20
1.08038
 30
0.0
 11
57.7674
 21
4.28156
 31
0.0
  0
LINE
  8
0
 62
     182
 10
57.7674
 20
4.28156
 30
0.0
 11
57.8665
 21
6.6077
 31
0.0
  0
LINE
  8
0
 62
     182
 10
57.8665
 20
6.6077
 30
0.0
 11
57.93
 21
9.85711
 31
0.0
  0
LINE
  8
0
 62
     182
 10
57.93
 20
9.85711
 30
0.0
 11
57.9589
 21
13.7473
 31
0.0
  0
LINE
  8
0
 62
     182
 10
57.9589
 20
13.7473
 30
0.0
 11
57.9547
 21
17.9944
 31
0.0
  0
LINE
  8
0
 62
     182
 10
57.9547
 20
17.9944
 30
0.0
 11
57.9191
 21
22.3132
 31
0.0
  0
LINE
  8
0
 62
     182
 10
57.9191
 20
22.3132
 30
0.0
 11
57.8527
 21
26.4197
 31
0.0
  0
LINE
  8
0
 62
     182
 10
57.8527
 20
26.4197
 30
0.0
 11
57.7578
 21
30.0288
 31
0.0
  0
LINE
  8
0
 62
     182
 10
57.7578
 20
30.0288
 30
0.0
 11
57.6351
 21
32.8552
 31
0.0
  0
LINE
  8
0
 62
     182
 10
57.6351
 20
32.8552
 30
0.0
 11
56.7489
 21
44.7449
 31
0.0
  0
LINE
  8
0
 62
     182
 10
56.7489
 20
44.7449
 30
0.0
 11
55.5103
 21
56.1372
 31
0.0
  0
LINE
  8
0
 62
     182
 10
55.5103
 20
56.1372
 30
0.0
 11
53.9101
 21
67.0676
 31
0.0
  0
LINE
  8
0
 62
     182
 10
53.9101
 20
67.0676
 30
0.0
 11
51.9395
 21
77.5751
 31
0.0
  0
LINE
  8
0
 62
     182
 10
51.9395
 20
77.5751
 30
0.0
 11
49.5928
 21
87.697
 31
0.0
  0
LINE
  8
0
 62
     182
 10
49.5928
 20
87.697
 30
0.0
 11
46.8602
 21
97.4658
 31
0.0
  0
LINE
  8
0
 62
     182
 10
46.8602
 20
97.4658
 30
0.0
 11
43.7363
 21
106.923
 31
0.0
  0
LINE
  8
0
 62
     182
 10
43.7363
 20
106.923
 30
0.0
 11
40.2124
 21
116.101
 31
0.0
  0
LINE
  8
0
 62
     182
 10
40.2124
 20
116.101
 30
0.0
 11
39.3224
 21
118.159
 31
0.0
  0
LINE
  8
0
 62
     182
 10
39.3224
 20
118.159
 30
0.0
 11
38.1868
 21
120.631
 31
0.0
  0
LINE
  8
0
 62
     182
 10
38.1868
 20
120.631
 30
0.0
 11
36.8762
 21
123.373
 31
0.0
  0
LINE
  8
0
 62
     182
 10
36.8762
 20
123.373
 30
0.0
 11
35.4665
 21
126.237
 31
0.0
  0
LINE
  8
0
 62
     182
 10
35.4665
 20
126.237
 30
0.0
 11
34.0306
 21
129.077
 31
0.0
  0
LINE
  8
0
 62
     182
 10
34.0306
 20
129.077
 30
0.0
 11
32.6402
 21
131.743
 31
0.0
  0
LINE
  8
0
 62
     182
 10
32.6402
 20
131.743
 30
0.0
 11
31.371
 21
134.09
 31
0.0
  0
LINE
  8
0
 62
     182
 10
31.371
 20
134.09
 30
0.0
 11
30.2962
 21
135.97
 31
0.0
  0
LINE
  8
0
 62
     182
 10
30.2962
 20
135.97
 30
0.0
 11
23.7794
 21
145.919
 31
0.0
  0
LINE
  8
0
 62
     182
 10
23.7794
 20
145.919
 30
0.0
 11
16.7335
 21
154.915
 31
0.0
  0
LINE
  8
0
 62
     182
 10
16.7335
 20
154.915
 30
0.0
 11
15.3486
 21
156.466
 31
0.0
  0
LINE
  8
0
 62
     182
 10
15.3486
 20
156.466
 30
0.0
 11
13.6977
 21
158.224
 31
0.0
  0
LINE
  8
0
 62
     182
 10
13.6977
 20
158.224
 30
0.0
 11
11.8704
 21
160.1
 31
0.0
  0
LINE
  8
0
 62
     182
 10
11.8704
 20
160.1
 30
0.0
 11
9.95497
 21
162.009
 31
0.0
  0
LINE
  8
0
 62
     182
 10
9.95497
 20
162.009
 30
0.0
 11
8.03949
 21
163.865
 31
0.0
  0
LINE
  8
0
 62
     182
 10
8.03949
 20
163.865
 30
0.0
 11
6.2122
 21
165.578
 31
0.0
  0
LINE
  8
0
 62
     182
 10
6.2122
 20
165.578
 30
0.0
 11
4.55994
 21
167.065
 31
0.0
  0
LINE
  8
0
 62
     182
 10
4.55994
 20
167.065
 30
0.0
 11
3.175
 21
168.235
 31
0.0
  0
LINE
  8
0
 62
     182
 10
3.175
 20
168.235
 30
0.0
 11
0.764812
 21
170.174
 31
0.0
  0
LINE
  8
0
 62
     182
 10
0.764812
 20
170.174
 30
0.0
 11
0.846116
 21
172.643
 31
0.0
  0
LINE
  8
0
 62
     182
 10
0.846116
 20
172.643
 30
0.0
 11
0.895724
 21
173.623
 31
0.0
  0
LINE
  8
0
 62
     182
 10
0.895724
 20
173.623
 30
0.0
 11
0.974273
 21
174.464
 31
0.0
  0
LINE
  8
0
 62
     182
 10
0.974273
 20
174.464
 30
0.0
 11
1.06936
 21
175.076
 31
0.0
  0
LINE
  8
0
 62
     182
 10
1.06936
 20
175.076
 30
0.0
 11
1.17133
 21
175.368
 31
0.0
  0
LINE
  8
0
 62
     182
 10
1.17133
 20
175.368
 30
0.0
 11
1.6123
 21
175.343
 31
0.0
  0
LINE
  8
0
 62
     182
 10
1.6123
 20
175.343
 30
0.0
 11
2.47909
 21
174.876
 31
0.0
  0
LINE
  8
0
 62
     182
 10
2.47909
 20
174.876
 30
0.0
 11
3.70829
 21
174.019
 31
0.0
  0
LINE
  8
0
 62
     182
 10
3.70829
 20
174.019
 30
0.0
 11
5.2324
 21
172.824
 31
0.0
  0
LINE
  8
0
 62
     182
 10
5.2324
 20
172.824
 30
0.0
 11
6.98803
 21
171.344
 31
0.0
  0
LINE
  8
0
 62
     182
 10
6.98803
 20
171.344
 30
0.0
 11
8.91314
 21
169.631
 31
0.0
  0
LINE
  8
0
 62
     182
 10
8.91314
 20
169.631
 30
0.0
 11
10.9402
 21
167.739
 31
0.0
  0
LINE
  8
0
 62
     182
 10
10.9402
 20
167.739
 30
0.0
 11
13.0059
 21
165.719
 31
0.0
  0
LINE
  8
0
 62
     182
 10
13.0059
 20
165.719
 30
0.0
 11
18.5346
 21
159.803
 31
0.0
  0
LINE
  8
0
 62
     182
 10
18.5346
 20
159.803
 30
0.0
 11
23.9227
 21
153.271
 31
0.0
  0
LINE
  8
0
 62
     182
 10
23.9227
 20
153.271
 30
0.0
 11
29.1621
 21
146.142
 31
0.0
  0
LINE
  8
0
 62
     182
 10
29.1621
 20
146.142
 30
0.0
 11
34.2456
 21
138.432
 31
0.0
  0
LINE
  8
0
 62
     182
 10
34.2456
 20
138.432
 30
0.0
 11
39.1654
 21
130.158
 31
0.0
  0
LINE
  8
0
 62
     182
 10
39.1654
 20
130.158
 30
0.0
 11
43.9166
 21
121.335
 31
0.0
  0
LINE
  8
0
 62
     182
 10
43.9166
 20
121.335
 30
0.0
 11
48.4904
 21
111.982
 31
0.0
  0
LINE
  8
0
 62
     182
 10
48.4904
 20
111.982
 30
0.0
 11
52.8807
 21
102.113
 31
0.0
  0
LINE
  8
0
 62
     182
 10
52.8807
 20
102.113
 30
0.0
 11
57.0798
 21
91.7455
 31
0.0
  0
LINE
  8
0
 62
     182
 10
57.0798
 20
91.7455
 30
0.0
 11
61.0817
 21
80.8965
 31
0.0
  0
LINE
  8
0
 62
     182
 10
61.0817
 20
80.8965
 30
0.0
 11
64.878
 21
69.5826
 31
0.0
  0
LINE
  8
0
 62
     182
 10
64.878
 20
69.5826
 30
0.0
 11
68.4622
 21
57.8196
 31
0.0
  0
LINE
  8
0
 62
     182
 10
68.4622
 20
57.8196
 30
0.0
 11
71.8287
 21
45.624
 31
0.0
  0
LINE
  8
0
 62
     182
 10
71.8287
 20
45.624
 30
0.0
 11
74.9695
 21
33.0137
 31
0.0
  0
LINE
  8
0
 62
     182
 10
74.9695
 20
33.0137
 30
0.0
 11
77.8757
 21
20.0022
 31
0.0
  0
LINE
  8
0
 62
     182
 10
77.8757
 20
20.0022
 30
0.0
 11
80.5438
 21
6.60908
 31
0.0
  0
LINE
  8
0
 62
     182
 10
80.5438
 20
6.60908
 30
0.0
 11
80.9378
 21
4.48275
 31
0.0
  0
LINE
  8
0
 62
     182
 10
80.9378
 20
4.48275
 30
0.0
 11
81.2617
 21
2.71336
 31
0.0
  0
LINE
  8
0
 62
     182
 10
81.2617
 20
2.71336
 30
0.0
 11
81.4807
 21
1.48277
 31
0.0
  0
LINE
  8
0
 62
     182
 10
81.4807
 20
1.48277
 30
0.0
 11
81.5619
 21
0.978408
 31
0.0
  0
LINE
  8
0
 62
     182
 10
81.5619
 20
0.978408
 30
0.0
 11
80.4817
 21
0.876434
 31
0.0
  0
LINE
  8
0
 62
     182
 10
80.4817
 20
0.876434
 30
0.0
 11
77.1412
 21
0.846116
 31
0.0
  0
LINE
  8
0
 62
     182
 10
77.1412
 20
0.846116
 30
0.0
 11
71.3878
 21
0.886079
 31
0.0
  0
LINE
  8
0
 62
     182
 10
71.3878
 20
0.886079
 30
0.0
 11
63.0714
 21
0.996322
 31
0.0
  0
LINE
  8
0
 62
     0
 10
63.0714
 20
0.996322
 30
0.0
 11
57.5525
 21
1.08038
 31
0.0
  0
LINE
  8
0
 62
     0
 10
57.5525
 20
1.08038
 30
0.0
 11
57.7674
 21
4.28156
 31
0.0
  0
LINE
  8
0
 62
     0
 10
57.7674
 20
4.28156
 30
0.0
 11
57.8665
 21
6.6077
 31
0.0
  0
LINE
  8
0
 62
     0
 10
57.8665
 20
6.6077
 30
0.0
 11
57.93
 21
9.85711
 31
0.0
  0
LINE
  8
0
 62
     0
 10
57.93
 20
9.85711
 30
0.0
 11
57.9589
 21
13.7473
 31
0.0
  0
LINE
  8
0
 62
     0
 10
57.9589
 20
13.7473
 30
0.0
 11
57.9547
 21
17.9944
 31
0.0
  0
LINE
  8
0
 62
     0
 10
57.9547
 20
17.9944
 30
0.0
 11
57.9191
 21
22.3132
 31
0.0
  0
LINE
  8
0
 62
     0
 10
57.9191
 20
22.3132
 30
0.0
 11
57.8527
 21
26.4197
 31
0.0
  0
LINE
  8
0
 62
     0
 10
57.8527
 20
26.4197
 30
0.0
 11
57.7578
 21
30.0288
 31
0.0
  0
LINE
  8
0
 62
     0
 10
57.7578
 20
30.0288
 30
0.0
 11
57.6351
 21
32.8552
 31
0.0
  0
LINE
  8
0
 62
     0
 10
57.6351
 20
32.8552
 30
0.0
 11
56.7489
 21
44.7449
 31
0.0
  0
LINE
  8
0
 62
     0
 10
56.7489
 20
44.7449
 30
0.0
 11
55.5103
 21
56.1372
 31
0.0
  0
LINE
  8
0
 62
     0
 10
55.5103
 20
56.1372
 30
0.0
 11
53.9101
 21
67.0676
 31
0.0
  0
LINE
  8
0
 62
     0
 10
53.9101
 20
67.0676
 30
0.0
 11
51.9395
 21
77.5751
 31
0.0
  0
LINE
  8
0
 62
     0
 10
51.9395
 20
77.5751
 30
0.0
 11
49.5928
 21
87.697
 31
0.0
  0
LINE
  8
0
 62
     0
 10
49.5928
 20
87.697
 30
0.0
 11
46.8602
 21
97.4658
 31
0.0
  0
LINE
  8
0
 62
     0
 10
46.8602
 20
97.4658
 30
0.0
 11
43.7363
 21
106.923
 31
0.0
  0
LINE
  8
0
 62
     0
 10
43.7363
 20
106.923
 30
0.0
 11
40.2124
 21
116.101
 31
0.0
  0
LINE
  8
0
 62
     0
 10
40.2124
 20
116.101
 30
0.0
 11
39.3224
 21
118.159
 31
0.0
  0
LINE
  8
0
 62
     0
 10
39.3224
 20
118.159
 30
0.0
 11
38.1868
 21
120.631
 31
0.0
  0
LINE
  8
0
 62
     0
 10
38.1868
 20
120.631
 30
0.0
 11
36.8762
 21
123.373
 31
0.0
  0
LINE
  8
0
 62
     0
 10
36.8762
 20
123.373
 30
0.0
 11
35.4665
 21
126.237
 31
0.0
  0
LINE
  8
0
 62
     0
 10
35.4665
 20
126.237
 30
0.0
 11
34.0306
 21
129.077
 31
0.0
  0
LINE
  8
0
 62
     0
 10
34.0306
 20
129.077
 30
0.0
 11
32.6402
 21
131.743
 31
0.0
  0
LINE
  8
0
 62
     0
 10
32.6402
 20
131.743
 30
0.0
 11
31.371
 21
134.09
 31
0.0
  0
LINE
  8
0
 62
     0
 10
31.371
 20
134.09
 30
0.0
 11
30.2962
 21
135.97
 31
0.0
  0
LINE
  8
0
 62
     0
 10
30.2962
 20
135.97
 30
0.0
 11
23.7794
 21
145.919
 31
0.0
  0
LINE
  8
0
 62
     0
 10
23.7794
 20
145.919
 30
0.0
 11
16.7335
 21
154.915
 31
0.0
  0
LINE
  8
0
 62
     0
 10
16.7335
 20
154.915
 30
0.0
 11
15.3486
 21
156.466
 31
0.0
  0
LINE
  8
0
 62
     0
 10
15.3486
 20
156.466
 30
0.0
 11
13.6977
 21
158.224
 31
0.0
  0
LINE
  8
0
 62
     0
 10
13.6977
 20
158.224
 30
0.0
 11
11.8704
 21
160.1
 31
0.0
  0
LINE
  8
0
 62
     0
 10
11.8704
 20
160.1
 30
0.0
 11
9.95497
 21
162.009
 31
0.0
  0
LINE
  8
0
 62
     0
 10
9.95497
 20
162.009
 30
0.0
 11
8.03949
 21
163.865
 31
0.0
  0
LINE
  8
0
 62
     0
 10
8.03949
 20
163.865
 30
0.0
 11
6.2122
 21
165.578
 31
0.0
  0
LINE
  8
0
 62
     0
 10
6.2122
 20
165.578
 30
0.0
 11
4.55994
 21
167.065
 31
0.0
  0
LINE
  8
0
 62
     0
 10
4.55994
 20
167.065
 30
0.0
 11
3.175
 21
168.235
 31
0.0
  0
LINE
  8
0
 62
     0
 10
3.175
 20
168.235
 30
0.0
 11
0.764812
 21
170.174
 31
0.0
  0
LINE
  8
0
 62
     0
 10
0.764812
 20
170.174
 30
0.0
 11
0.846116
 21
172.643
 31
0.0
  0
LINE
  8
0
 62
     0
 10
0.846116
 20
172.643
 30
0.0
 11
0.895724
 21
173.623
 31
0.0
  0
LINE
  8
0
 62
     0
 10
0.895724
 20
173.623
 30
0.0
 11
0.974273
 21
174.464
 31
0.0
  0
LINE
  8
0
 62
     0
 10
0.974273
 20
174.464
 30
0.0
 11
1.06936
 21
175.076
 31
0.0
  0
LINE
  8
0
 62
     0
 10
1.06936
 20
175.076
 30
0.0
 11
1.17133
 21
175.368
 31
0.0
  0
LINE
  8
0
 62
     0
 10
1.17133
 20
175.368
 30
0.0
 11
1.6123
 21
175.343
 31
0.0
  0
LINE
  8
0
 62
     0
 10
1.6123
 20
175.343
 30
0.0
 11
2.47909
 21
174.876
 31
0.0
  0
LINE
  8
0
 62
     0
 10
2.47909
 20
174.876
 30
0.0
 11
3.70829
 21
174.019
 31
0.0
  0
LINE
  8
0
 62
     0
 10
3.70829
 20
174.019
 30
0.0
 11
5.2324
 21
172.824
 31
0.0
  0
LINE
  8
0
 62
     0
 10
5.2324
 20
172.824
 30
0.0
 11
6.98803
 21
171.344
 31
0.0
  0
LINE
  8
0
 62
     0
 10
6.98803
 20
171.344
 30
0.0
 11
8.91314
 21
169.631
 31
0.0
  0
LINE
  8
0
 62
     0
 10
8.91314
 20
169.631
 30
0.0
 11
10.9402
 21
167.739
 31
0.0
  0
LINE
  8
0
 62
     0
 10
10.9402
 20
167.739
 30
0.0
 11
13.0059
 21
165.719
 31
0.0
  0
LINE
  8
0
 62
     0
 10
13.0059
 20
165.719
 30
0.0
 11
18.5346
 21
159.803
 31
0.0
  0
LINE
  8
0
 62
     0
 10
18.5346
 20
159.803
 30
0.0
 11
23.9227
 21
153.271
 31
0.0
  0
LINE
  8
0
 62
     0
 10
23.9227
 20
153.271
 30
0.0
 11
29.1621
 21
146.142
 31
0.0
  0
LINE
  8
0
 62
     0
 10
29.1621
 20
146.142
 30
0.0
 11
34.2456
 21
138.432
 31
0.0
  0
LINE
  8
0
 62
     0
 10
34.2456
 20
138.432
 30
0.0
 11
39.1654
 21
130.158
 31
0.0
  0
LINE
  8
0
 62
     0
 10
39.1654
 20
130.158
 30
0.0
 11
43.9166
 21
121.335
 31
0.0
  0
LINE
  8
0
 62
     0
 10
43.9166
 20
121.335
 30
0.0
 11
48.4904
 21
111.982
 31
0.0
  0
LINE
  8
0
 62
     0
 10
48.4904
 20
111.982
 30
0.0
 11
52.8807
 21
102.113
 31
0.0
  0
LINE
  8
0
 62
     0
 10
52.8807
 20
102.113
 30
0.0
 11
57.0798
 21
91.7455
 31
0.0
  0
LINE
  8
0
 62
     0
 10
57.0798
 20
91.7455
 30
0.0
 11
61.0817
 21
80.8965
 31
0.0
  0
LINE
  8
0
 62
     0
 10
61.0817
 20
80.8965
 30
0.0
 11
64.878
 21
69.5826
 31
0.0
  0
LINE
  8
0
 62
     0
 10
64.878
 20
69.5826
 30
0.0
 11
68.4622
 21
57.8196
 31
0.0
  0
LINE
  8
0
 62
     0
 10
68.4622
 20
57.8196
 30
0.0
 11
71.8287
 21
45.624
 31
0.0
  0
LINE
  8
0
 62
     0
 10
71.8287
 20
45.624
 30
0.0
 11
74.9695
 21
33.0137
 31
0.0
  0
LINE
  8
0
 62
     0
 10
74.9695
 20
33.0137
 30
0.0
 11
77.8757
 21
20.0022
 31
0.0
  0
LINE
  8
0
 62
     0
 10
77.8757
 20
20.0022
 30
0.0
 11
80.5438
 21
6.60908
 31
0.0
  0
LINE
  8
0
 62
     0
 10
80.5438
 20
6.60908
 30
0.0
 11
80.9378
 21
4.48275
 31
0.0
  0
LINE
  8
0
 62
     0
 10
80.9378
 20
4.48275
 30
0.0
 11
81.2617
 21
2.71336
 31
0.0
  0
LINE
  8
0
 62
     0
 10
81.2617
 20
2.71336
 30
0.0
 11
81.4807
 21
1.48277
 31
0.0
  0
LINE
  8
0
 62
     0
 10
81.4807
 20
1.48277
 30
0.0
 11
81.5619
 21
0.978408
 31
0.0
  0
LINE
  8
0
 62
     0
 10
81.5619
 20
0.978408
 30
0.0
 11
80.4817
 21
0.876434
 31
0.0
  0
LINE
  8
0
 62
     0
 10
80.4817
 20
0.876434
 30
0.0
 11
77.1412
 21
0.846116
 31
0.0
  0
LINE
  8
0
 62
     0
 10
77.1412
 20
0.846116
 30
0.0
 11
71.3878
 21
0.886079
 31
0.0
  0
LINE
  8
0
 62
     0
 10
71.3878
 20
0.886079
 30
0.0
 11
63.0714
 21
0.996322
 31
0.0
  0
ENDSEC
  0
EOF
