  0
SECTION
  2
HEADER
  9
$ACADVER
  1
AC1009
  9
$EXTMIN
 10
0.0
 20
0.0
 30
0.0
  9
$EXTMAX
 10
1000.0
 20
1000.0
 30
0.0
  9
$FILLMODE
 70
 0
  9
$SPLFRAME
 70
 1
  0
ENDSEC
  0
SECTION
  2
TABLES
  0
TABLE
  2
LAYER
 70
1
  0
LAYER
  2
0
 70
     0
 62
     7
  6
CONTINUOUS
  0
ENDTAB
  0
ENDSEC
  0
SECTION
  2
ENTITIES
  0
LINE
  8
0
 62
     0
 10
61.8628
 20
0.355533
 30
0.0
 11
57.0163
 21
0.439593
 31
0.0
  0
LINE
  8
0
 62
     0
 10
57.0163
 20
0.439593
 30
0.0
 11
57.1168
 21
12.7634
 31
0.0
  0
LINE
  8
0
 62
     0
 10
57.1168
 20
12.7634
 30
0.0
 11
57.132
 21
18.1226
 31
0.0
  0
LINE
  8
0
 62
     0
 10
57.132
 20
18.1226
 30
0.0
 11
57.095
 21
23.282
 31
0.0
  0
LINE
  8
0
 62
     0
 10
57.095
 20
23.282
 30
0.0
 11
57.0121
 21
27.7592
 31
0.0
  0
LINE
  8
0
 62
     0
 10
57.0121
 20
27.7592
 30
0.0
 11
56.8911
 21
31.0747
 31
0.0
  0
LINE
  8
0
 62
     0
 10
56.8911
 20
31.0747
 30
0.0
 11
56.0751
 21
42.6364
 31
0.0
  0
LINE
  8
0
 62
     0
 10
56.0751
 20
42.6364
 30
0.0
 11
54.9148
 21
53.7602
 31
0.0
  0
LINE
  8
0
 62
     0
 10
54.9148
 20
53.7602
 30
0.0
 11
53.406
 21
64.4744
 31
0.0
  0
LINE
  8
0
 62
     0
 10
53.406
 20
64.4744
 30
0.0
 11
51.5415
 21
74.8012
 31
0.0
  0
LINE
  8
0
 62
     0
 10
51.5415
 20
74.8012
 30
0.0
 11
49.3159
 21
84.7686
 31
0.0
  0
LINE
  8
0
 62
     0
 10
49.3159
 20
84.7686
 30
0.0
 11
46.7265
 21
94.3984
 31
0.0
  0
LINE
  8
0
 62
     0
 10
46.7265
 20
94.3984
 30
0.0
 11
43.7667
 21
103.718
 31
0.0
  0
LINE
  8
0
 62
     0
 10
43.7667
 20
103.718
 30
0.0
 11
40.4329
 21
112.75
 31
0.0
  0
LINE
  8
0
 62
     0
 10
40.4329
 20
112.75
 30
0.0
 11
39.5524
 21
114.868
 31
0.0
  0
LINE
  8
0
 62
     0
 10
39.5524
 20
114.868
 30
0.0
 11
38.4376
 21
117.395
 31
0.0
  0
LINE
  8
0
 62
     0
 10
38.4376
 20
117.395
 30
0.0
 11
37.1507
 21
120.197
 31
0.0
  0
LINE
  8
0
 62
     0
 10
37.1507
 20
120.197
 30
0.0
 11
35.7558
 21
123.14
 31
0.0
  0
LINE
  8
0
 62
     0
 10
35.7558
 20
123.14
 30
0.0
 11
34.3187
 21
126.088
 31
0.0
  0
LINE
  8
0
 62
     0
 10
34.3187
 20
126.088
 30
0.0
 11
32.9048
 21
128.907
 31
0.0
  0
LINE
  8
0
 62
     0
 10
32.9048
 20
128.907
 30
0.0
 11
31.5791
 21
131.462
 31
0.0
  0
LINE
  8
0
 62
     0
 10
31.5791
 20
131.462
 30
0.0
 11
30.405
 21
133.619
 31
0.0
  0
LINE
  8
0
 62
     0
 10
30.405
 20
133.619
 30
0.0
 11
27.3541
 21
138.668
 31
0.0
  0
LINE
  8
0
 62
     0
 10
27.3541
 20
138.668
 30
0.0
 11
23.7712
 21
143.998
 31
0.0
  0
LINE
  8
0
 62
     0
 10
23.7712
 20
143.998
 30
0.0
 11
19.9499
 21
149.189
 31
0.0
  0
LINE
  8
0
 62
     0
 10
19.9499
 20
149.189
 30
0.0
 11
16.1878
 21
153.822
 31
0.0
  0
LINE
  8
0
 62
     0
 10
16.1878
 20
153.822
 30
0.0
 11
14.8539
 21
155.306
 31
0.0
  0
LINE
  8
0
 62
     0
 10
14.8539
 20
155.306
 30
0.0
 11
13.1685
 21
157.091
 31
0.0
  0
LINE
  8
0
 62
     0
 10
13.1685
 20
157.091
 30
0.0
 11
11.2462
 21
159.062
 31
0.0
  0
LINE
  8
0
 62
     0
 10
11.2462
 20
159.062
 30
0.0
 11
9.20669
 21
161.1
 31
0.0
  0
LINE
  8
0
 62
     0
 10
9.20669
 20
161.1
 30
0.0
 11
7.16442
 21
163.091
 31
0.0
  0
LINE
  8
0
 62
     0
 10
7.16442
 20
163.091
 30
0.0
 11
5.23931
 21
164.919
 31
0.0
  0
LINE
  8
0
 62
     0
 10
5.23931
 20
164.919
 30
0.0
 11
3.54845
 21
166.47
 31
0.0
  0
LINE
  8
0
 62
     0
 10
3.54845
 20
166.47
 30
0.0
 11
2.20762
 21
167.624
 31
0.0
  0
LINE
  8
0
 62
     0
 10
2.20762
 20
167.624
 30
0.0
 11
0.14056
 21
169.313
 31
0.0
  0
LINE
  8
0
 62
     0
 10
0.14056
 20
169.313
 30
0.0
 11
0.14056
 21
171.679
 31
0.0
  0
LINE
  8
0
 62
     0
 10
0.14056
 20
171.679
 30
0.0
 11
0.158474
 21
172.81
 31
0.0
  0
LINE
  8
0
 62
     0
 10
0.158474
 20
172.81
 30
0.0
 11
0.223242
 21
173.539
 31
0.0
  0
LINE
  8
0
 62
     0
 10
0.223242
 20
173.539
 30
0.0
 11
0.341753
 21
173.93
 31
0.0
  0
LINE
  8
0
 62
     0
 10
0.341753
 20
173.93
 30
0.0
 11
0.527787
 21
174.046
 31
0.0
  0
LINE
  8
0
 62
     0
 10
0.527787
 20
174.046
 30
0.0
 11
1.13412
 21
173.801
 31
0.0
  0
LINE
  8
0
 62
     0
 10
1.13412
 20
173.801
 30
0.0
 11
2.16628
 21
173.109
 31
0.0
  0
LINE
  8
0
 62
     0
 10
2.16628
 20
173.109
 30
0.0
 11
3.5457
 21
172.04
 31
0.0
  0
LINE
  8
0
 62
     0
 10
3.5457
 20
172.04
 30
0.0
 11
5.19105
 21
170.662
 31
0.0
  0
LINE
  8
0
 62
     0
 10
5.19105
 20
170.662
 30
0.0
 11
7.02388
 21
169.044
 31
0.0
  0
LINE
  8
0
 62
     0
 10
7.02388
 20
169.044
 30
0.0
 11
8.96553
 21
167.253
 31
0.0
  0
LINE
  8
0
 62
     0
 10
8.96553
 20
167.253
 30
0.0
 11
10.9347
 21
165.36
 31
0.0
  0
LINE
  8
0
 62
     0
 10
10.9347
 20
165.36
 30
0.0
 11
12.853
 21
163.431
 31
0.0
  0
LINE
  8
0
 62
     0
 10
12.853
 20
163.431
 30
0.0
 11
18.2342
 21
157.518
 31
0.0
  0
LINE
  8
0
 62
     0
 10
18.2342
 20
157.518
 30
0.0
 11
23.4831
 21
151.011
 31
0.0
  0
LINE
  8
0
 62
     0
 10
23.4831
 20
151.011
 30
0.0
 11
28.5929
 21
143.929
 31
0.0
  0
LINE
  8
0
 62
     0
 10
28.5929
 20
143.929
 30
0.0
 11
33.5552
 21
136.291
 31
0.0
  0
LINE
  8
0
 62
     0
 10
33.5552
 20
136.291
 30
0.0
 11
38.3632
 21
128.115
 31
0.0
  0
LINE
  8
0
 62
     0
 10
38.3632
 20
128.115
 30
0.0
 11
43.0071
 21
119.42
 31
0.0
  0
LINE
  8
0
 62
     0
 10
43.0071
 20
119.42
 30
0.0
 11
47.4818
 21
110.221
 31
0.0
  0
LINE
  8
0
 62
     0
 10
47.4818
 20
110.221
 30
0.0
 11
51.7783
 21
100.539
 31
0.0
  0
LINE
  8
0
 62
     0
 10
51.7783
 20
100.539
 30
0.0
 11
55.8878
 21
90.3912
 31
0.0
  0
LINE
  8
0
 62
     0
 10
55.8878
 20
90.3912
 30
0.0
 11
59.8039
 21
79.7952
 31
0.0
  0
LINE
  8
0
 62
     0
 10
59.8039
 20
79.7952
 30
0.0
 11
63.5208
 21
68.7709
 31
0.0
  0
LINE
  8
0
 62
     0
 10
63.5208
 20
68.7709
 30
0.0
 11
67.0264
 21
57.3345
 31
0.0
  0
LINE
  8
0
 62
     0
 10
67.0264
 20
57.3345
 30
0.0
 11
70.3157
 21
45.5055
 31
0.0
  0
LINE
  8
0
 62
     0
 10
70.3157
 20
45.5055
 30
0.0
 11
73.382
 21
33.3017
 31
0.0
  0
LINE
  8
0
 62
     0
 10
73.382
 20
33.3017
 30
0.0
 11
76.2152
 21
20.7395
 31
0.0
  0
LINE
  8
0
 62
     0
 10
76.2152
 20
20.7395
 30
0.0
 11
78.8098
 21
7.83967
 31
0.0
  0
LINE
  8
0
 62
     0
 10
78.8098
 20
7.83967
 30
0.0
 11
79.273
 21
5.39916
 31
0.0
  0
LINE
  8
0
 62
     0
 10
79.273
 20
5.39916
 30
0.0
 11
79.6766
 21
3.28111
 31
0.0
  0
LINE
  8
0
 62
     0
 10
79.6766
 20
3.28111
 30
0.0
 11
79.9772
 21
1.71428
 31
0.0
  0
LINE
  8
0
 62
     0
 10
79.9772
 20
1.71428
 30
0.0
 11
80.1328
 21
0.926042
 31
0.0
  0
LINE
  8
0
 62
     0
 10
80.1328
 20
0.926042
 30
0.0
 11
80.2954
 21
0.141938
 31
0.0
  0
LINE
  8
0
 62
     0
 10
80.2954
 20
0.141938
 30
0.0
 11
73.503
 21
0.206706
 31
0.0
  0
LINE
  8
0
 62
     0
 10
73.503
 20
0.206706
 30
0.0
 11
70.4825
 21
0.238401
 31
0.0
  0
LINE
  8
0
 62
     0
 10
70.4825
 20
0.238401
 30
0.0
 11
67.28
 21
0.276986
 31
0.0
  0
LINE
  8
0
 62
     0
 10
67.28
 20
0.276986
 30
0.0
 11
64.28
 21
0.318327
 31
0.0
  0
LINE
  8
0
 62
     0
 10
64.28
 20
0.318327
 30
0.0
 11
61.8628
 21
0.355533
 31
0.0
  0
ENDSEC
  0
EOF
