  0
SECTION
  2
HEADER
  9
$ACADVER
  1
AC1009
  9
$EXTMIN
 10
0.0
 20
0.0
 30
0.0
  9
$EXTMAX
 10
1000.0
 20
1000.0
 30
0.0
  9
$FILLMODE
 70
 0
  9
$SPLFRAME
 70
 1
  0
ENDSEC
  0
SECTION
  2
TABLES
  0
TABLE
  2
LAYER
 70
1
  0
LAYER
  2
0
 70
     0
 62
     7
  6
CONTINUOUS
  0
ENDTAB
  0
ENDSEC
  0
SECTION
  2
ENTITIES
  0
LINE
  8
0
 62
     172
 10
0.421679
 20
176.56
 30
0.0
 11
0.407899
 21
176.341
 31
0.0
  0
LINE
  8
0
 62
     172
 10
0.407899
 20
176.341
 30
0.0
 11
0
 21
169.816
 31
0.0
  0
LINE
  8
0
 62
     172
 10
0
 20
169.816
 30
0.0
 11
0.0592557
 21
169.769
 31
0.0
  0
LINE
  8
0
 62
     172
 10
0.0592557
 20
169.769
 30
0.0
 11
6.07579
 21
164.736
 31
0.0
  0
LINE
  8
0
 62
     172
 10
6.07579
 20
164.736
 30
0.0
 11
11.6623
 21
159.352
 31
0.0
  0
LINE
  8
0
 62
     172
 10
11.6623
 20
159.352
 30
0.0
 11
16.8327
 21
153.648
 31
0.0
  0
LINE
  8
0
 62
     172
 10
16.8327
 20
153.648
 30
0.0
 11
21.6035
 21
147.661
 31
0.0
  0
LINE
  8
0
 62
     172
 10
21.6035
 20
147.661
 30
0.0
 11
25.9912
 21
141.421
 31
0.0
  0
LINE
  8
0
 62
     172
 10
25.9912
 20
141.421
 30
0.0
 11
30.0109
 21
134.962
 31
0.0
  0
LINE
  8
0
 62
     172
 10
30.0109
 20
134.962
 30
0.0
 11
33.6779
 21
128.32
 31
0.0
  0
LINE
  8
0
 62
     172
 10
33.6779
 20
128.32
 30
0.0
 11
37.0071
 21
121.528
 31
0.0
  0
LINE
  8
0
 62
     172
 10
37.0071
 20
121.528
 30
0.0
 11
40.017
 21
114.618
 31
0.0
  0
LINE
  8
0
 62
     172
 10
40.017
 20
114.618
 30
0.0
 11
42.7207
 21
107.625
 31
0.0
  0
LINE
  8
0
 62
     172
 10
42.7207
 20
107.625
 30
0.0
 11
45.1347
 21
100.58
 31
0.0
  0
LINE
  8
0
 62
     172
 10
45.1347
 20
100.58
 30
0.0
 11
47.275
 21
93.5207
 31
0.0
  0
LINE
  8
0
 62
     172
 10
47.275
 20
93.5207
 30
0.0
 11
49.1575
 21
86.4761
 31
0.0
  0
LINE
  8
0
 62
     172
 10
49.1575
 20
86.4761
 30
0.0
 11
50.7986
 21
79.484
 31
0.0
  0
LINE
  8
0
 62
     172
 10
50.7986
 20
79.484
 30
0.0
 11
52.2125
 21
72.5759
 31
0.0
  0
LINE
  8
0
 62
     172
 10
52.2125
 20
72.5759
 30
0.0
 11
53.4155
 21
65.7835
 31
0.0
  0
LINE
  8
0
 62
     172
 10
53.4155
 20
65.7835
 30
0.0
 11
54.423
 21
59.1439
 31
0.0
  0
LINE
  8
0
 62
     172
 10
54.423
 20
59.1439
 30
0.0
 11
55.251
 21
52.6891
 31
0.0
  0
LINE
  8
0
 62
     172
 10
55.251
 20
52.6891
 30
0.0
 11
55.9153
 21
46.4538
 31
0.0
  0
LINE
  8
0
 62
     172
 10
55.9153
 20
46.4538
 30
0.0
 11
56.4321
 21
40.4703
 31
0.0
  0
LINE
  8
0
 62
     172
 10
56.4321
 20
40.4703
 30
0.0
 11
56.818
 21
34.7734
 31
0.0
  0
LINE
  8
0
 62
     172
 10
56.818
 20
34.7734
 30
0.0
 11
57.0865
 21
29.3949
 31
0.0
  0
LINE
  8
0
 62
     172
 10
57.0865
 20
29.3949
 30
0.0
 11
57.2548
 21
24.3692
 31
0.0
  0
LINE
  8
0
 62
     172
 10
57.2548
 20
24.3692
 30
0.0
 11
57.3387
 21
19.7294
 31
0.0
  0
LINE
  8
0
 62
     172
 10
57.3387
 20
19.7294
 30
0.0
 11
57.3525
 21
15.5112
 31
0.0
  0
LINE
  8
0
 62
     172
 10
57.3525
 20
15.5112
 30
0.0
 11
57.314
 21
11.7464
 31
0.0
  0
LINE
  8
0
 62
     172
 10
57.314
 20
11.7464
 30
0.0
 11
57.2382
 21
8.46804
 31
0.0
  0
LINE
  8
0
 62
     172
 10
57.2382
 20
8.46804
 30
0.0
 11
57.1419
 21
5.71059
 31
0.0
  0
LINE
  8
0
 62
     172
 10
57.1419
 20
5.71059
 30
0.0
 11
57.0385
 21
3.50711
 31
0.0
  0
LINE
  8
0
 62
     172
 10
57.0385
 20
3.50711
 30
0.0
 11
56.9447
 21
1.89205
 31
0.0
  0
LINE
  8
0
 62
     172
 10
56.9447
 20
1.89205
 30
0.0
 11
56.8773
 21
0.898483
 31
0.0
  0
LINE
  8
0
 62
     172
 10
56.8773
 20
0.898483
 30
0.0
 11
56.8523
 21
0.559484
 31
0.0
  0
LINE
  8
0
 62
     172
 10
56.8523
 20
0.559484
 30
0.0
 11
56.8399
 21
0.407899
 31
0.0
  0
LINE
  8
0
 62
     172
 10
56.8399
 20
0.407899
 30
0.0
 11
82.1588
 21
0
 31
0.0
  0
LINE
  8
0
 62
     172
 10
82.1588
 20
0
 30
0.0
 11
82.1284
 21
0.168121
 31
0.0
  0
LINE
  8
0
 62
     172
 10
82.1284
 20
0.168121
 30
0.0
 11
79.5941
 21
13.5709
 31
0.0
  0
LINE
  8
0
 62
     172
 10
79.5941
 20
13.5709
 30
0.0
 11
76.9041
 21
26.3026
 31
0.0
  0
LINE
  8
0
 62
     172
 10
76.9041
 20
26.3026
 30
0.0
 11
74.0738
 21
38.3826
 31
0.0
  0
LINE
  8
0
 62
     172
 10
74.0738
 20
38.3826
 30
0.0
 11
71.1207
 21
49.8256
 31
0.0
  0
LINE
  8
0
 62
     172
 10
71.1207
 20
49.8256
 30
0.0
 11
68.0572
 21
60.6474
 31
0.0
  0
LINE
  8
0
 62
     172
 10
68.0572
 20
60.6474
 30
0.0
 11
64.9002
 21
70.8642
 31
0.0
  0
LINE
  8
0
 62
     172
 10
64.9002
 20
70.8642
 30
0.0
 11
61.6645
 21
80.4912
 31
0.0
  0
LINE
  8
0
 62
     172
 10
61.6645
 20
80.4912
 30
0.0
 11
58.3667
 21
89.5463
 31
0.0
  0
LINE
  8
0
 62
     172
 10
58.3667
 20
89.5463
 30
0.0
 11
55.021
 21
98.0433
 31
0.0
  0
LINE
  8
0
 62
     172
 10
55.021
 20
98.0433
 30
0.0
 11
51.6449
 21
106
 31
0.0
  0
LINE
  8
0
 62
     172
 10
51.6449
 20
106
 30
0.0
 11
48.2519
 21
113.432
 31
0.0
  0
LINE
  8
0
 62
     172
 10
48.2519
 20
113.432
 30
0.0
 11
44.8578
 21
120.354
 31
0.0
  0
LINE
  8
0
 62
     172
 10
44.8578
 20
120.354
 30
0.0
 11
41.4789
 21
126.782
 31
0.0
  0
LINE
  8
0
 62
     172
 10
41.4789
 20
126.782
 30
0.0
 11
38.1289
 21
132.734
 31
0.0
  0
LINE
  8
0
 62
     172
 10
38.1289
 20
132.734
 30
0.0
 11
34.8258
 21
138.224
 31
0.0
  0
LINE
  8
0
 62
     172
 10
34.8258
 20
138.224
 30
0.0
 11
31.5832
 21
143.269
 31
0.0
  0
LINE
  8
0
 62
     172
 10
31.5832
 20
143.269
 30
0.0
 11
25.3421
 21
152.087
 31
0.0
  0
LINE
  8
0
 62
     172
 10
25.3421
 20
152.087
 30
0.0
 11
19.5309
 21
159.316
 31
0.0
  0
LINE
  8
0
 62
     172
 10
19.5309
 20
159.316
 30
0.0
 11
14.2723
 21
165.082
 31
0.0
  0
LINE
  8
0
 62
     172
 10
14.2723
 20
165.082
 30
0.0
 11
9.69176
 21
169.514
 31
0.0
  0
LINE
  8
0
 62
     172
 10
9.69176
 20
169.514
 30
0.0
 11
5.9104
 21
172.741
 31
0.0
  0
LINE
  8
0
 62
     172
 10
5.9104
 20
172.741
 30
0.0
 11
3.05235
 21
174.888
 31
0.0
  0
LINE
  8
0
 62
     172
 10
3.05235
 20
174.888
 30
0.0
 11
1.24575
 21
176.086
 31
0.0
  0
LINE
  8
0
 62
     172
 10
1.24575
 20
176.086
 30
0.0
 11
0.615982
 21
176.455
 31
0.0
  0
LINE
  8
0
 62
     172
 10
0.615982
 20
176.455
 30
0.0
 11
0.421679
 21
176.56
 31
0.0
  0
LINE
  8
0
 62
     172
 10
0.675238
 20
176.083
 30
0.0
 11
1.40973
 21
175.647
 31
0.0
  0
LINE
  8
0
 62
     172
 10
1.40973
 20
175.647
 30
0.0
 11
3.175
 21
174.464
 31
0.0
  0
LINE
  8
0
 62
     172
 10
3.175
 20
174.464
 30
0.0
 11
5.89802
 21
172.395
 31
0.0
  0
LINE
  8
0
 62
     172
 10
5.89802
 20
172.395
 30
0.0
 11
9.50295
 21
169.306
 31
0.0
  0
LINE
  8
0
 62
     172
 10
9.50295
 20
169.306
 30
0.0
 11
14.0698
 21
164.887
 31
0.0
  0
LINE
  8
0
 62
     172
 10
14.0698
 20
164.887
 30
0.0
 11
19.316
 21
159.132
 31
0.0
  0
LINE
  8
0
 62
     172
 10
19.316
 20
159.132
 30
0.0
 11
25.1161
 21
151.918
 31
0.0
  0
LINE
  8
0
 62
     172
 10
25.1161
 20
151.918
 30
0.0
 11
31.3476
 21
143.112
 31
0.0
  0
LINE
  8
0
 62
     172
 10
31.3476
 20
143.112
 30
0.0
 11
34.5833
 21
138.079
 31
0.0
  0
LINE
  8
0
 62
     172
 10
34.5833
 20
138.079
 30
0.0
 11
37.8795
 21
132.6
 31
0.0
  0
LINE
  8
0
 62
     172
 10
37.8795
 20
132.6
 30
0.0
 11
41.2228
 21
126.661
 31
0.0
  0
LINE
  8
0
 62
     172
 10
41.2228
 20
126.661
 30
0.0
 11
44.5946
 21
120.246
 31
0.0
  0
LINE
  8
0
 62
     172
 10
44.5946
 20
120.246
 30
0.0
 11
47.9834
 21
113.338
 31
0.0
  0
LINE
  8
0
 62
     172
 10
47.9834
 20
113.338
 30
0.0
 11
51.3704
 21
105.922
 31
0.0
  0
LINE
  8
0
 62
     172
 10
51.3704
 20
105.922
 30
0.0
 11
54.7412
 21
97.9798
 31
0.0
  0
LINE
  8
0
 62
     172
 10
54.7412
 20
97.9798
 30
0.0
 11
58.0817
 21
89.4994
 31
0.0
  0
LINE
  8
0
 62
     172
 10
58.0817
 20
89.4994
 30
0.0
 11
61.3752
 21
80.4623
 31
0.0
  0
LINE
  8
0
 62
     172
 10
61.3752
 20
80.4623
 30
0.0
 11
64.6053
 21
70.8519
 31
0.0
  0
LINE
  8
0
 62
     172
 10
64.6053
 20
70.8519
 30
0.0
 11
67.758
 21
60.6545
 31
0.0
  0
LINE
  8
0
 62
     172
 10
67.758
 20
60.6545
 30
0.0
 11
70.8187
 21
49.8531
 31
0.0
  0
LINE
  8
0
 62
     172
 10
70.8187
 20
49.8531
 30
0.0
 11
73.7704
 21
38.432
 31
0.0
  0
LINE
  8
0
 62
     172
 10
73.7704
 20
38.432
 30
0.0
 11
76.5969
 21
26.3743
 31
0.0
  0
LINE
  8
0
 62
     172
 10
76.5969
 20
26.3743
 30
0.0
 11
79.2854
 21
13.666
 31
0.0
  0
LINE
  8
0
 62
     172
 10
79.2854
 20
13.666
 30
0.0
 11
81.8197
 21
0.28801
 31
0.0
  0
LINE
  8
0
 62
     172
 10
81.8197
 20
0.28801
 30
0.0
 11
57.1419
 21
0.686262
 31
0.0
  0
LINE
  8
0
 62
     172
 10
57.1419
 20
0.686262
 30
0.0
 11
57.1722
 21
1.09692
 31
0.0
  0
LINE
  8
0
 62
     172
 10
57.1722
 20
1.09692
 30
0.0
 11
57.2424
 21
2.14698
 31
0.0
  0
LINE
  8
0
 62
     172
 10
57.2424
 20
2.14698
 30
0.0
 11
57.3373
 21
3.8034
 31
0.0
  0
LINE
  8
0
 62
     172
 10
57.3373
 20
3.8034
 30
0.0
 11
57.4393
 21
6.03582
 31
0.0
  0
LINE
  8
0
 62
     172
 10
57.4393
 20
6.03582
 30
0.0
 11
57.5345
 21
8.80981
 31
0.0
  0
LINE
  8
0
 62
     172
 10
57.5345
 20
8.80981
 30
0.0
 11
57.6061
 21
12.0937
 31
0.0
  0
LINE
  8
0
 62
     172
 10
57.6061
 20
12.0937
 30
0.0
 11
57.6407
 21
15.8543
 31
0.0
  0
LINE
  8
0
 62
     172
 10
57.6407
 20
15.8543
 30
0.0
 11
57.6213
 21
20.0601
 31
0.0
  0
LINE
  8
0
 62
     172
 10
57.6213
 20
20.0601
 30
0.0
 11
57.5331
 21
24.6779
 31
0.0
  0
LINE
  8
0
 62
     172
 10
57.5331
 20
24.6779
 30
0.0
 11
57.361
 21
29.6774
 31
0.0
  0
LINE
  8
0
 62
     172
 10
57.361
 20
29.6774
 30
0.0
 11
57.0893
 21
35.0228
 31
0.0
  0
LINE
  8
0
 62
     172
 10
57.0893
 20
35.0228
 30
0.0
 11
56.702
 21
40.6837
 31
0.0
  0
LINE
  8
0
 62
     172
 10
56.702
 20
40.6837
 30
0.0
 11
56.1841
 21
46.6273
 31
0.0
  0
LINE
  8
0
 62
     172
 10
56.1841
 20
46.6273
 30
0.0
 11
55.5198
 21
52.8214
 31
0.0
  0
LINE
  8
0
 62
     172
 10
55.5198
 20
52.8214
 30
0.0
 11
54.6957
 21
59.2321
 31
0.0
  0
LINE
  8
0
 62
     172
 10
54.6957
 20
59.2321
 30
0.0
 11
53.6938
 21
65.829
 31
0.0
  0
LINE
  8
0
 62
     172
 10
53.6938
 20
65.829
 30
0.0
 11
52.4895
 21
72.6239
 31
0.0
  0
LINE
  8
0
 62
     172
 10
52.4895
 20
72.6239
 30
0.0
 11
51.0755
 21
79.5362
 31
0.0
  0
LINE
  8
0
 62
     172
 10
51.0755
 20
79.5362
 30
0.0
 11
49.4344
 21
86.5339
 31
0.0
  0
LINE
  8
0
 62
     172
 10
49.4344
 20
86.5339
 30
0.0
 11
47.552
 21
93.5824
 31
0.0
  0
LINE
  8
0
 62
     172
 10
47.552
 20
93.5824
 30
0.0
 11
45.4106
 21
100.649
 31
0.0
  0
LINE
  8
0
 62
     172
 10
45.4106
 20
100.649
 30
0.0
 11
42.9948
 21
107.699
 31
0.0
  0
LINE
  8
0
 62
     172
 10
42.9948
 20
107.699
 30
0.0
 11
40.2883
 21
114.7
 31
0.0
  0
LINE
  8
0
 62
     172
 10
40.2883
 20
114.7
 30
0.0
 11
37.2773
 21
121.617
 31
0.0
  0
LINE
  8
0
 62
     172
 10
37.2773
 20
121.617
 30
0.0
 11
33.9452
 21
128.419
 31
0.0
  0
LINE
  8
0
 62
     172
 10
33.9452
 20
128.419
 30
0.0
 11
30.2755
 21
135.07
 31
0.0
  0
LINE
  8
0
 62
     172
 10
30.2755
 20
135.07
 30
0.0
 11
26.253
 21
141.537
 31
0.0
  0
LINE
  8
0
 62
     172
 10
26.253
 20
141.537
 30
0.0
 11
21.8612
 21
147.788
 31
0.0
  0
LINE
  8
0
 62
     172
 10
21.8612
 20
147.788
 30
0.0
 11
17.0849
 21
153.788
 31
0.0
  0
LINE
  8
0
 62
     172
 10
17.0849
 20
153.788
 30
0.0
 11
11.9076
 21
159.502
 31
0.0
  0
LINE
  8
0
 62
     172
 10
11.9076
 20
159.502
 30
0.0
 11
6.31553
 21
164.9
 31
0.0
  0
LINE
  8
0
 62
     172
 10
6.31553
 20
164.9
 30
0.0
 11
0.290766
 21
169.945
 31
0.0
  0
LINE
  8
0
 62
     172
 10
0.290766
 20
169.945
 30
0.0
 11
0.675238
 21
176.083
 31
0.0
  0
LINE
  8
0
 62
     172
 10
61.5266
 20
0.837847
 30
0.0
 11
57.6721
 21
0.967384
 31
0.0
  0
LINE
  8
0
 62
     172
 10
57.6721
 20
0.967384
 30
0.0
 11
57.6696
 21
15.7716
 31
0.0
  0
LINE
  8
0
 62
     172
 10
57.6696
 20
15.7716
 30
0.0
 11
57.6502
 21
21.0688
 31
0.0
  0
LINE
  8
0
 62
     172
 10
57.6502
 20
21.0688
 30
0.0
 11
57.5882
 21
25.7707
 31
0.0
  0
LINE
  8
0
 62
     172
 10
57.5882
 20
25.7707
 30
0.0
 11
57.4781
 21
30.0426
 31
0.0
  0
LINE
  8
0
 62
     172
 10
57.4781
 20
30.0426
 30
0.0
 11
57.3084
 21
34.0499
 31
0.0
  0
LINE
  8
0
 62
     172
 10
57.3084
 20
34.0499
 30
0.0
 11
57.0713
 21
37.9582
 31
0.0
  0
LINE
  8
0
 62
     172
 10
57.0713
 20
37.9582
 30
0.0
 11
56.7588
 21
41.9294
 31
0.0
  0
LINE
  8
0
 62
     172
 10
56.7588
 20
41.9294
 30
0.0
 11
56.3619
 21
46.1338
 31
0.0
  0
LINE
  8
0
 62
     172
 10
56.3619
 20
46.1338
 30
0.0
 11
55.874
 21
50.7326
 31
0.0
  0
LINE
  8
0
 62
     172
 10
55.874
 20
50.7326
 30
0.0
 11
53.7616
 21
66.0961
 31
0.0
  0
LINE
  8
0
 62
     172
 10
53.7616
 20
66.0961
 30
0.0
 11
50.9228
 21
80.7339
 31
0.0
  0
LINE
  8
0
 62
     172
 10
50.9228
 20
80.7339
 30
0.0
 11
47.3699
 21
94.6108
 31
0.0
  0
LINE
  8
0
 62
     172
 10
47.3699
 20
94.6108
 30
0.0
 11
43.1147
 21
107.69
 31
0.0
  0
LINE
  8
0
 62
     172
 10
43.1147
 20
107.69
 30
0.0
 11
38.1716
 21
119.937
 31
0.0
  0
LINE
  8
0
 62
     172
 10
38.1716
 20
119.937
 30
0.0
 11
32.5534
 21
131.316
 31
0.0
  0
LINE
  8
0
 62
     172
 10
32.5534
 20
131.316
 30
0.0
 11
26.2723
 21
141.791
 31
0.0
  0
LINE
  8
0
 62
     172
 10
26.2723
 20
141.791
 30
0.0
 11
19.3421
 21
151.325
 31
0.0
  0
LINE
  8
0
 62
     172
 10
19.3421
 20
151.325
 30
0.0
 11
17.8387
 21
153.129
 31
0.0
  0
LINE
  8
0
 62
     172
 10
17.8387
 20
153.129
 30
0.0
 11
16.0486
 21
155.155
 31
0.0
  0
LINE
  8
0
 62
     172
 10
16.0486
 20
155.155
 30
0.0
 11
14.0574
 21
157.316
 31
0.0
  0
LINE
  8
0
 62
     172
 10
14.0574
 20
157.316
 30
0.0
 11
11.949
 21
159.526
 31
0.0
  0
LINE
  8
0
 62
     172
 10
11.949
 20
159.526
 30
0.0
 11
9.80613
 21
161.697
 31
0.0
  0
LINE
  8
0
 62
     172
 10
9.80613
 20
161.697
 30
0.0
 11
7.71426
 21
163.744
 31
0.0
  0
LINE
  8
0
 62
     172
 10
7.71426
 20
163.744
 30
0.0
 11
5.75881
 21
165.578
 31
0.0
  0
LINE
  8
0
 62
     172
 10
5.75881
 20
165.578
 30
0.0
 11
4.02389
 21
167.113
 31
0.0
  0
LINE
  8
0
 62
     172
 10
4.02389
 20
167.113
 30
0.0
 11
0.672483
 21
169.958
 31
0.0
  0
LINE
  8
0
 62
     172
 10
0.672483
 20
169.958
 30
0.0
 11
0.672483
 21
175.982
 31
0.0
  0
LINE
  8
0
 62
     172
 10
0.672483
 20
175.982
 30
0.0
 11
2.92006
 21
174.388
 31
0.0
  0
LINE
  8
0
 62
     172
 10
2.92006
 20
174.388
 30
0.0
 11
6.0675
 21
171.97
 31
0.0
  0
LINE
  8
0
 62
     172
 10
6.0675
 20
171.97
 30
0.0
 11
9.4561
 21
169.032
 31
0.0
  0
LINE
  8
0
 62
     172
 10
9.4561
 20
169.032
 30
0.0
 11
12.9177
 21
165.727
 31
0.0
  0
LINE
  8
0
 62
     172
 10
12.9177
 20
165.727
 30
0.0
 11
16.2829
 21
162.21
 31
0.0
  0
LINE
  8
0
 62
     172
 10
16.2829
 20
162.21
 30
0.0
 11
21.4271
 21
156.239
 31
0.0
  0
LINE
  8
0
 62
     172
 10
21.4271
 20
156.239
 30
0.0
 11
26.439
 21
149.745
 31
0.0
  0
LINE
  8
0
 62
     172
 10
26.439
 20
149.745
 30
0.0
 11
31.3132
 21
142.738
 31
0.0
  0
LINE
  8
0
 62
     172
 10
31.3132
 20
142.738
 30
0.0
 11
36.044
 21
135.235
 31
0.0
  0
LINE
  8
0
 62
     172
 10
36.044
 20
135.235
 30
0.0
 11
40.6245
 21
127.248
 31
0.0
  0
LINE
  8
0
 62
     172
 10
40.6245
 20
127.248
 30
0.0
 11
45.0494
 21
118.792
 31
0.0
  0
LINE
  8
0
 62
     172
 10
45.0494
 20
118.792
 30
0.0
 11
49.313
 21
109.879
 31
0.0
  0
LINE
  8
0
 62
     172
 10
49.313
 20
109.879
 30
0.0
 11
53.4113
 21
100.525
 31
0.0
  0
LINE
  8
0
 62
     172
 10
53.4113
 20
100.525
 30
0.0
 11
57.3345
 21
90.744
 31
0.0
  0
LINE
  8
0
 62
     172
 10
57.3345
 20
90.744
 30
0.0
 11
61.0817
 21
80.5462
 31
0.0
  0
LINE
  8
0
 62
     172
 10
61.0817
 20
80.5462
 30
0.0
 11
64.6437
 21
69.9477
 31
0.0
  0
LINE
  8
0
 62
     172
 10
64.6437
 20
69.9477
 30
0.0
 11
68.0145
 21
58.9622
 31
0.0
  0
LINE
  8
0
 62
     172
 10
68.0145
 20
58.9622
 30
0.0
 11
71.1909
 21
47.6042
 31
0.0
  0
LINE
  8
0
 62
     172
 10
71.1909
 20
47.6042
 30
0.0
 11
74.1659
 21
35.8856
 31
0.0
  0
LINE
  8
0
 62
     172
 10
74.1659
 20
35.8856
 30
0.0
 11
76.9345
 21
23.8208
 31
0.0
  0
LINE
  8
0
 62
     172
 10
76.9345
 20
23.8208
 30
0.0
 11
79.4893
 21
11.4226
 31
0.0
  0
LINE
  8
0
 62
     172
 10
79.4893
 20
11.4226
 30
0.0
 11
80.2171
 21
7.68946
 31
0.0
  0
LINE
  8
0
 62
     172
 10
80.2171
 20
7.68946
 30
0.0
 11
80.8359
 21
4.52547
 31
0.0
  0
LINE
  8
0
 62
     172
 10
80.8359
 20
4.52547
 30
0.0
 11
81.2793
 21
2.2655
 31
0.0
  0
LINE
  8
0
 62
     172
 10
81.2793
 20
2.2655
 30
0.0
 11
81.4846
 21
1.24299
 31
0.0
  0
LINE
  8
0
 62
     172
 10
81.4846
 20
1.24299
 30
0.0
 11
81.4917
 21
1.02526
 31
0.0
  0
LINE
  8
0
 62
     172
 10
81.4917
 20
1.02526
 30
0.0
 11
81.3594
 21
0.858516
 31
0.0
  0
LINE
  8
0
 62
     172
 10
81.3594
 20
0.858516
 30
0.0
 11
81.0137
 21
0.738628
 31
0.0
  0
LINE
  8
0
 62
     172
 10
81.0137
 20
0.738628
 30
0.0
 11
80.3811
 21
0.657324
 31
0.0
  0
LINE
  8
0
 62
     172
 10
80.3811
 20
0.657324
 30
0.0
 11
79.3873
 21
0.611851
 31
0.0
  0
LINE
  8
0
 62
     172
 10
79.3873
 20
0.611851
 30
0.0
 11
77.9597
 21
0.593933
 31
0.0
  0
LINE
  8
0
 62
     172
 10
77.9597
 20
0.593933
 30
0.0
 11
76.025
 21
0.599447
 31
0.0
  0
LINE
  8
0
 62
     172
 10
76.025
 20
0.599447
 30
0.0
 11
73.5087
 21
0.621496
 31
0.0
  0
LINE
  8
0
 62
     172
 10
73.5087
 20
0.621496
 30
0.0
 11
70.0486
 21
0.665593
 31
0.0
  0
LINE
  8
0
 62
     172
 10
70.0486
 20
0.665593
 30
0.0
 11
66.6365
 21
0.720714
 31
0.0
  0
LINE
  8
0
 62
     172
 10
66.6365
 20
0.720714
 30
0.0
 11
63.664
 21
0.77997
 31
0.0
  0
LINE
  8
0
 62
     172
 10
63.664
 20
0.77997
 30
0.0
 11
61.5266
 21
0.837847
 31
0.0
  0
LINE
  8
0
 62
     0
 10
61.5266
 20
0.837847
 30
0.0
 11
57.6721
 21
0.967384
 31
0.0
  0
LINE
  8
0
 62
     0
 10
57.6721
 20
0.967384
 30
0.0
 11
57.6696
 21
15.7716
 31
0.0
  0
LINE
  8
0
 62
     0
 10
57.6696
 20
15.7716
 30
0.0
 11
57.6502
 21
21.0688
 31
0.0
  0
LINE
  8
0
 62
     0
 10
57.6502
 20
21.0688
 30
0.0
 11
57.5882
 21
25.7707
 31
0.0
  0
LINE
  8
0
 62
     0
 10
57.5882
 20
25.7707
 30
0.0
 11
57.4781
 21
30.0426
 31
0.0
  0
LINE
  8
0
 62
     0
 10
57.4781
 20
30.0426
 30
0.0
 11
57.3084
 21
34.0499
 31
0.0
  0
LINE
  8
0
 62
     0
 10
57.3084
 20
34.0499
 30
0.0
 11
57.0713
 21
37.9582
 31
0.0
  0
LINE
  8
0
 62
     0
 10
57.0713
 20
37.9582
 30
0.0
 11
56.7588
 21
41.9294
 31
0.0
  0
LINE
  8
0
 62
     0
 10
56.7588
 20
41.9294
 30
0.0
 11
56.3619
 21
46.1338
 31
0.0
  0
LINE
  8
0
 62
     0
 10
56.3619
 20
46.1338
 30
0.0
 11
55.874
 21
50.7326
 31
0.0
  0
LINE
  8
0
 62
     0
 10
55.874
 20
50.7326
 30
0.0
 11
53.7616
 21
66.0961
 31
0.0
  0
LINE
  8
0
 62
     0
 10
53.7616
 20
66.0961
 30
0.0
 11
50.9228
 21
80.7339
 31
0.0
  0
LINE
  8
0
 62
     0
 10
50.9228
 20
80.7339
 30
0.0
 11
47.3699
 21
94.6108
 31
0.0
  0
LINE
  8
0
 62
     0
 10
47.3699
 20
94.6108
 30
0.0
 11
43.1147
 21
107.69
 31
0.0
  0
LINE
  8
0
 62
     0
 10
43.1147
 20
107.69
 30
0.0
 11
38.1716
 21
119.937
 31
0.0
  0
LINE
  8
0
 62
     0
 10
38.1716
 20
119.937
 30
0.0
 11
32.5534
 21
131.316
 31
0.0
  0
LINE
  8
0
 62
     0
 10
32.5534
 20
131.316
 30
0.0
 11
26.2723
 21
141.791
 31
0.0
  0
LINE
  8
0
 62
     0
 10
26.2723
 20
141.791
 30
0.0
 11
19.3421
 21
151.325
 31
0.0
  0
LINE
  8
0
 62
     0
 10
19.3421
 20
151.325
 30
0.0
 11
17.8387
 21
153.129
 31
0.0
  0
LINE
  8
0
 62
     0
 10
17.8387
 20
153.129
 30
0.0
 11
16.0486
 21
155.155
 31
0.0
  0
LINE
  8
0
 62
     0
 10
16.0486
 20
155.155
 30
0.0
 11
14.0574
 21
157.316
 31
0.0
  0
LINE
  8
0
 62
     0
 10
14.0574
 20
157.316
 30
0.0
 11
11.949
 21
159.526
 31
0.0
  0
LINE
  8
0
 62
     0
 10
11.949
 20
159.526
 30
0.0
 11
9.80613
 21
161.697
 31
0.0
  0
LINE
  8
0
 62
     0
 10
9.80613
 20
161.697
 30
0.0
 11
7.71426
 21
163.744
 31
0.0
  0
LINE
  8
0
 62
     0
 10
7.71426
 20
163.744
 30
0.0
 11
5.75881
 21
165.578
 31
0.0
  0
LINE
  8
0
 62
     0
 10
5.75881
 20
165.578
 30
0.0
 11
4.02389
 21
167.113
 31
0.0
  0
LINE
  8
0
 62
     0
 10
4.02389
 20
167.113
 30
0.0
 11
0.672483
 21
169.958
 31
0.0
  0
LINE
  8
0
 62
     0
 10
0.672483
 20
169.958
 30
0.0
 11
0.672483
 21
175.982
 31
0.0
  0
LINE
  8
0
 62
     0
 10
0.672483
 20
175.982
 30
0.0
 11
2.92006
 21
174.388
 31
0.0
  0
LINE
  8
0
 62
     0
 10
2.92006
 20
174.388
 30
0.0
 11
6.0675
 21
171.97
 31
0.0
  0
LINE
  8
0
 62
     0
 10
6.0675
 20
171.97
 30
0.0
 11
9.4561
 21
169.032
 31
0.0
  0
LINE
  8
0
 62
     0
 10
9.4561
 20
169.032
 30
0.0
 11
12.9177
 21
165.727
 31
0.0
  0
LINE
  8
0
 62
     0
 10
12.9177
 20
165.727
 30
0.0
 11
16.2829
 21
162.21
 31
0.0
  0
LINE
  8
0
 62
     0
 10
16.2829
 20
162.21
 30
0.0
 11
21.4271
 21
156.239
 31
0.0
  0
LINE
  8
0
 62
     0
 10
21.4271
 20
156.239
 30
0.0
 11
26.439
 21
149.745
 31
0.0
  0
LINE
  8
0
 62
     0
 10
26.439
 20
149.745
 30
0.0
 11
31.3132
 21
142.738
 31
0.0
  0
LINE
  8
0
 62
     0
 10
31.3132
 20
142.738
 30
0.0
 11
36.044
 21
135.235
 31
0.0
  0
LINE
  8
0
 62
     0
 10
36.044
 20
135.235
 30
0.0
 11
40.6245
 21
127.248
 31
0.0
  0
LINE
  8
0
 62
     0
 10
40.6245
 20
127.248
 30
0.0
 11
45.0494
 21
118.792
 31
0.0
  0
LINE
  8
0
 62
     0
 10
45.0494
 20
118.792
 30
0.0
 11
49.313
 21
109.879
 31
0.0
  0
LINE
  8
0
 62
     0
 10
49.313
 20
109.879
 30
0.0
 11
53.4113
 21
100.525
 31
0.0
  0
LINE
  8
0
 62
     0
 10
53.4113
 20
100.525
 30
0.0
 11
57.3345
 21
90.744
 31
0.0
  0
LINE
  8
0
 62
     0
 10
57.3345
 20
90.744
 30
0.0
 11
61.0817
 21
80.5462
 31
0.0
  0
LINE
  8
0
 62
     0
 10
61.0817
 20
80.5462
 30
0.0
 11
64.6437
 21
69.9477
 31
0.0
  0
LINE
  8
0
 62
     0
 10
64.6437
 20
69.9477
 30
0.0
 11
68.0145
 21
58.9622
 31
0.0
  0
LINE
  8
0
 62
     0
 10
68.0145
 20
58.9622
 30
0.0
 11
71.1909
 21
47.6042
 31
0.0
  0
LINE
  8
0
 62
     0
 10
71.1909
 20
47.6042
 30
0.0
 11
74.1659
 21
35.8856
 31
0.0
  0
LINE
  8
0
 62
     0
 10
74.1659
 20
35.8856
 30
0.0
 11
76.9345
 21
23.8208
 31
0.0
  0
LINE
  8
0
 62
     0
 10
76.9345
 20
23.8208
 30
0.0
 11
79.4893
 21
11.4226
 31
0.0
  0
LINE
  8
0
 62
     0
 10
79.4893
 20
11.4226
 30
0.0
 11
80.2171
 21
7.68946
 31
0.0
  0
LINE
  8
0
 62
     0
 10
80.2171
 20
7.68946
 30
0.0
 11
80.8359
 21
4.52547
 31
0.0
  0
LINE
  8
0
 62
     0
 10
80.8359
 20
4.52547
 30
0.0
 11
81.2793
 21
2.2655
 31
0.0
  0
LINE
  8
0
 62
     0
 10
81.2793
 20
2.2655
 30
0.0
 11
81.4846
 21
1.24299
 31
0.0
  0
LINE
  8
0
 62
     0
 10
81.4846
 20
1.24299
 30
0.0
 11
81.4917
 21
1.02526
 31
0.0
  0
LINE
  8
0
 62
     0
 10
81.4917
 20
1.02526
 30
0.0
 11
81.3594
 21
0.858516
 31
0.0
  0
LINE
  8
0
 62
     0
 10
81.3594
 20
0.858516
 30
0.0
 11
81.0137
 21
0.738628
 31
0.0
  0
LINE
  8
0
 62
     0
 10
81.0137
 20
0.738628
 30
0.0
 11
80.3811
 21
0.657324
 31
0.0
  0
LINE
  8
0
 62
     0
 10
80.3811
 20
0.657324
 30
0.0
 11
79.3873
 21
0.611851
 31
0.0
  0
LINE
  8
0
 62
     0
 10
79.3873
 20
0.611851
 30
0.0
 11
77.9597
 21
0.593933
 31
0.0
  0
LINE
  8
0
 62
     0
 10
77.9597
 20
0.593933
 30
0.0
 11
76.025
 21
0.599447
 31
0.0
  0
LINE
  8
0
 62
     0
 10
76.025
 20
0.599447
 30
0.0
 11
73.5087
 21
0.621496
 31
0.0
  0
LINE
  8
0
 62
     0
 10
73.5087
 20
0.621496
 30
0.0
 11
70.0486
 21
0.665593
 31
0.0
  0
LINE
  8
0
 62
     0
 10
70.0486
 20
0.665593
 30
0.0
 11
66.6365
 21
0.720714
 31
0.0
  0
LINE
  8
0
 62
     0
 10
66.6365
 20
0.720714
 30
0.0
 11
63.664
 21
0.77997
 31
0.0
  0
LINE
  8
0
 62
     0
 10
63.664
 20
0.77997
 30
0.0
 11
61.5266
 21
0.837847
 31
0.0
  0
LINE
  8
0
 62
     172
 10
61.4962
 20
1.24024
 30
0.0
 11
58.014
 21
1.3739
 31
0.0
  0
LINE
  8
0
 62
     172
 10
58.014
 20
1.3739
 30
0.0
 11
57.8072
 21
19.6026
 31
0.0
  0
LINE
  8
0
 62
     172
 10
57.8072
 20
19.6026
 30
0.0
 11
57.7247
 21
25.779
 31
0.0
  0
LINE
  8
0
 62
     172
 10
57.7247
 20
25.779
 30
0.0
 11
57.6199
 21
30.9549
 31
0.0
  0
LINE
  8
0
 62
     172
 10
57.6199
 20
30.9549
 30
0.0
 11
57.4781
 21
35.3826
 31
0.0
  0
LINE
  8
0
 62
     172
 10
57.4781
 20
35.3826
 30
0.0
 11
57.2851
 21
39.3153
 31
0.0
  0
LINE
  8
0
 62
     172
 10
57.2851
 20
39.3153
 30
0.0
 11
57.0234
 21
43.0071
 31
0.0
  0
LINE
  8
0
 62
     172
 10
57.0234
 20
43.0071
 30
0.0
 11
56.6801
 21
46.7113
 31
0.0
  0
LINE
  8
0
 62
     172
 10
56.6801
 20
46.7113
 30
0.0
 11
56.2391
 21
50.6815
 31
0.0
  0
LINE
  8
0
 62
     172
 10
56.2391
 20
50.6815
 30
0.0
 11
55.6853
 21
55.167
 31
0.0
  0
LINE
  8
0
 62
     172
 10
55.6853
 20
55.167
 30
0.0
 11
53.479
 21
69.6225
 31
0.0
  0
LINE
  8
0
 62
     172
 10
53.479
 20
69.6225
 30
0.0
 11
50.6317
 21
83.3797
 31
0.0
  0
LINE
  8
0
 62
     172
 10
50.6317
 20
83.3797
 30
0.0
 11
47.1523
 21
96.4255
 31
0.0
  0
LINE
  8
0
 62
     172
 10
47.1523
 20
96.4255
 30
0.0
 11
43.0431
 21
108.745
 31
0.0
  0
LINE
  8
0
 62
     172
 10
43.0431
 20
108.745
 30
0.0
 11
38.3096
 21
120.325
 31
0.0
  0
LINE
  8
0
 62
     172
 10
38.3096
 20
120.325
 30
0.0
 11
32.9572
 21
131.151
 31
0.0
  0
LINE
  8
0
 62
     172
 10
32.9572
 20
131.151
 30
0.0
 11
26.9916
 21
141.207
 31
0.0
  0
LINE
  8
0
 62
     172
 10
26.9916
 20
141.207
 30
0.0
 11
20.4184
 21
150.482
 31
0.0
  0
LINE
  8
0
 62
     172
 10
20.4184
 20
150.482
 30
0.0
 11
18.9894
 21
152.21
 31
0.0
  0
LINE
  8
0
 62
     172
 10
18.9894
 20
152.21
 30
0.0
 11
17.0326
 21
154.413
 31
0.0
  0
LINE
  8
0
 62
     172
 10
17.0326
 20
154.413
 30
0.0
 11
14.7064
 21
156.928
 31
0.0
  0
LINE
  8
0
 62
     172
 10
14.7064
 20
156.928
 30
0.0
 11
12.1722
 21
159.588
 31
0.0
  0
LINE
  8
0
 62
     172
 10
12.1722
 20
159.588
 30
0.0
 11
9.59115
 21
162.226
 31
0.0
  0
LINE
  8
0
 62
     172
 10
9.59115
 20
162.226
 30
0.0
 11
7.12308
 21
164.674
 31
0.0
  0
LINE
  8
0
 62
     172
 10
7.12308
 20
164.674
 30
0.0
 11
4.92926
 21
166.769
 31
0.0
  0
LINE
  8
0
 62
     172
 10
4.92926
 20
166.769
 30
0.0
 11
3.17087
 21
168.341
 31
0.0
  0
LINE
  8
0
 62
     172
 10
3.17087
 20
168.341
 30
0.0
 11
1.03353
 21
170.146
 31
0.0
  0
LINE
  8
0
 62
     172
 10
1.03353
 20
170.146
 30
0.0
 11
1.15617
 21
172.663
 31
0.0
  0
LINE
  8
0
 62
     172
 10
1.15617
 20
172.663
 30
0.0
 11
1.27744
 21
175.179
 31
0.0
  0
LINE
  8
0
 62
     172
 10
1.27744
 20
175.179
 30
0.0
 11
4.09967
 21
173.065
 31
0.0
  0
LINE
  8
0
 62
     172
 10
4.09967
 20
173.065
 30
0.0
 11
5.85805
 21
171.625
 31
0.0
  0
LINE
  8
0
 62
     172
 10
5.85805
 20
171.625
 30
0.0
 11
8.06566
 21
169.63
 31
0.0
  0
LINE
  8
0
 62
     172
 10
8.06566
 20
169.63
 30
0.0
 11
10.5723
 21
167.23
 31
0.0
  0
LINE
  8
0
 62
     172
 10
10.5723
 20
167.23
 30
0.0
 11
13.2319
 21
164.576
 31
0.0
  0
LINE
  8
0
 62
     172
 10
13.2319
 20
164.576
 30
0.0
 11
15.8957
 21
161.817
 31
0.0
  0
LINE
  8
0
 62
     172
 10
15.8957
 20
161.817
 30
0.0
 11
18.4175
 21
159.104
 31
0.0
  0
LINE
  8
0
 62
     172
 10
18.4175
 20
159.104
 30
0.0
 11
20.6499
 21
156.585
 31
0.0
  0
LINE
  8
0
 62
     172
 10
20.6499
 20
156.585
 30
0.0
 11
22.4469
 21
154.409
 31
0.0
  0
LINE
  8
0
 62
     172
 10
22.4469
 20
154.409
 30
0.0
 11
28.4027
 21
146.367
 31
0.0
  0
LINE
  8
0
 62
     172
 10
28.4027
 20
146.367
 30
0.0
 11
33.9631
 21
137.924
 31
0.0
  0
LINE
  8
0
 62
     172
 10
33.9631
 20
137.924
 30
0.0
 11
39.31
 21
128.787
 31
0.0
  0
LINE
  8
0
 62
     172
 10
39.31
 20
128.787
 30
0.0
 11
44.6207
 21
118.667
 31
0.0
  0
LINE
  8
0
 62
     172
 10
44.6207
 20
118.667
 30
0.0
 11
48.7825
 21
110.016
 31
0.0
  0
LINE
  8
0
 62
     172
 10
48.7825
 20
110.016
 30
0.0
 11
52.7113
 21
101.167
 31
0.0
  0
LINE
  8
0
 62
     172
 10
52.7113
 20
101.167
 30
0.0
 11
56.4265
 21
92.0679
 31
0.0
  0
LINE
  8
0
 62
     172
 10
56.4265
 20
92.0679
 30
0.0
 11
59.9489
 21
82.6629
 31
0.0
  0
LINE
  8
0
 62
     172
 10
59.9489
 20
82.6629
 30
0.0
 11
63.2961
 21
72.8998
 31
0.0
  0
LINE
  8
0
 62
     172
 10
63.2961
 20
72.8998
 30
0.0
 11
66.4863
 21
62.7214
 31
0.0
  0
LINE
  8
0
 62
     172
 10
66.4863
 20
62.7214
 30
0.0
 11
69.5427
 21
52.0774
 31
0.0
  0
LINE
  8
0
 62
     172
 10
69.5427
 20
52.0774
 30
0.0
 11
72.4821
 21
40.9099
 31
0.0
  0
LINE
  8
0
 62
     172
 10
72.4821
 20
40.9099
 30
0.0
 11
73.6632
 21
36.0564
 31
0.0
  0
LINE
  8
0
 62
     172
 10
73.6632
 20
36.0564
 30
0.0
 11
75.0023
 21
30.2865
 31
0.0
  0
LINE
  8
0
 62
     172
 10
75.0023
 20
30.2865
 30
0.0
 11
76.4011
 21
24.0523
 31
0.0
  0
LINE
  8
0
 62
     172
 10
76.4011
 20
24.0523
 30
0.0
 11
77.7642
 21
17.8043
 31
0.0
  0
LINE
  8
0
 62
     172
 10
77.7642
 20
17.8043
 30
0.0
 11
78.9919
 21
11.9944
 31
0.0
  0
LINE
  8
0
 62
     172
 10
78.9919
 20
11.9944
 30
0.0
 11
79.9895
 21
7.07485
 31
0.0
  0
LINE
  8
0
 62
     172
 10
79.9895
 20
7.07485
 30
0.0
 11
80.6595
 21
3.49608
 31
0.0
  0
LINE
  8
0
 62
     172
 10
80.6595
 20
3.49608
 30
0.0
 11
80.9046
 21
1.71015
 31
0.0
  0
LINE
  8
0
 62
     172
 10
80.9046
 20
1.71015
 30
0.0
 11
80.8729
 21
1.46761
 31
0.0
  0
LINE
  8
0
 62
     172
 10
80.8729
 20
1.46761
 30
0.0
 11
80.7283
 21
1.28295
 31
0.0
  0
LINE
  8
0
 62
     172
 10
80.7283
 20
1.28295
 30
0.0
 11
80.3864
 21
1.15066
 31
0.0
  0
LINE
  8
0
 62
     172
 10
80.3864
 20
1.15066
 30
0.0
 11
79.7705
 21
1.06247
 31
0.0
  0
LINE
  8
0
 62
     172
 10
79.7705
 20
1.06247
 30
0.0
 11
78.7975
 21
1.01286
 31
0.0
  0
LINE
  8
0
 62
     172
 10
78.7975
 20
1.01286
 30
0.0
 11
77.3878
 21
0.994943
 31
0.0
  0
LINE
  8
0
 62
     172
 10
77.3878
 20
0.994943
 30
0.0
 11
75.4627
 21
1.00046
 31
0.0
  0
LINE
  8
0
 62
     172
 10
75.4627
 20
1.00046
 30
0.0
 11
72.941
 21
1.02388
 31
0.0
  0
LINE
  8
0
 62
     172
 10
72.941
 20
1.02388
 30
0.0
 11
69.5745
 21
1.0666
 31
0.0
  0
LINE
  8
0
 62
     172
 10
69.5745
 20
1.0666
 30
0.0
 11
66.2947
 21
1.12172
 31
0.0
  0
LINE
  8
0
 62
     172
 10
66.2947
 20
1.12172
 30
0.0
 11
63.4767
 21
1.18236
 31
0.0
  0
LINE
  8
0
 62
     172
 10
63.4767
 20
1.18236
 30
0.0
 11
61.4962
 21
1.24024
 31
0.0
  0
LINE
  8
0
 62
     0
 10
61.4962
 20
1.24024
 30
0.0
 11
58.014
 21
1.3739
 31
0.0
  0
LINE
  8
0
 62
     0
 10
58.014
 20
1.3739
 30
0.0
 11
57.8072
 21
19.6026
 31
0.0
  0
LINE
  8
0
 62
     0
 10
57.8072
 20
19.6026
 30
0.0
 11
57.7247
 21
25.779
 31
0.0
  0
LINE
  8
0
 62
     0
 10
57.7247
 20
25.779
 30
0.0
 11
57.6199
 21
30.9549
 31
0.0
  0
LINE
  8
0
 62
     0
 10
57.6199
 20
30.9549
 30
0.0
 11
57.4781
 21
35.3826
 31
0.0
  0
LINE
  8
0
 62
     0
 10
57.4781
 20
35.3826
 30
0.0
 11
57.2851
 21
39.3153
 31
0.0
  0
LINE
  8
0
 62
     0
 10
57.2851
 20
39.3153
 30
0.0
 11
57.0234
 21
43.0071
 31
0.0
  0
LINE
  8
0
 62
     0
 10
57.0234
 20
43.0071
 30
0.0
 11
56.6801
 21
46.7113
 31
0.0
  0
LINE
  8
0
 62
     0
 10
56.6801
 20
46.7113
 30
0.0
 11
56.2391
 21
50.6815
 31
0.0
  0
LINE
  8
0
 62
     0
 10
56.2391
 20
50.6815
 30
0.0
 11
55.6853
 21
55.167
 31
0.0
  0
LINE
  8
0
 62
     0
 10
55.6853
 20
55.167
 30
0.0
 11
53.479
 21
69.6225
 31
0.0
  0
LINE
  8
0
 62
     0
 10
53.479
 20
69.6225
 30
0.0
 11
50.6317
 21
83.3797
 31
0.0
  0
LINE
  8
0
 62
     0
 10
50.6317
 20
83.3797
 30
0.0
 11
47.1523
 21
96.4255
 31
0.0
  0
LINE
  8
0
 62
     0
 10
47.1523
 20
96.4255
 30
0.0
 11
43.0431
 21
108.745
 31
0.0
  0
LINE
  8
0
 62
     0
 10
43.0431
 20
108.745
 30
0.0
 11
38.3096
 21
120.325
 31
0.0
  0
LINE
  8
0
 62
     0
 10
38.3096
 20
120.325
 30
0.0
 11
32.9572
 21
131.151
 31
0.0
  0
LINE
  8
0
 62
     0
 10
32.9572
 20
131.151
 30
0.0
 11
26.9916
 21
141.207
 31
0.0
  0
LINE
  8
0
 62
     0
 10
26.9916
 20
141.207
 30
0.0
 11
20.4184
 21
150.482
 31
0.0
  0
LINE
  8
0
 62
     0
 10
20.4184
 20
150.482
 30
0.0
 11
18.9894
 21
152.21
 31
0.0
  0
LINE
  8
0
 62
     0
 10
18.9894
 20
152.21
 30
0.0
 11
17.0326
 21
154.413
 31
0.0
  0
LINE
  8
0
 62
     0
 10
17.0326
 20
154.413
 30
0.0
 11
14.7064
 21
156.928
 31
0.0
  0
LINE
  8
0
 62
     0
 10
14.7064
 20
156.928
 30
0.0
 11
12.1722
 21
159.588
 31
0.0
  0
LINE
  8
0
 62
     0
 10
12.1722
 20
159.588
 30
0.0
 11
9.59115
 21
162.226
 31
0.0
  0
LINE
  8
0
 62
     0
 10
9.59115
 20
162.226
 30
0.0
 11
7.12308
 21
164.674
 31
0.0
  0
LINE
  8
0
 62
     0
 10
7.12308
 20
164.674
 30
0.0
 11
4.92926
 21
166.769
 31
0.0
  0
LINE
  8
0
 62
     0
 10
4.92926
 20
166.769
 30
0.0
 11
3.17087
 21
168.341
 31
0.0
  0
LINE
  8
0
 62
     0
 10
3.17087
 20
168.341
 30
0.0
 11
1.03353
 21
170.146
 31
0.0
  0
LINE
  8
0
 62
     0
 10
1.03353
 20
170.146
 30
0.0
 11
1.15617
 21
172.663
 31
0.0
  0
LINE
  8
0
 62
     0
 10
1.15617
 20
172.663
 30
0.0
 11
1.27744
 21
175.179
 31
0.0
  0
LINE
  8
0
 62
     0
 10
1.27744
 20
175.179
 30
0.0
 11
4.09967
 21
173.065
 31
0.0
  0
LINE
  8
0
 62
     0
 10
4.09967
 20
173.065
 30
0.0
 11
5.85805
 21
171.625
 31
0.0
  0
LINE
  8
0
 62
     0
 10
5.85805
 20
171.625
 30
0.0
 11
8.06566
 21
169.63
 31
0.0
  0
LINE
  8
0
 62
     0
 10
8.06566
 20
169.63
 30
0.0
 11
10.5723
 21
167.23
 31
0.0
  0
LINE
  8
0
 62
     0
 10
10.5723
 20
167.23
 30
0.0
 11
13.2319
 21
164.576
 31
0.0
  0
LINE
  8
0
 62
     0
 10
13.2319
 20
164.576
 30
0.0
 11
15.8957
 21
161.817
 31
0.0
  0
LINE
  8
0
 62
     0
 10
15.8957
 20
161.817
 30
0.0
 11
18.4175
 21
159.104
 31
0.0
  0
LINE
  8
0
 62
     0
 10
18.4175
 20
159.104
 30
0.0
 11
20.6499
 21
156.585
 31
0.0
  0
LINE
  8
0
 62
     0
 10
20.6499
 20
156.585
 30
0.0
 11
22.4469
 21
154.409
 31
0.0
  0
LINE
  8
0
 62
     0
 10
22.4469
 20
154.409
 30
0.0
 11
28.4027
 21
146.367
 31
0.0
  0
LINE
  8
0
 62
     0
 10
28.4027
 20
146.367
 30
0.0
 11
33.9631
 21
137.924
 31
0.0
  0
LINE
  8
0
 62
     0
 10
33.9631
 20
137.924
 30
0.0
 11
39.31
 21
128.787
 31
0.0
  0
LINE
  8
0
 62
     0
 10
39.31
 20
128.787
 30
0.0
 11
44.6207
 21
118.667
 31
0.0
  0
LINE
  8
0
 62
     0
 10
44.6207
 20
118.667
 30
0.0
 11
48.7825
 21
110.016
 31
0.0
  0
LINE
  8
0
 62
     0
 10
48.7825
 20
110.016
 30
0.0
 11
52.7113
 21
101.167
 31
0.0
  0
LINE
  8
0
 62
     0
 10
52.7113
 20
101.167
 30
0.0
 11
56.4265
 21
92.0679
 31
0.0
  0
LINE
  8
0
 62
     0
 10
56.4265
 20
92.0679
 30
0.0
 11
59.9489
 21
82.6629
 31
0.0
  0
LINE
  8
0
 62
     0
 10
59.9489
 20
82.6629
 30
0.0
 11
63.2961
 21
72.8998
 31
0.0
  0
LINE
  8
0
 62
     0
 10
63.2961
 20
72.8998
 30
0.0
 11
66.4863
 21
62.7214
 31
0.0
  0
LINE
  8
0
 62
     0
 10
66.4863
 20
62.7214
 30
0.0
 11
69.5427
 21
52.0774
 31
0.0
  0
LINE
  8
0
 62
     0
 10
69.5427
 20
52.0774
 30
0.0
 11
72.4821
 21
40.9099
 31
0.0
  0
LINE
  8
0
 62
     0
 10
72.4821
 20
40.9099
 30
0.0
 11
73.6632
 21
36.0564
 31
0.0
  0
LINE
  8
0
 62
     0
 10
73.6632
 20
36.0564
 30
0.0
 11
75.0023
 21
30.2865
 31
0.0
  0
LINE
  8
0
 62
     0
 10
75.0023
 20
30.2865
 30
0.0
 11
76.4011
 21
24.0523
 31
0.0
  0
LINE
  8
0
 62
     0
 10
76.4011
 20
24.0523
 30
0.0
 11
77.7642
 21
17.8043
 31
0.0
  0
LINE
  8
0
 62
     0
 10
77.7642
 20
17.8043
 30
0.0
 11
78.9919
 21
11.9944
 31
0.0
  0
LINE
  8
0
 62
     0
 10
78.9919
 20
11.9944
 30
0.0
 11
79.9895
 21
7.07485
 31
0.0
  0
LINE
  8
0
 62
     0
 10
79.9895
 20
7.07485
 30
0.0
 11
80.6595
 21
3.49608
 31
0.0
  0
LINE
  8
0
 62
     0
 10
80.6595
 20
3.49608
 30
0.0
 11
80.9046
 21
1.71015
 31
0.0
  0
LINE
  8
0
 62
     0
 10
80.9046
 20
1.71015
 30
0.0
 11
80.8729
 21
1.46761
 31
0.0
  0
LINE
  8
0
 62
     0
 10
80.8729
 20
1.46761
 30
0.0
 11
80.7283
 21
1.28295
 31
0.0
  0
LINE
  8
0
 62
     0
 10
80.7283
 20
1.28295
 30
0.0
 11
80.3864
 21
1.15066
 31
0.0
  0
LINE
  8
0
 62
     0
 10
80.3864
 20
1.15066
 30
0.0
 11
79.7705
 21
1.06247
 31
0.0
  0
LINE
  8
0
 62
     0
 10
79.7705
 20
1.06247
 30
0.0
 11
78.7975
 21
1.01286
 31
0.0
  0
LINE
  8
0
 62
     0
 10
78.7975
 20
1.01286
 30
0.0
 11
77.3878
 21
0.994943
 31
0.0
  0
LINE
  8
0
 62
     0
 10
77.3878
 20
0.994943
 30
0.0
 11
75.4627
 21
1.00046
 31
0.0
  0
LINE
  8
0
 62
     0
 10
75.4627
 20
1.00046
 30
0.0
 11
72.941
 21
1.02388
 31
0.0
  0
LINE
  8
0
 62
     0
 10
72.941
 20
1.02388
 30
0.0
 11
69.5745
 21
1.0666
 31
0.0
  0
LINE
  8
0
 62
     0
 10
69.5745
 20
1.0666
 30
0.0
 11
66.2947
 21
1.12172
 31
0.0
  0
LINE
  8
0
 62
     0
 10
66.2947
 20
1.12172
 30
0.0
 11
63.4767
 21
1.18236
 31
0.0
  0
LINE
  8
0
 62
     0
 10
63.4767
 20
1.18236
 30
0.0
 11
61.4962
 21
1.24024
 31
0.0
  0
LINE
  8
0
 62
     172
 10
61.5128
 20
1.64262
 30
0.0
 11
58.451
 21
1.77905
 31
0.0
  0
LINE
  8
0
 62
     172
 10
58.451
 20
1.77905
 30
0.0
 11
58.1656
 21
18.7965
 31
0.0
  0
LINE
  8
0
 62
     172
 10
58.1656
 20
18.7965
 30
0.0
 11
58.0471
 21
25.1299
 31
0.0
  0
LINE
  8
0
 62
     172
 10
58.0471
 20
25.1299
 30
0.0
 11
57.9191
 21
30.4602
 31
0.0
  0
LINE
  8
0
 62
     172
 10
57.9191
 20
30.4602
 30
0.0
 11
57.7688
 21
34.9939
 31
0.0
  0
LINE
  8
0
 62
     172
 10
57.7688
 20
34.9939
 30
0.0
 11
57.5853
 21
38.9378
 31
0.0
  0
LINE
  8
0
 62
     172
 10
57.5853
 20
38.9378
 30
0.0
 11
57.3567
 21
42.4988
 31
0.0
  0
LINE
  8
0
 62
     172
 10
57.3567
 20
42.4988
 30
0.0
 11
57.0713
 21
45.8833
 31
0.0
  0
LINE
  8
0
 62
     172
 10
57.0713
 20
45.8833
 30
0.0
 11
56.7186
 21
49.2993
 31
0.0
  0
LINE
  8
0
 62
     172
 10
56.7186
 20
49.2993
 30
0.0
 11
56.2889
 21
52.9498
 31
0.0
  0
LINE
  8
0
 62
     172
 10
56.2889
 20
52.9498
 30
0.0
 11
54.2064
 21
67.1572
 31
0.0
  0
LINE
  8
0
 62
     172
 10
54.2064
 20
67.1572
 30
0.0
 11
51.5606
 21
80.6277
 31
0.0
  0
LINE
  8
0
 62
     172
 10
51.5606
 20
80.6277
 30
0.0
 11
48.3457
 21
93.3771
 31
0.0
  0
LINE
  8
0
 62
     172
 10
48.3457
 20
93.3771
 30
0.0
 11
44.5576
 21
105.417
 31
0.0
  0
LINE
  8
0
 62
     172
 10
44.5576
 20
105.417
 30
0.0
 11
40.192
 21
116.76
 31
0.0
  0
LINE
  8
0
 62
     172
 10
40.192
 20
116.76
 30
0.0
 11
35.2447
 21
127.419
 31
0.0
  0
LINE
  8
0
 62
     172
 10
35.2447
 20
127.419
 30
0.0
 11
29.7105
 21
137.407
 31
0.0
  0
LINE
  8
0
 62
     172
 10
29.7105
 20
137.407
 30
0.0
 11
23.5865
 21
146.735
 31
0.0
  0
LINE
  8
0
 62
     172
 10
23.5865
 20
146.735
 30
0.0
 11
21.7248
 21
149.199
 31
0.0
  0
LINE
  8
0
 62
     172
 10
21.7248
 20
149.199
 30
0.0
 11
19.4414
 21
151.987
 31
0.0
  0
LINE
  8
0
 62
     172
 10
19.4414
 20
151.987
 30
0.0
 11
16.8465
 21
154.982
 31
0.0
  0
LINE
  8
0
 62
     172
 10
16.8465
 20
154.982
 30
0.0
 11
14.0463
 21
158.068
 31
0.0
  0
LINE
  8
0
 62
     172
 10
14.0463
 20
158.068
 30
0.0
 11
11.1511
 21
161.126
 31
0.0
  0
LINE
  8
0
 62
     172
 10
11.1511
 20
161.126
 30
0.0
 11
8.27098
 21
164.037
 31
0.0
  0
LINE
  8
0
 62
     172
 10
8.27098
 20
164.037
 30
0.0
 11
5.51353
 21
166.685
 31
0.0
  0
LINE
  8
0
 62
     172
 10
5.51353
 20
166.685
 30
0.0
 11
2.99034
 21
168.952
 31
0.0
  0
LINE
  8
0
 62
     172
 10
2.99034
 20
168.952
 30
0.0
 11
2.17317
 21
169.711
 31
0.0
  0
LINE
  8
0
 62
     172
 10
2.17317
 20
169.711
 30
0.0
 11
1.71841
 21
170.366
 31
0.0
  0
LINE
  8
0
 62
     172
 10
1.71841
 20
170.366
 30
0.0
 11
1.52135
 21
171.147
 31
0.0
  0
LINE
  8
0
 62
     172
 10
1.52135
 20
171.147
 30
0.0
 11
1.47864
 21
172.278
 31
0.0
  0
LINE
  8
0
 62
     172
 10
1.47864
 20
172.278
 30
0.0
 11
1.49793
 21
173.066
 31
0.0
  0
LINE
  8
0
 62
     172
 10
1.49793
 20
173.066
 30
0.0
 11
1.55029
 21
173.71
 31
0.0
  0
LINE
  8
0
 62
     172
 10
1.55029
 20
173.71
 30
0.0
 11
1.62746
 21
174.146
 31
0.0
  0
LINE
  8
0
 62
     172
 10
1.62746
 20
174.146
 30
0.0
 11
1.72393
 21
174.305
 31
0.0
  0
LINE
  8
0
 62
     172
 10
1.72393
 20
174.305
 30
0.0
 11
2.21037
 21
174.088
 31
0.0
  0
LINE
  8
0
 62
     172
 10
2.21037
 20
174.088
 30
0.0
 11
3.07854
 21
173.46
 31
0.0
  0
LINE
  8
0
 62
     172
 10
3.07854
 20
173.46
 30
0.0
 11
4.27881
 21
172.467
 31
0.0
  0
LINE
  8
0
 62
     172
 10
4.27881
 20
172.467
 30
0.0
 11
5.76573
 21
171.151
 31
0.0
  0
LINE
  8
0
 62
     172
 10
5.76573
 20
171.151
 30
0.0
 11
7.49102
 21
169.555
 31
0.0
  0
LINE
  8
0
 62
     172
 10
7.49102
 20
169.555
 30
0.0
 11
9.40925
 21
167.72
 31
0.0
  0
LINE
  8
0
 62
     172
 10
9.40925
 20
167.72
 30
0.0
 11
11.4708
 21
165.691
 31
0.0
  0
LINE
  8
0
 62
     172
 10
11.4708
 20
165.691
 30
0.0
 11
13.6302
 21
163.508
 31
0.0
  0
LINE
  8
0
 62
     172
 10
13.6302
 20
163.508
 30
0.0
 11
17.7436
 21
159.135
 31
0.0
  0
LINE
  8
0
 62
     172
 10
17.7436
 20
159.135
 30
0.0
 11
21.609
 21
154.671
 31
0.0
  0
LINE
  8
0
 62
     172
 10
21.609
 20
154.671
 30
0.0
 11
25.2843
 21
150.034
 31
0.0
  0
LINE
  8
0
 62
     172
 10
25.2843
 20
150.034
 30
0.0
 11
28.8272
 21
145.138
 31
0.0
  0
LINE
  8
0
 62
     172
 10
28.8272
 20
145.138
 30
0.0
 11
32.2957
 21
139.9
 31
0.0
  0
LINE
  8
0
 62
     172
 10
32.2957
 20
139.9
 30
0.0
 11
35.7477
 21
134.235
 31
0.0
  0
LINE
  8
0
 62
     172
 10
35.7477
 20
134.235
 30
0.0
 11
39.2437
 21
128.06
 31
0.0
  0
LINE
  8
0
 62
     172
 10
39.2437
 20
128.06
 30
0.0
 11
42.8406
 21
121.288
 31
0.0
  0
LINE
  8
0
 62
     172
 10
42.8406
 20
121.288
 30
0.0
 11
47.7365
 21
111.338
 31
0.0
  0
LINE
  8
0
 62
     172
 10
47.7365
 20
111.338
 30
0.0
 11
52.3752
 21
100.941
 31
0.0
  0
LINE
  8
0
 62
     172
 10
52.3752
 20
100.941
 30
0.0
 11
56.7612
 21
90.0825
 31
0.0
  0
LINE
  8
0
 62
     172
 10
56.7612
 20
90.0825
 30
0.0
 11
60.8997
 21
78.7453
 31
0.0
  0
LINE
  8
0
 62
     172
 10
60.8997
 20
78.7453
 30
0.0
 11
64.794
 21
66.9188
 31
0.0
  0
LINE
  8
0
 62
     172
 10
64.794
 20
66.9188
 30
0.0
 11
68.4498
 21
54.5881
 31
0.0
  0
LINE
  8
0
 62
     172
 10
68.4498
 20
54.5881
 30
0.0
 11
71.8728
 21
41.7393
 31
0.0
  0
LINE
  8
0
 62
     172
 10
71.8728
 20
41.7393
 30
0.0
 11
75.0686
 21
28.3559
 31
0.0
  0
LINE
  8
0
 62
     172
 10
75.0686
 20
28.3559
 30
0.0
 11
75.9562
 21
24.3651
 31
0.0
  0
LINE
  8
0
 62
     172
 10
75.9562
 20
24.3651
 30
0.0
 11
76.8794
 21
20.1194
 31
0.0
  0
LINE
  8
0
 62
     172
 10
76.8794
 20
20.1194
 30
0.0
 11
77.7889
 21
15.8461
 31
0.0
  0
LINE
  8
0
 62
     172
 10
77.7889
 20
15.8461
 30
0.0
 11
78.6377
 21
11.7753
 31
0.0
  0
LINE
  8
0
 62
     172
 10
78.6377
 20
11.7753
 30
0.0
 11
79.3806
 21
8.13181
 31
0.0
  0
LINE
  8
0
 62
     172
 10
79.3806
 20
8.13181
 30
0.0
 11
79.9705
 21
5.14558
 31
0.0
  0
LINE
  8
0
 62
     172
 10
79.9705
 20
5.14558
 30
0.0
 11
80.3589
 21
3.04133
 31
0.0
  0
LINE
  8
0
 62
     172
 10
80.3589
 20
3.04133
 30
0.0
 11
80.4997
 21
2.04914
 31
0.0
  0
LINE
  8
0
 62
     172
 10
80.4997
 20
2.04914
 30
0.0
 11
80.2887
 21
1.66743
 31
0.0
  0
LINE
  8
0
 62
     172
 10
80.2887
 20
1.66743
 30
0.0
 11
79.2745
 21
1.46623
 31
0.0
  0
LINE
  8
0
 62
     172
 10
79.2745
 20
1.46623
 30
0.0
 11
76.8809
 21
1.40009
 31
0.0
  0
LINE
  8
0
 62
     172
 10
76.8809
 20
1.40009
 30
0.0
 11
72.5385
 21
1.42489
 31
0.0
  0
LINE
  8
0
 62
     172
 10
72.5385
 20
1.42489
 30
0.0
 11
69.2051
 21
1.46761
 31
0.0
  0
LINE
  8
0
 62
     172
 10
69.2051
 20
1.46761
 30
0.0
 11
66.015
 21
1.52273
 31
0.0
  0
LINE
  8
0
 62
     172
 10
66.015
 20
1.52273
 30
0.0
 11
63.3307
 21
1.58337
 31
0.0
  0
LINE
  8
0
 62
     172
 10
63.3307
 20
1.58337
 30
0.0
 11
61.5128
 21
1.64262
 31
0.0
  0
LINE
  8
0
 62
     0
 10
61.5128
 20
1.64262
 30
0.0
 11
58.451
 21
1.77905
 31
0.0
  0
LINE
  8
0
 62
     0
 10
58.451
 20
1.77905
 30
0.0
 11
58.1656
 21
18.7965
 31
0.0
  0
LINE
  8
0
 62
     0
 10
58.1656
 20
18.7965
 30
0.0
 11
58.0471
 21
25.1299
 31
0.0
  0
LINE
  8
0
 62
     0
 10
58.0471
 20
25.1299
 30
0.0
 11
57.9191
 21
30.4602
 31
0.0
  0
LINE
  8
0
 62
     0
 10
57.9191
 20
30.4602
 30
0.0
 11
57.7688
 21
34.9939
 31
0.0
  0
LINE
  8
0
 62
     0
 10
57.7688
 20
34.9939
 30
0.0
 11
57.5853
 21
38.9378
 31
0.0
  0
LINE
  8
0
 62
     0
 10
57.5853
 20
38.9378
 30
0.0
 11
57.3567
 21
42.4988
 31
0.0
  0
LINE
  8
0
 62
     0
 10
57.3567
 20
42.4988
 30
0.0
 11
57.0713
 21
45.8833
 31
0.0
  0
LINE
  8
0
 62
     0
 10
57.0713
 20
45.8833
 30
0.0
 11
56.7186
 21
49.2993
 31
0.0
  0
LINE
  8
0
 62
     0
 10
56.7186
 20
49.2993
 30
0.0
 11
56.2889
 21
52.9498
 31
0.0
  0
LINE
  8
0
 62
     0
 10
56.2889
 20
52.9498
 30
0.0
 11
54.2064
 21
67.1572
 31
0.0
  0
LINE
  8
0
 62
     0
 10
54.2064
 20
67.1572
 30
0.0
 11
51.5606
 21
80.6277
 31
0.0
  0
LINE
  8
0
 62
     0
 10
51.5606
 20
80.6277
 30
0.0
 11
48.3457
 21
93.3771
 31
0.0
  0
LINE
  8
0
 62
     0
 10
48.3457
 20
93.3771
 30
0.0
 11
44.5576
 21
105.417
 31
0.0
  0
LINE
  8
0
 62
     0
 10
44.5576
 20
105.417
 30
0.0
 11
40.192
 21
116.76
 31
0.0
  0
LINE
  8
0
 62
     0
 10
40.192
 20
116.76
 30
0.0
 11
35.2447
 21
127.419
 31
0.0
  0
LINE
  8
0
 62
     0
 10
35.2447
 20
127.419
 30
0.0
 11
29.7105
 21
137.407
 31
0.0
  0
LINE
  8
0
 62
     0
 10
29.7105
 20
137.407
 30
0.0
 11
23.5865
 21
146.735
 31
0.0
  0
LINE
  8
0
 62
     0
 10
23.5865
 20
146.735
 30
0.0
 11
21.7248
 21
149.199
 31
0.0
  0
LINE
  8
0
 62
     0
 10
21.7248
 20
149.199
 30
0.0
 11
19.4414
 21
151.987
 31
0.0
  0
LINE
  8
0
 62
     0
 10
19.4414
 20
151.987
 30
0.0
 11
16.8465
 21
154.982
 31
0.0
  0
LINE
  8
0
 62
     0
 10
16.8465
 20
154.982
 30
0.0
 11
14.0463
 21
158.068
 31
0.0
  0
LINE
  8
0
 62
     0
 10
14.0463
 20
158.068
 30
0.0
 11
11.1511
 21
161.126
 31
0.0
  0
LINE
  8
0
 62
     0
 10
11.1511
 20
161.126
 30
0.0
 11
8.27098
 21
164.037
 31
0.0
  0
LINE
  8
0
 62
     0
 10
8.27098
 20
164.037
 30
0.0
 11
5.51353
 21
166.685
 31
0.0
  0
LINE
  8
0
 62
     0
 10
5.51353
 20
166.685
 30
0.0
 11
2.99034
 21
168.952
 31
0.0
  0
LINE
  8
0
 62
     0
 10
2.99034
 20
168.952
 30
0.0
 11
2.17317
 21
169.711
 31
0.0
  0
LINE
  8
0
 62
     0
 10
2.17317
 20
169.711
 30
0.0
 11
1.71841
 21
170.366
 31
0.0
  0
LINE
  8
0
 62
     0
 10
1.71841
 20
170.366
 30
0.0
 11
1.52135
 21
171.147
 31
0.0
  0
LINE
  8
0
 62
     0
 10
1.52135
 20
171.147
 30
0.0
 11
1.47864
 21
172.278
 31
0.0
  0
LINE
  8
0
 62
     0
 10
1.47864
 20
172.278
 30
0.0
 11
1.49793
 21
173.066
 31
0.0
  0
LINE
  8
0
 62
     0
 10
1.49793
 20
173.066
 30
0.0
 11
1.55029
 21
173.71
 31
0.0
  0
LINE
  8
0
 62
     0
 10
1.55029
 20
173.71
 30
0.0
 11
1.62746
 21
174.146
 31
0.0
  0
LINE
  8
0
 62
     0
 10
1.62746
 20
174.146
 30
0.0
 11
1.72393
 21
174.305
 31
0.0
  0
LINE
  8
0
 62
     0
 10
1.72393
 20
174.305
 30
0.0
 11
2.21037
 21
174.088
 31
0.0
  0
LINE
  8
0
 62
     0
 10
2.21037
 20
174.088
 30
0.0
 11
3.07854
 21
173.46
 31
0.0
  0
LINE
  8
0
 62
     0
 10
3.07854
 20
173.46
 30
0.0
 11
4.27881
 21
172.467
 31
0.0
  0
LINE
  8
0
 62
     0
 10
4.27881
 20
172.467
 30
0.0
 11
5.76573
 21
171.151
 31
0.0
  0
LINE
  8
0
 62
     0
 10
5.76573
 20
171.151
 30
0.0
 11
7.49102
 21
169.555
 31
0.0
  0
LINE
  8
0
 62
     0
 10
7.49102
 20
169.555
 30
0.0
 11
9.40925
 21
167.72
 31
0.0
  0
LINE
  8
0
 62
     0
 10
9.40925
 20
167.72
 30
0.0
 11
11.4708
 21
165.691
 31
0.0
  0
LINE
  8
0
 62
     0
 10
11.4708
 20
165.691
 30
0.0
 11
13.6302
 21
163.508
 31
0.0
  0
LINE
  8
0
 62
     0
 10
13.6302
 20
163.508
 30
0.0
 11
17.7436
 21
159.135
 31
0.0
  0
LINE
  8
0
 62
     0
 10
17.7436
 20
159.135
 30
0.0
 11
21.609
 21
154.671
 31
0.0
  0
LINE
  8
0
 62
     0
 10
21.609
 20
154.671
 30
0.0
 11
25.2843
 21
150.034
 31
0.0
  0
LINE
  8
0
 62
     0
 10
25.2843
 20
150.034
 30
0.0
 11
28.8272
 21
145.138
 31
0.0
  0
LINE
  8
0
 62
     0
 10
28.8272
 20
145.138
 30
0.0
 11
32.2957
 21
139.9
 31
0.0
  0
LINE
  8
0
 62
     0
 10
32.2957
 20
139.9
 30
0.0
 11
35.7477
 21
134.235
 31
0.0
  0
LINE
  8
0
 62
     0
 10
35.7477
 20
134.235
 30
0.0
 11
39.2437
 21
128.06
 31
0.0
  0
LINE
  8
0
 62
     0
 10
39.2437
 20
128.06
 30
0.0
 11
42.8406
 21
121.288
 31
0.0
  0
LINE
  8
0
 62
     0
 10
42.8406
 20
121.288
 30
0.0
 11
47.7365
 21
111.338
 31
0.0
  0
LINE
  8
0
 62
     0
 10
47.7365
 20
111.338
 30
0.0
 11
52.3752
 21
100.941
 31
0.0
  0
LINE
  8
0
 62
     0
 10
52.3752
 20
100.941
 30
0.0
 11
56.7612
 21
90.0825
 31
0.0
  0
LINE
  8
0
 62
     0
 10
56.7612
 20
90.0825
 30
0.0
 11
60.8997
 21
78.7453
 31
0.0
  0
LINE
  8
0
 62
     0
 10
60.8997
 20
78.7453
 30
0.0
 11
64.794
 21
66.9188
 31
0.0
  0
LINE
  8
0
 62
     0
 10
64.794
 20
66.9188
 30
0.0
 11
68.4498
 21
54.5881
 31
0.0
  0
LINE
  8
0
 62
     0
 10
68.4498
 20
54.5881
 30
0.0
 11
71.8728
 21
41.7393
 31
0.0
  0
LINE
  8
0
 62
     0
 10
71.8728
 20
41.7393
 30
0.0
 11
75.0686
 21
28.3559
 31
0.0
  0
LINE
  8
0
 62
     0
 10
75.0686
 20
28.3559
 30
0.0
 11
75.9562
 21
24.3651
 31
0.0
  0
LINE
  8
0
 62
     0
 10
75.9562
 20
24.3651
 30
0.0
 11
76.8794
 21
20.1194
 31
0.0
  0
LINE
  8
0
 62
     0
 10
76.8794
 20
20.1194
 30
0.0
 11
77.7889
 21
15.8461
 31
0.0
  0
LINE
  8
0
 62
     0
 10
77.7889
 20
15.8461
 30
0.0
 11
78.6377
 21
11.7753
 31
0.0
  0
LINE
  8
0
 62
     0
 10
78.6377
 20
11.7753
 30
0.0
 11
79.3806
 21
8.13181
 31
0.0
  0
LINE
  8
0
 62
     0
 10
79.3806
 20
8.13181
 30
0.0
 11
79.9705
 21
5.14558
 31
0.0
  0
LINE
  8
0
 62
     0
 10
79.9705
 20
5.14558
 30
0.0
 11
80.3589
 21
3.04133
 31
0.0
  0
LINE
  8
0
 62
     0
 10
80.3589
 20
3.04133
 30
0.0
 11
80.4997
 21
2.04914
 31
0.0
  0
LINE
  8
0
 62
     0
 10
80.4997
 20
2.04914
 30
0.0
 11
80.2887
 21
1.66743
 31
0.0
  0
LINE
  8
0
 62
     0
 10
80.2887
 20
1.66743
 30
0.0
 11
79.2745
 21
1.46623
 31
0.0
  0
LINE
  8
0
 62
     0
 10
79.2745
 20
1.46623
 30
0.0
 11
76.8809
 21
1.40009
 31
0.0
  0
LINE
  8
0
 62
     0
 10
76.8809
 20
1.40009
 30
0.0
 11
72.5385
 21
1.42489
 31
0.0
  0
LINE
  8
0
 62
     0
 10
72.5385
 20
1.42489
 30
0.0
 11
69.2051
 21
1.46761
 31
0.0
  0
LINE
  8
0
 62
     0
 10
69.2051
 20
1.46761
 30
0.0
 11
66.015
 21
1.52273
 31
0.0
  0
LINE
  8
0
 62
     0
 10
66.015
 20
1.52273
 30
0.0
 11
63.3307
 21
1.58337
 31
0.0
  0
LINE
  8
0
 62
     0
 10
63.3307
 20
1.58337
 30
0.0
 11
61.5128
 21
1.64262
 31
0.0
  0
LINE
  8
0
 62
     172
 10
61.3283
 20
2.04363
 30
0.0
 11
58.8864
 21
2.18419
 31
0.0
  0
LINE
  8
0
 62
     172
 10
58.8864
 20
2.18419
 30
0.0
 11
58.4094
 21
21.6201
 31
0.0
  0
LINE
  8
0
 62
     172
 10
58.4094
 20
21.6201
 30
0.0
 11
58.2979
 21
25.7486
 31
0.0
  0
LINE
  8
0
 62
     172
 10
58.2979
 20
25.7486
 30
0.0
 11
58.1723
 21
29.7725
 31
0.0
  0
LINE
  8
0
 62
     172
 10
58.1723
 20
29.7725
 30
0.0
 11
58.0362
 21
33.6062
 31
0.0
  0
LINE
  8
0
 62
     172
 10
58.0362
 20
33.6062
 30
0.0
 11
57.8915
 21
37.1644
 31
0.0
  0
LINE
  8
0
 62
     172
 10
57.8915
 20
37.1644
 30
0.0
 11
57.7427
 21
40.3585
 31
0.0
  0
LINE
  8
0
 62
     172
 10
57.7427
 20
40.3585
 30
0.0
 11
57.5938
 21
43.1052
 31
0.0
  0
LINE
  8
0
 62
     172
 10
57.5938
 20
43.1052
 30
0.0
 11
57.4477
 21
45.3154
 31
0.0
  0
LINE
  8
0
 62
     172
 10
57.4477
 20
45.3154
 30
0.0
 11
57.3112
 21
46.9029
 31
0.0
  0
LINE
  8
0
 62
     172
 10
57.3112
 20
46.9029
 30
0.0
 11
55.4274
 21
61.5668
 31
0.0
  0
LINE
  8
0
 62
     172
 10
55.4274
 20
61.5668
 30
0.0
 11
52.9717
 21
75.475
 31
0.0
  0
LINE
  8
0
 62
     172
 10
52.9717
 20
75.475
 30
0.0
 11
49.9413
 21
88.6425
 31
0.0
  0
LINE
  8
0
 62
     172
 10
49.9413
 20
88.6425
 30
0.0
 11
46.331
 21
101.075
 31
0.0
  0
LINE
  8
0
 62
     172
 10
46.331
 20
101.075
 30
0.0
 11
42.139
 21
112.784
 31
0.0
  0
LINE
  8
0
 62
     172
 10
42.139
 20
112.784
 30
0.0
 11
37.3627
 21
123.779
 31
0.0
  0
LINE
  8
0
 62
     172
 10
37.3627
 20
123.779
 30
0.0
 11
31.998
 21
134.069
 31
0.0
  0
LINE
  8
0
 62
     172
 10
31.998
 20
134.069
 30
0.0
 11
26.0435
 21
143.665
 31
0.0
  0
LINE
  8
0
 62
     172
 10
26.0435
 20
143.665
 30
0.0
 11
22.6288
 21
148.448
 31
0.0
  0
LINE
  8
0
 62
     172
 10
22.6288
 20
148.448
 30
0.0
 11
18.9108
 21
153.06
 31
0.0
  0
LINE
  8
0
 62
     172
 10
18.9108
 20
153.06
 30
0.0
 11
14.5094
 21
157.951
 31
0.0
  0
LINE
  8
0
 62
     172
 10
14.5094
 20
157.951
 30
0.0
 11
9.04268
 21
163.562
 31
0.0
  0
LINE
  8
0
 62
     172
 10
9.04268
 20
163.562
 30
0.0
 11
6.69036
 21
165.917
 31
0.0
  0
LINE
  8
0
 62
     172
 10
6.69036
 20
165.917
 30
0.0
 11
4.91822
 21
167.714
 31
0.0
  0
LINE
  8
0
 62
     172
 10
4.91822
 20
167.714
 30
0.0
 11
3.64352
 21
169.054
 31
0.0
  0
LINE
  8
0
 62
     172
 10
3.64352
 20
169.054
 30
0.0
 11
2.78915
 21
170.035
 31
0.0
  0
LINE
  8
0
 62
     172
 10
2.78915
 20
170.035
 30
0.0
 11
2.27239
 21
170.755
 31
0.0
  0
LINE
  8
0
 62
     172
 10
2.27239
 20
170.755
 30
0.0
 11
2.01607
 21
171.315
 31
0.0
  0
LINE
  8
0
 62
     172
 10
2.01607
 20
171.315
 30
0.0
 11
1.9389
 21
171.815
 31
0.0
  0
LINE
  8
0
 62
     172
 10
1.9389
 20
171.815
 30
0.0
 11
1.96233
 21
172.351
 31
0.0
  0
LINE
  8
0
 62
     172
 10
1.96233
 20
172.351
 30
0.0
 11
2.08359
 21
173.943
 31
0.0
  0
LINE
  8
0
 62
     172
 10
2.08359
 20
173.943
 30
0.0
 11
7.12308
 21
169.338
 31
0.0
  0
LINE
  8
0
 62
     172
 10
7.12308
 20
169.338
 30
0.0
 11
12.5305
 21
164.151
 31
0.0
  0
LINE
  8
0
 62
     172
 10
12.5305
 20
164.151
 30
0.0
 11
17.5948
 21
158.768
 31
0.0
  0
LINE
  8
0
 62
     172
 10
17.5948
 20
158.768
 30
0.0
 11
22.3807
 21
153.096
 31
0.0
  0
LINE
  8
0
 62
     172
 10
22.3807
 20
153.096
 30
0.0
 11
26.9517
 21
147.048
 31
0.0
  0
LINE
  8
0
 62
     172
 10
26.9517
 20
147.048
 30
0.0
 11
31.3738
 21
140.53
 31
0.0
  0
LINE
  8
0
 62
     172
 10
31.3738
 20
140.53
 30
0.0
 11
35.7106
 21
133.452
 31
0.0
  0
LINE
  8
0
 62
     172
 10
35.7106
 20
133.452
 30
0.0
 11
40.0293
 21
125.725
 31
0.0
  0
LINE
  8
0
 62
     172
 10
40.0293
 20
125.725
 30
0.0
 11
44.3936
 21
117.256
 31
0.0
  0
LINE
  8
0
 62
     172
 10
44.3936
 20
117.256
 30
0.0
 11
49.5596
 21
106.352
 31
0.0
  0
LINE
  8
0
 62
     172
 10
49.5596
 20
106.352
 30
0.0
 11
54.3648
 21
95.1248
 31
0.0
  0
LINE
  8
0
 62
     172
 10
54.3648
 20
95.1248
 30
0.0
 11
58.8437
 21
83.4679
 31
0.0
  0
LINE
  8
0
 62
     172
 10
58.8437
 20
83.4679
 30
0.0
 11
63.0343
 21
71.2706
 31
0.0
  0
LINE
  8
0
 62
     172
 10
63.0343
 20
71.2706
 30
0.0
 11
66.9699
 21
58.4207
 31
0.0
  0
LINE
  8
0
 62
     172
 10
66.9699
 20
58.4207
 30
0.0
 11
70.6864
 21
44.807
 31
0.0
  0
LINE
  8
0
 62
     172
 10
70.6864
 20
44.807
 30
0.0
 11
74.2227
 21
30.321
 31
0.0
  0
LINE
  8
0
 62
     172
 10
74.2227
 20
30.321
 30
0.0
 11
77.6125
 21
14.8498
 31
0.0
  0
LINE
  8
0
 62
     172
 10
77.6125
 20
14.8498
 30
0.0
 11
78.4144
 21
10.9582
 31
0.0
  0
LINE
  8
0
 62
     172
 10
78.4144
 20
10.9582
 30
0.0
 11
79.1132
 21
7.51307
 31
0.0
  0
LINE
  8
0
 62
     172
 10
79.1132
 20
7.51307
 30
0.0
 11
79.6325
 21
4.88929
 31
0.0
  0
LINE
  8
0
 62
     172
 10
79.6325
 20
4.88929
 30
0.0
 11
79.8971
 21
3.46025
 31
0.0
  0
LINE
  8
0
 62
     172
 10
79.8971
 20
3.46025
 30
0.0
 11
80.1688
 21
1.74735
 31
0.0
  0
LINE
  8
0
 62
     172
 10
80.1688
 20
1.74735
 30
0.0
 11
71.9695
 21
1.82452
 31
0.0
  0
LINE
  8
0
 62
     172
 10
71.9695
 20
1.82452
 30
0.0
 11
68.592
 21
1.86724
 31
0.0
  0
LINE
  8
0
 62
     172
 10
68.592
 20
1.86724
 30
0.0
 11
65.4597
 21
1.92236
 31
0.0
  0
LINE
  8
0
 62
     172
 10
65.4597
 20
1.92236
 30
0.0
 11
62.9225
 21
1.983
 31
0.0
  0
LINE
  8
0
 62
     172
 10
62.9225
 20
1.983
 30
0.0
 11
61.3283
 21
2.04363
 31
0.0
  0
LINE
  8
0
 62
     0
 10
61.3283
 20
2.04363
 30
0.0
 11
58.8864
 21
2.18419
 31
0.0
  0
LINE
  8
0
 62
     0
 10
58.8864
 20
2.18419
 30
0.0
 11
58.4094
 21
21.6201
 31
0.0
  0
LINE
  8
0
 62
     0
 10
58.4094
 20
21.6201
 30
0.0
 11
58.2979
 21
25.7486
 31
0.0
  0
LINE
  8
0
 62
     0
 10
58.2979
 20
25.7486
 30
0.0
 11
58.1723
 21
29.7725
 31
0.0
  0
LINE
  8
0
 62
     0
 10
58.1723
 20
29.7725
 30
0.0
 11
58.0362
 21
33.6062
 31
0.0
  0
LINE
  8
0
 62
     0
 10
58.0362
 20
33.6062
 30
0.0
 11
57.8915
 21
37.1644
 31
0.0
  0
LINE
  8
0
 62
     0
 10
57.8915
 20
37.1644
 30
0.0
 11
57.7427
 21
40.3585
 31
0.0
  0
LINE
  8
0
 62
     0
 10
57.7427
 20
40.3585
 30
0.0
 11
57.5938
 21
43.1052
 31
0.0
  0
LINE
  8
0
 62
     0
 10
57.5938
 20
43.1052
 30
0.0
 11
57.4477
 21
45.3154
 31
0.0
  0
LINE
  8
0
 62
     0
 10
57.4477
 20
45.3154
 30
0.0
 11
57.3112
 21
46.9029
 31
0.0
  0
LINE
  8
0
 62
     0
 10
57.3112
 20
46.9029
 30
0.0
 11
55.4274
 21
61.5668
 31
0.0
  0
LINE
  8
0
 62
     0
 10
55.4274
 20
61.5668
 30
0.0
 11
52.9717
 21
75.475
 31
0.0
  0
LINE
  8
0
 62
     0
 10
52.9717
 20
75.475
 30
0.0
 11
49.9413
 21
88.6425
 31
0.0
  0
LINE
  8
0
 62
     0
 10
49.9413
 20
88.6425
 30
0.0
 11
46.331
 21
101.075
 31
0.0
  0
LINE
  8
0
 62
     0
 10
46.331
 20
101.075
 30
0.0
 11
42.139
 21
112.784
 31
0.0
  0
LINE
  8
0
 62
     0
 10
42.139
 20
112.784
 30
0.0
 11
37.3627
 21
123.779
 31
0.0
  0
LINE
  8
0
 62
     0
 10
37.3627
 20
123.779
 30
0.0
 11
31.998
 21
134.069
 31
0.0
  0
LINE
  8
0
 62
     0
 10
31.998
 20
134.069
 30
0.0
 11
26.0435
 21
143.665
 31
0.0
  0
LINE
  8
0
 62
     0
 10
26.0435
 20
143.665
 30
0.0
 11
22.6288
 21
148.448
 31
0.0
  0
LINE
  8
0
 62
     0
 10
22.6288
 20
148.448
 30
0.0
 11
18.9108
 21
153.06
 31
0.0
  0
LINE
  8
0
 62
     0
 10
18.9108
 20
153.06
 30
0.0
 11
14.5094
 21
157.951
 31
0.0
  0
LINE
  8
0
 62
     0
 10
14.5094
 20
157.951
 30
0.0
 11
9.04268
 21
163.562
 31
0.0
  0
LINE
  8
0
 62
     0
 10
9.04268
 20
163.562
 30
0.0
 11
6.69036
 21
165.917
 31
0.0
  0
LINE
  8
0
 62
     0
 10
6.69036
 20
165.917
 30
0.0
 11
4.91822
 21
167.714
 31
0.0
  0
LINE
  8
0
 62
     0
 10
4.91822
 20
167.714
 30
0.0
 11
3.64352
 21
169.054
 31
0.0
  0
LINE
  8
0
 62
     0
 10
3.64352
 20
169.054
 30
0.0
 11
2.78915
 21
170.035
 31
0.0
  0
LINE
  8
0
 62
     0
 10
2.78915
 20
170.035
 30
0.0
 11
2.27239
 21
170.755
 31
0.0
  0
LINE
  8
0
 62
     0
 10
2.27239
 20
170.755
 30
0.0
 11
2.01607
 21
171.315
 31
0.0
  0
LINE
  8
0
 62
     0
 10
2.01607
 20
171.315
 30
0.0
 11
1.9389
 21
171.815
 31
0.0
  0
LINE
  8
0
 62
     0
 10
1.9389
 20
171.815
 30
0.0
 11
1.96233
 21
172.351
 31
0.0
  0
LINE
  8
0
 62
     0
 10
1.96233
 20
172.351
 30
0.0
 11
2.08359
 21
173.943
 31
0.0
  0
LINE
  8
0
 62
     0
 10
2.08359
 20
173.943
 30
0.0
 11
7.12308
 21
169.338
 31
0.0
  0
LINE
  8
0
 62
     0
 10
7.12308
 20
169.338
 30
0.0
 11
12.5305
 21
164.151
 31
0.0
  0
LINE
  8
0
 62
     0
 10
12.5305
 20
164.151
 30
0.0
 11
17.5948
 21
158.768
 31
0.0
  0
LINE
  8
0
 62
     0
 10
17.5948
 20
158.768
 30
0.0
 11
22.3807
 21
153.096
 31
0.0
  0
LINE
  8
0
 62
     0
 10
22.3807
 20
153.096
 30
0.0
 11
26.9517
 21
147.048
 31
0.0
  0
LINE
  8
0
 62
     0
 10
26.9517
 20
147.048
 30
0.0
 11
31.3738
 21
140.53
 31
0.0
  0
LINE
  8
0
 62
     0
 10
31.3738
 20
140.53
 30
0.0
 11
35.7106
 21
133.452
 31
0.0
  0
LINE
  8
0
 62
     0
 10
35.7106
 20
133.452
 30
0.0
 11
40.0293
 21
125.725
 31
0.0
  0
LINE
  8
0
 62
     0
 10
40.0293
 20
125.725
 30
0.0
 11
44.3936
 21
117.256
 31
0.0
  0
LINE
  8
0
 62
     0
 10
44.3936
 20
117.256
 30
0.0
 11
49.5596
 21
106.352
 31
0.0
  0
LINE
  8
0
 62
     0
 10
49.5596
 20
106.352
 30
0.0
 11
54.3648
 21
95.1248
 31
0.0
  0
LINE
  8
0
 62
     0
 10
54.3648
 20
95.1248
 30
0.0
 11
58.8437
 21
83.4679
 31
0.0
  0
LINE
  8
0
 62
     0
 10
58.8437
 20
83.4679
 30
0.0
 11
63.0343
 21
71.2706
 31
0.0
  0
LINE
  8
0
 62
     0
 10
63.0343
 20
71.2706
 30
0.0
 11
66.9699
 21
58.4207
 31
0.0
  0
LINE
  8
0
 62
     0
 10
66.9699
 20
58.4207
 30
0.0
 11
70.6864
 21
44.807
 31
0.0
  0
LINE
  8
0
 62
     0
 10
70.6864
 20
44.807
 30
0.0
 11
74.2227
 21
30.321
 31
0.0
  0
LINE
  8
0
 62
     0
 10
74.2227
 20
30.321
 30
0.0
 11
77.6125
 21
14.8498
 31
0.0
  0
LINE
  8
0
 62
     0
 10
77.6125
 20
14.8498
 30
0.0
 11
78.4144
 21
10.9582
 31
0.0
  0
LINE
  8
0
 62
     0
 10
78.4144
 20
10.9582
 30
0.0
 11
79.1132
 21
7.51307
 31
0.0
  0
LINE
  8
0
 62
     0
 10
79.1132
 20
7.51307
 30
0.0
 11
79.6325
 21
4.88929
 31
0.0
  0
LINE
  8
0
 62
     0
 10
79.6325
 20
4.88929
 30
0.0
 11
79.8971
 21
3.46025
 31
0.0
  0
LINE
  8
0
 62
     0
 10
79.8971
 20
3.46025
 30
0.0
 11
80.1688
 21
1.74735
 31
0.0
  0
LINE
  8
0
 62
     0
 10
80.1688
 20
1.74735
 30
0.0
 11
71.9695
 21
1.82452
 31
0.0
  0
LINE
  8
0
 62
     0
 10
71.9695
 20
1.82452
 30
0.0
 11
68.592
 21
1.86724
 31
0.0
  0
LINE
  8
0
 62
     0
 10
68.592
 20
1.86724
 30
0.0
 11
65.4597
 21
1.92236
 31
0.0
  0
LINE
  8
0
 62
     0
 10
65.4597
 20
1.92236
 30
0.0
 11
62.9225
 21
1.983
 31
0.0
  0
LINE
  8
0
 62
     0
 10
62.9225
 20
1.983
 30
0.0
 11
61.3283
 21
2.04363
 31
0.0
  0
ENDSEC
  0
EOF
