  0
SECTION
  2
HEADER
  9
$ACADVER
  1
AC1009
  9
$EXTMIN
 10
0.0
 20
0.0
 30
0.0
  9
$EXTMAX
 10
1000.0
 20
1000.0
 30
0.0
  9
$FILLMODE
 70
 0
  9
$SPLFRAME
 70
 1
  0
ENDSEC
  0
SECTION
  2
TABLES
  0
TABLE
  2
LAYER
 70
1
  0
LAYER
  2
0
 70
     0
 62
     7
  6
CONTINUOUS
  0
ENDTAB
  0
ENDSEC
  0
SECTION
  2
ENTITIES
  0
LINE
  8
0
 62
     0
 10
61.9125
 20
191.667
 30
0.0
 11
61.8642
 21
191.287
 31
0.0
  0
LINE
  8
0
 62
     0
 10
61.8642
 20
191.287
 30
0.0
 11
61.7181
 21
190.169
 31
0.0
  0
LINE
  8
0
 62
     0
 10
61.7181
 20
190.169
 30
0.0
 11
61.4743
 21
188.353
 31
0.0
  0
LINE
  8
0
 62
     0
 10
61.4743
 20
188.353
 30
0.0
 11
61.1269
 21
185.874
 31
0.0
  0
LINE
  8
0
 62
     0
 10
61.1269
 20
185.874
 30
0.0
 11
60.675
 21
182.772
 31
0.0
  0
LINE
  8
0
 62
     0
 10
60.675
 20
182.772
 30
0.0
 11
60.1155
 21
179.083
 31
0.0
  0
LINE
  8
0
 62
     0
 10
60.1155
 20
179.083
 30
0.0
 11
59.4487
 21
174.845
 31
0.0
  0
LINE
  8
0
 62
     0
 10
59.4487
 20
174.845
 30
0.0
 11
58.6687
 21
170.097
 31
0.0
  0
LINE
  8
0
 62
     0
 10
58.6687
 20
170.097
 30
0.0
 11
57.7744
 21
164.872
 31
0.0
  0
LINE
  8
0
 62
     0
 10
57.7744
 20
164.872
 30
0.0
 11
56.7626
 21
159.214
 31
0.0
  0
LINE
  8
0
 62
     0
 10
56.7626
 20
159.214
 30
0.0
 11
55.6341
 21
153.155
 31
0.0
  0
LINE
  8
0
 62
     0
 10
55.6341
 20
153.155
 30
0.0
 11
54.3828
 21
146.736
 31
0.0
  0
LINE
  8
0
 62
     0
 10
54.3828
 20
146.736
 30
0.0
 11
53.0077
 21
139.992
 31
0.0
  0
LINE
  8
0
 62
     0
 10
53.0077
 20
139.992
 30
0.0
 11
51.507
 21
132.963
 31
0.0
  0
LINE
  8
0
 62
     0
 10
51.507
 20
132.963
 30
0.0
 11
49.8768
 21
125.684
 31
0.0
  0
LINE
  8
0
 62
     0
 10
49.8768
 20
125.684
 30
0.0
 11
48.1171
 21
118.194
 31
0.0
  0
LINE
  8
0
 62
     0
 10
48.1171
 20
118.194
 30
0.0
 11
44.1911
 21
102.733
 31
0.0
  0
LINE
  8
0
 62
     0
 10
44.1911
 20
102.733
 30
0.0
 11
39.7136
 21
86.8772
 31
0.0
  0
LINE
  8
0
 62
     0
 10
39.7136
 20
86.8772
 30
0.0
 11
34.6632
 21
70.9277
 31
0.0
  0
LINE
  8
0
 62
     0
 10
34.6632
 20
70.9277
 30
0.0
 11
29.0229
 21
55.1864
 31
0.0
  0
LINE
  8
0
 62
     0
 10
29.0229
 20
55.1864
 30
0.0
 11
22.7721
 21
39.9535
 31
0.0
  0
LINE
  8
0
 62
     0
 10
22.7721
 20
39.9535
 30
0.0
 11
15.8943
 21
25.5295
 31
0.0
  0
LINE
  8
0
 62
     0
 10
15.8943
 20
25.5295
 30
0.0
 11
8.36747
 21
12.2136
 31
0.0
  0
LINE
  8
0
 62
     0
 10
8.36747
 20
12.2136
 30
0.0
 11
0.175011
 21
0.308681
 31
0.0
  0
LINE
  8
0
 62
     0
 10
0.175011
 20
0.308681
 30
0.0
 11
0
 21
0.0813043
 31
0.0
  0
LINE
  8
0
 62
     0
 10
0
 20
0.0813043
 30
0.0
 11
0.286632
 21
0.0813043
 31
0.0
  0
LINE
  8
0
 62
     0
 10
0.286632
 20
0.0813043
 30
0.0
 11
123.551
 21
-0
 31
0.0
  0
LINE
  8
0
 62
     0
 10
123.551
 20
-0
 30
0.0
 11
123.365
 21
0.230132
 31
0.0
  0
LINE
  8
0
 62
     0
 10
123.365
 20
0.230132
 30
0.0
 11
114.361
 21
12.6642
 31
0.0
  0
LINE
  8
0
 62
     0
 10
114.361
 20
12.6642
 30
0.0
 11
106.245
 21
26.3715
 31
0.0
  0
LINE
  8
0
 62
     0
 10
106.245
 20
26.3715
 30
0.0
 11
98.976
 21
41.0697
 31
0.0
  0
LINE
  8
0
 62
     0
 10
98.976
 20
41.0697
 30
0.0
 11
92.5117
 21
56.4677
 31
0.0
  0
LINE
  8
0
 62
     0
 10
92.5117
 20
56.4677
 30
0.0
 11
86.808
 21
72.2824
 31
0.0
  0
LINE
  8
0
 62
     0
 10
86.808
 20
72.2824
 30
0.0
 11
81.8236
 21
88.2262
 31
0.0
  0
LINE
  8
0
 62
     0
 10
81.8236
 20
88.2262
 30
0.0
 11
77.5173
 21
104.012
 31
0.0
  0
LINE
  8
0
 62
     0
 10
77.5173
 20
104.012
 30
0.0
 11
73.8463
 21
119.35
 31
0.0
  0
LINE
  8
0
 62
     0
 10
73.8463
 20
119.35
 30
0.0
 11
72.2341
 21
126.764
 31
0.0
  0
LINE
  8
0
 62
     0
 10
72.2341
 20
126.764
 30
0.0
 11
70.7651
 21
133.96
 31
0.0
  0
LINE
  8
0
 62
     0
 10
70.7651
 20
133.96
 30
0.0
 11
69.4337
 21
140.9
 31
0.0
  0
LINE
  8
0
 62
     0
 10
69.4337
 20
140.9
 30
0.0
 11
68.235
 21
147.549
 31
0.0
  0
LINE
  8
0
 62
     0
 10
68.235
 20
147.549
 30
0.0
 11
67.1629
 21
153.873
 31
0.0
  0
LINE
  8
0
 62
     0
 10
67.1629
 20
153.873
 30
0.0
 11
66.2107
 21
159.836
 31
0.0
  0
LINE
  8
0
 62
     0
 10
66.2107
 20
159.836
 30
0.0
 11
65.3754
 21
165.399
 31
0.0
  0
LINE
  8
0
 62
     0
 10
65.3754
 20
165.399
 30
0.0
 11
64.6508
 21
170.53
 31
0.0
  0
LINE
  8
0
 62
     0
 10
64.6508
 20
170.53
 30
0.0
 11
64.0306
 21
175.19
 31
0.0
  0
LINE
  8
0
 62
     0
 10
64.0306
 20
175.19
 30
0.0
 11
63.5109
 21
179.345
 31
0.0
  0
LINE
  8
0
 62
     0
 10
63.5109
 20
179.345
 30
0.0
 11
63.0865
 21
182.959
 31
0.0
  0
LINE
  8
0
 62
     0
 10
63.0865
 20
182.959
 30
0.0
 11
62.7503
 21
185.996
 31
0.0
  0
LINE
  8
0
 62
     0
 10
62.7503
 20
185.996
 30
0.0
 11
62.4981
 21
188.422
 31
0.0
  0
LINE
  8
0
 62
     0
 10
62.4981
 20
188.422
 30
0.0
 11
62.3245
 21
190.198
 31
0.0
  0
LINE
  8
0
 62
     0
 10
62.3245
 20
190.198
 30
0.0
 11
62.2254
 21
191.291
 31
0.0
  0
LINE
  8
0
 62
     0
 10
62.2254
 20
191.291
 30
0.0
 11
62.1937
 21
191.662
 31
0.0
  0
LINE
  8
0
 62
     0
 10
62.1937
 20
191.662
 30
0.0
 11
61.9125
 21
191.667
 31
0.0
  0
LINE
  8
0
 62
     0
 10
62.031
 20
190.434
 30
0.0
 11
62.1122
 21
189.528
 31
0.0
  0
LINE
  8
0
 62
     0
 10
62.1122
 20
189.528
 30
0.0
 11
62.2572
 21
188.021
 31
0.0
  0
LINE
  8
0
 62
     0
 10
62.2572
 20
188.021
 30
0.0
 11
62.4692
 21
185.939
 31
0.0
  0
LINE
  8
0
 62
     0
 10
62.4692
 20
185.939
 30
0.0
 11
62.7546
 21
183.312
 31
0.0
  0
LINE
  8
0
 62
     0
 10
62.7546
 20
183.312
 30
0.0
 11
63.1155
 21
180.167
 31
0.0
  0
LINE
  8
0
 62
     0
 10
63.1155
 20
180.167
 30
0.0
 11
63.5607
 21
176.532
 31
0.0
  0
LINE
  8
0
 62
     0
 10
63.5607
 20
176.532
 30
0.0
 11
64.0913
 21
172.434
 31
0.0
  0
LINE
  8
0
 62
     0
 10
64.0913
 20
172.434
 30
0.0
 11
64.7139
 21
167.9
 31
0.0
  0
LINE
  8
0
 62
     0
 10
64.7139
 20
167.9
 30
0.0
 11
65.4322
 21
162.959
 31
0.0
  0
LINE
  8
0
 62
     0
 10
65.4322
 20
162.959
 30
0.0
 11
66.2534
 21
157.638
 31
0.0
  0
LINE
  8
0
 62
     0
 10
66.2534
 20
157.638
 30
0.0
 11
67.1795
 21
151.966
 31
0.0
  0
LINE
  8
0
 62
     0
 10
67.1795
 20
151.966
 30
0.0
 11
68.2156
 21
145.969
 31
0.0
  0
LINE
  8
0
 62
     0
 10
68.2156
 20
145.969
 30
0.0
 11
69.3692
 21
139.674
 31
0.0
  0
LINE
  8
0
 62
     0
 10
69.3692
 20
139.674
 30
0.0
 11
70.6423
 21
133.112
 31
0.0
  0
LINE
  8
0
 62
     0
 10
70.6423
 20
133.112
 30
0.0
 11
72.0411
 21
126.307
 31
0.0
  0
LINE
  8
0
 62
     0
 10
72.0411
 20
126.307
 30
0.0
 11
73.5707
 21
119.289
 31
0.0
  0
LINE
  8
0
 62
     0
 10
73.5707
 20
119.289
 30
0.0
 11
77.2351
 21
103.978
 31
0.0
  0
LINE
  8
0
 62
     0
 10
77.2351
 20
103.978
 30
0.0
 11
81.5301
 21
88.2234
 31
0.0
  0
LINE
  8
0
 62
     0
 10
81.5301
 20
88.2234
 30
0.0
 11
86.5008
 21
72.3085
 31
0.0
  0
LINE
  8
0
 62
     0
 10
86.5008
 20
72.3085
 30
0.0
 11
92.1893
 21
56.5175
 31
0.0
  0
LINE
  8
0
 62
     0
 10
92.1893
 20
56.5175
 30
0.0
 11
98.6374
 21
41.1357
 31
0.0
  0
LINE
  8
0
 62
     0
 10
98.6374
 20
41.1357
 30
0.0
 11
105.888
 21
26.4473
 31
0.0
  0
LINE
  8
0
 62
     0
 10
105.888
 20
26.4473
 30
0.0
 11
113.984
 21
12.7345
 31
0.0
  0
LINE
  8
0
 62
     0
 10
113.984
 20
12.7345
 30
0.0
 11
122.969
 21
0.282498
 31
0.0
  0
LINE
  8
0
 62
     0
 10
122.969
 20
0.282498
 30
0.0
 11
0.563619
 21
0.363802
 31
0.0
  0
LINE
  8
0
 62
     0
 10
0.563619
 20
0.363802
 30
0.0
 11
8.74088
 21
12.2921
 31
0.0
  0
LINE
  8
0
 62
     0
 10
8.74088
 20
12.2921
 30
0.0
 11
16.2498
 21
25.6122
 31
0.0
  0
LINE
  8
0
 62
     0
 10
16.2498
 20
25.6122
 30
0.0
 11
23.1124
 21
40.0293
 31
0.0
  0
LINE
  8
0
 62
     0
 10
23.1124
 20
40.0293
 30
0.0
 11
29.3467
 21
55.2443
 31
0.0
  0
LINE
  8
0
 62
     0
 10
29.3467
 20
55.2443
 30
0.0
 11
34.9732
 21
70.9595
 31
0.0
  0
LINE
  8
0
 62
     0
 10
34.9732
 20
70.9595
 30
0.0
 11
40.0085
 21
86.8772
 31
0.0
  0
LINE
  8
0
 62
     0
 10
40.0085
 20
86.8772
 30
0.0
 11
44.4747
 21
102.7
 31
0.0
  0
LINE
  8
0
 62
     0
 10
44.4747
 20
102.7
 30
0.0
 11
48.3912
 21
118.128
 31
0.0
  0
LINE
  8
0
 62
     0
 10
48.3912
 20
118.128
 30
0.0
 11
50.0627
 21
125.228
 31
0.0
  0
LINE
  8
0
 62
     0
 10
50.0627
 20
125.228
 30
0.0
 11
51.6146
 21
132.121
 31
0.0
  0
LINE
  8
0
 62
     0
 10
51.6146
 20
132.121
 30
0.0
 11
53.0475
 21
138.775
 31
0.0
  0
LINE
  8
0
 62
     0
 10
53.0475
 20
138.775
 30
0.0
 11
54.3648
 21
145.165
 31
0.0
  0
LINE
  8
0
 62
     0
 10
54.3648
 20
145.165
 30
0.0
 11
55.5696
 21
151.259
 31
0.0
  0
LINE
  8
0
 62
     0
 10
55.5696
 20
151.259
 30
0.0
 11
56.6635
 21
157.029
 31
0.0
  0
LINE
  8
0
 62
     0
 10
56.6635
 20
157.029
 30
0.0
 11
57.6474
 21
162.445
 31
0.0
  0
LINE
  8
0
 62
     0
 10
57.6474
 20
162.445
 30
0.0
 11
58.5265
 21
167.477
 31
0.0
  0
LINE
  8
0
 62
     0
 10
58.5265
 20
167.477
 30
0.0
 11
59.3012
 21
172.098
 31
0.0
  0
LINE
  8
0
 62
     0
 10
59.3012
 20
172.098
 30
0.0
 11
59.975
 21
176.276
 31
0.0
  0
LINE
  8
0
 62
     0
 10
59.975
 20
176.276
 30
0.0
 11
60.5511
 21
179.984
 31
0.0
  0
LINE
  8
0
 62
     0
 10
60.5511
 20
179.984
 30
0.0
 11
61.0291
 21
183.192
 31
0.0
  0
LINE
  8
0
 62
     0
 10
61.0291
 20
183.192
 30
0.0
 11
61.4151
 21
185.87
 31
0.0
  0
LINE
  8
0
 62
     0
 10
61.4151
 20
185.87
 30
0.0
 11
61.7086
 21
187.989
 31
0.0
  0
LINE
  8
0
 62
     0
 10
61.7086
 20
187.989
 30
0.0
 11
61.9125
 21
189.52
 31
0.0
  0
LINE
  8
0
 62
     0
 10
61.9125
 20
189.52
 30
0.0
 11
62.031
 21
190.434
 31
0.0
  0
LINE
  8
0
 62
     0
 10
1.20716
 20
0.650434
 30
0.0
 11
1.3932
 21
1.00321
 31
0.0
  0
LINE
  8
0
 62
     0
 10
1.3932
 20
1.00321
 30
0.0
 11
1.89894
 21
1.78594
 31
0.0
  0
LINE
  8
0
 62
     0
 10
1.89894
 20
1.78594
 30
0.0
 11
2.64997
 21
2.88286
 31
0.0
  0
LINE
  8
0
 62
     0
 10
2.64997
 20
2.88286
 30
0.0
 11
3.56637
 21
4.17823
 31
0.0
  0
LINE
  8
0
 62
     0
 10
3.56637
 20
4.17823
 30
0.0
 11
7.87961
 21
10.5778
 31
0.0
  0
LINE
  8
0
 62
     0
 10
7.87961
 20
10.5778
 30
0.0
 11
12.124
 21
17.643
 31
0.0
  0
LINE
  8
0
 62
     0
 10
12.124
 20
17.643
 30
0.0
 11
16.2898
 21
25.349
 31
0.0
  0
LINE
  8
0
 62
     0
 10
16.2898
 20
25.349
 30
0.0
 11
20.3688
 21
33.6696
 31
0.0
  0
LINE
  8
0
 62
     0
 10
20.3688
 20
33.6696
 30
0.0
 11
24.3513
 21
42.5799
 31
0.0
  0
LINE
  8
0
 62
     0
 10
24.3513
 20
42.5799
 30
0.0
 11
28.2319
 21
52.0541
 31
0.0
  0
LINE
  8
0
 62
     0
 10
28.2319
 20
52.0541
 30
0.0
 11
31.9994
 21
62.067
 31
0.0
  0
LINE
  8
0
 62
     0
 10
31.9994
 20
62.067
 30
0.0
 11
35.6457
 21
72.5936
 31
0.0
  0
LINE
  8
0
 62
     0
 10
35.6457
 20
72.5936
 30
0.0
 11
39.164
 21
83.6097
 31
0.0
  0
LINE
  8
0
 62
     0
 10
39.164
 20
83.6097
 30
0.0
 11
42.5443
 21
95.0874
 31
0.0
  0
LINE
  8
0
 62
     0
 10
42.5443
 20
95.0874
 30
0.0
 11
45.7786
 21
107.003
 31
0.0
  0
LINE
  8
0
 62
     0
 10
45.7786
 20
107.003
 30
0.0
 11
48.8583
 21
119.331
 31
0.0
  0
LINE
  8
0
 62
     0
 10
48.8583
 20
119.331
 30
0.0
 11
51.7758
 21
132.046
 31
0.0
  0
LINE
  8
0
 62
     0
 10
51.7758
 20
132.046
 30
0.0
 11
54.5207
 21
145.124
 31
0.0
  0
LINE
  8
0
 62
     0
 10
54.5207
 20
145.124
 30
0.0
 11
57.0879
 21
158.537
 31
0.0
  0
LINE
  8
0
 62
     0
 10
57.0879
 20
158.537
 30
0.0
 11
59.4663
 21
172.26
 31
0.0
  0
LINE
  8
0
 62
     0
 10
59.4663
 20
172.26
 30
0.0
 11
60.1761
 21
176.64
 31
0.0
  0
LINE
  8
0
 62
     0
 10
60.1761
 20
176.64
 30
0.0
 11
60.7991
 21
180.592
 31
0.0
  0
LINE
  8
0
 62
     0
 10
60.7991
 20
180.592
 30
0.0
 11
61.2676
 21
183.683
 31
0.0
  0
LINE
  8
0
 62
     0
 10
61.2676
 20
183.683
 30
0.0
 11
61.5156
 21
185.479
 31
0.0
  0
LINE
  8
0
 62
     0
 10
61.5156
 20
185.479
 30
0.0
 11
61.6313
 21
186.414
 31
0.0
  0
LINE
  8
0
 62
     0
 10
61.6313
 20
186.414
 30
0.0
 11
61.747
 21
187.16
 31
0.0
  0
LINE
  8
0
 62
     0
 10
61.747
 20
187.16
 30
0.0
 11
61.849
 21
187.641
 31
0.0
  0
LINE
  8
0
 62
     0
 10
61.849
 20
187.641
 30
0.0
 11
61.922
 21
187.781
 31
0.0
  0
LINE
  8
0
 62
     0
 10
61.922
 20
187.781
 30
0.0
 11
62.0391
 21
187.176
 31
0.0
  0
LINE
  8
0
 62
     0
 10
62.0391
 20
187.176
 30
0.0
 11
62.261
 21
185.622
 31
0.0
  0
LINE
  8
0
 62
     0
 10
62.261
 20
185.622
 30
0.0
 11
62.556
 21
183.355
 31
0.0
  0
LINE
  8
0
 62
     0
 10
62.556
 20
183.355
 30
0.0
 11
62.8936
 21
180.611
 31
0.0
  0
LINE
  8
0
 62
     0
 10
62.8936
 20
180.611
 30
0.0
 11
64.426
 21
168.819
 31
0.0
  0
LINE
  8
0
 62
     0
 10
64.426
 20
168.819
 30
0.0
 11
66.2478
 21
156.701
 31
0.0
  0
LINE
  8
0
 62
     0
 10
66.2478
 20
156.701
 30
0.0
 11
68.3094
 21
144.548
 31
0.0
  0
LINE
  8
0
 62
     0
 10
68.3094
 20
144.548
 30
0.0
 11
70.5665
 21
132.651
 31
0.0
  0
LINE
  8
0
 62
     0
 10
70.5665
 20
132.651
 30
0.0
 11
75.008
 21
112.346
 31
0.0
  0
LINE
  8
0
 62
     0
 10
75.008
 20
112.346
 30
0.0
 11
79.9705
 21
93.1429
 31
0.0
  0
LINE
  8
0
 62
     0
 10
79.9705
 20
93.1429
 30
0.0
 11
85.4244
 21
75.1127
 31
0.0
  0
LINE
  8
0
 62
     0
 10
85.4244
 20
75.1127
 30
0.0
 11
91.3476
 21
58.324
 31
0.0
  0
LINE
  8
0
 62
     0
 10
91.3476
 20
58.324
 30
0.0
 11
97.7099
 21
42.8445
 31
0.0
  0
LINE
  8
0
 62
     0
 10
97.7099
 20
42.8445
 30
0.0
 11
104.489
 21
28.7418
 31
0.0
  0
LINE
  8
0
 62
     0
 10
104.489
 20
28.7418
 30
0.0
 11
111.654
 21
16.0872
 31
0.0
  0
LINE
  8
0
 62
     0
 10
111.654
 20
16.0872
 30
0.0
 11
119.185
 21
4.94577
 31
0.0
  0
LINE
  8
0
 62
     0
 10
119.185
 20
4.94577
 30
0.0
 11
122.557
 21
0.410655
 31
0.0
  0
LINE
  8
0
 62
     0
 10
122.557
 20
0.410655
 30
0.0
 11
61.8822
 21
0.410655
 31
0.0
  0
LINE
  8
0
 62
     0
 10
61.8822
 20
0.410655
 30
0.0
 11
49.6933
 21
0.416168
 31
0.0
  0
LINE
  8
0
 62
     0
 10
49.6933
 20
0.416168
 30
0.0
 11
38.3233
 21
0.429948
 31
0.0
  0
LINE
  8
0
 62
     0
 10
38.3233
 20
0.429948
 30
0.0
 11
28.0183
 21
0.451997
 31
0.0
  0
LINE
  8
0
 62
     0
 10
28.0183
 20
0.451997
 30
0.0
 11
19.0307
 21
0.480935
 31
0.0
  0
LINE
  8
0
 62
     0
 10
19.0307
 20
0.480935
 30
0.0
 11
11.6058
 21
0.516763
 31
0.0
  0
LINE
  8
0
 62
     0
 10
11.6058
 20
0.516763
 30
0.0
 11
5.99447
 21
0.558105
 31
0.0
  0
LINE
  8
0
 62
     0
 10
5.99447
 20
0.558105
 30
0.0
 11
2.44464
 21
0.602202
 31
0.0
  0
LINE
  8
0
 62
     0
 10
2.44464
 20
0.602202
 30
0.0
 11
1.20716
 21
0.650434
 31
0.0
  0
ENDSEC
  0
EOF
