<?xml version="1.0" encoding="UTF-8" standalone="no"?>
<!-- Created with Inkscape (http://www.inkscape.org/) -->

<svg
   xmlns:dc="http://purl.org/dc/elements/1.1/"
   xmlns:cc="http://creativecommons.org/ns#"
   xmlns:rdf="http://www.w3.org/1999/02/22-rdf-syntax-ns#"
   xmlns:svg="http://www.w3.org/2000/svg"
   xmlns="http://www.w3.org/2000/svg"
   xmlns:sodipodi="http://sodipodi.sourceforge.net/DTD/sodipodi-0.dtd"
   xmlns:inkscape="http://www.inkscape.org/namespaces/inkscape"
   width="210mm"
   height="297mm"
   viewBox="0 0 744.09448819 1052.3622047"
   id="svg2"
   version="1.1"
   inkscape:version="0.91 r13725"
   sodipodi:docname="knight_wedge.svg">
  <defs
     id="defs4" />
  <sodipodi:namedview
     id="base"
     pagecolor="#ffffff"
     bordercolor="#666666"
     borderopacity="1.0"
     inkscape:pageopacity="0.0"
     inkscape:pageshadow="2"
     inkscape:zoom="0.7"
     inkscape:cx="0.40517316"
     inkscape:cy="423.23737"
     inkscape:document-units="px"
     inkscape:current-layer="layer1"
     showgrid="false"
     inkscape:window-width="1280"
     inkscape:window-height="751"
     inkscape:window-x="0"
     inkscape:window-y="1"
     inkscape:window-maximized="1" />
  <metadata
     id="metadata7">
    <rdf:RDF>
      <cc:Work
         rdf:about="">
        <dc:format>image/svg+xml</dc:format>
        <dc:type
           rdf:resource="http://purl.org/dc/dcmitype/StillImage" />
        <dc:title></dc:title>
      </cc:Work>
    </rdf:RDF>
  </metadata>
  <g
     inkscape:label="Layer 1"
     inkscape:groupmode="layer"
     id="layer1">
    <path
       style="color:#000000;font-style:normal;font-variant:normal;font-weight:normal;font-stretch:normal;font-size:medium;line-height:normal;font-family:sans-serif;text-indent:0;text-align:start;text-decoration:none;text-decoration-line:none;text-decoration-style:solid;text-decoration-color:#000000;letter-spacing:normal;word-spacing:normal;text-transform:none;direction:ltr;block-progression:tb;writing-mode:lr-tb;baseline-shift:baseline;text-anchor:start;white-space:normal;clip-rule:nonzero;display:inline;overflow:visible;visibility:visible;opacity:1;isolation:auto;mix-blend-mode:normal;color-interpolation:sRGB;color-interpolation-filters:linearRGB;solid-color:#000000;solid-opacity:1;fill:#000000;fill-opacity:1;fill-rule:evenodd;stroke:none;stroke-width:1px;stroke-linecap:butt;stroke-linejoin:miter;stroke-miterlimit:4;stroke-dasharray:none;stroke-dashoffset:0;stroke-opacity:1;color-rendering:auto;image-rendering:auto;shape-rendering:auto;text-rendering:auto;enable-background:accumulate"
       d="m 316.93164,305.44336 c 0,0 -14.35423,117.04607 -48.88281,260.33789 -34.52858,143.29182 -89.25075,312.82473 -169.873049,417.70508 l -0.61914,0.80469 1.013671,0 436.763668,0.2871 -0.66015,-0.8164 C 445.26706,873.21617 391.04967,703.62541 359.21875,561.68359 327.38783,419.74177 317.92773,305.46289 317.92773,305.46289 l -0.99609,-0.0195 z m 0.41797,4.37109 c 0.98677,11.27136 10.73758,117.61945 40.89258,252.08789 31.77111,141.67509 85.81483,310.87769 175.03125,421.67383 L 99.552734,983.29102 C 180.03221,878.11399 234.5636,709.01407 269.02148,566.01562 301.77789,430.07825 315.92633,321.06953 317.34961,309.81445 Z"
       id="path3338"
       inkscape:connector-curvature="0" />
    <path
       style="fill:#000000;fill-opacity:1"
       d="m 101.83374,982.27575 c 0,-0.467 3.76167,-6.092 8.35925,-12.5 82.14118,-114.48636 154.95741,-333.43443 198.07035,-595.56942 3.45586,-21.01232 6.72275,-42.08755 7.25972,-46.83384 0.53698,-4.7463 1.18683,-8.41913 1.4441,-8.16186 0.25727,0.25727 1.80508,11.68964 3.43958,25.40527 6.49288,54.48381 16.14383,114.8063 27.18819,169.9375 39.439,196.87152 99.49187,354.60919 172.27287,452.5 l 11.94897,16.07143 -214.99151,0 c -118.24533,0 -214.99152,-0.38208 -214.99152,-0.84908 z"
       id="path4187"
       inkscape:connector-curvature="0" />
  </g>
</svg>
