  0
SECTION
  2
HEADER
  9
$ACADVER
  1
AC1009
  9
$EXTMIN
 10
0.0
 20
0.0
 30
0.0
  9
$EXTMAX
 10
1000.0
 20
1000.0
 30
0.0
  9
$FILLMODE
 70
 0
  9
$SPLFRAME
 70
 1
  0
ENDSEC
  0
SECTION
  2
TABLES
  0
TABLE
  2
LAYER
 70
1
  0
LAYER
  2
0
 70
     0
 62
     7
  6
CONTINUOUS
  0
ENDTAB
  0
ENDSEC
  0
SECTION
  2
ENTITIES
  0
LINE
  8
0
 62
     0
 10
0.14745
 20
0.143316
 30
0.0
 11
41.6747
 21
0.545705
 31
0.0
  0
LINE
  8
0
 62
     0
 10
41.6747
 20
0.545705
 30
0.0
 11
41.6638
 21
0.866786
 31
0.0
  0
LINE
  8
0
 62
     0
 10
41.6638
 20
0.866786
 30
0.0
 11
41.6334
 21
1.79972
 31
0.0
  0
LINE
  8
0
 62
     0
 10
41.6334
 20
1.79972
 30
0.0
 11
41.5794
 21
3.30454
 31
0.0
  0
LINE
  8
0
 62
     0
 10
41.5794
 20
3.30454
 30
0.0
 11
41.5011
 21
5.34127
 31
0.0
  0
LINE
  8
0
 62
     0
 10
41.5011
 20
5.34127
 30
0.0
 11
41.3964
 21
7.8686
 31
0.0
  0
LINE
  8
0
 62
     0
 10
41.3964
 20
7.8686
 30
0.0
 11
41.2641
 21
10.8438
 31
0.0
  0
LINE
  8
0
 62
     0
 10
41.2641
 20
10.8438
 30
0.0
 11
41.1028
 21
14.2282
 31
0.0
  0
LINE
  8
0
 62
     0
 10
41.1028
 20
14.2282
 30
0.0
 11
40.9085
 21
17.9792
 31
0.0
  0
LINE
  8
0
 62
     0
 10
40.9085
 20
17.9792
 30
0.0
 11
40.6823
 21
22.0582
 31
0.0
  0
LINE
  8
0
 62
     0
 10
40.6823
 20
22.0582
 30
0.0
 11
40.4206
 21
26.4211
 31
0.0
  0
LINE
  8
0
 62
     0
 10
40.4206
 20
26.4211
 30
0.0
 11
40.1214
 21
31.0293
 31
0.0
  0
LINE
  8
0
 62
     0
 10
40.1214
 20
31.0293
 30
0.0
 11
39.7852
 21
35.8415
 31
0.0
  0
LINE
  8
0
 62
     0
 10
39.7852
 20
35.8415
 30
0.0
 11
39.4092
 21
40.816
 31
0.0
  0
LINE
  8
0
 62
     0
 10
39.4092
 20
40.816
 30
0.0
 11
38.9901
 21
45.9133
 31
0.0
  0
LINE
  8
0
 62
     0
 10
38.9901
 20
45.9133
 30
0.0
 11
38.5286
 21
51.0907
 31
0.0
  0
LINE
  8
0
 62
     0
 10
38.5286
 20
51.0907
 30
0.0
 11
38.0199
 21
56.3079
 31
0.0
  0
LINE
  8
0
 62
     0
 10
38.0199
 20
56.3079
 30
0.0
 11
37.4661
 21
61.5251
 31
0.0
  0
LINE
  8
0
 62
     0
 10
37.4661
 20
61.5251
 30
0.0
 11
36.8625
 21
66.6997
 31
0.0
  0
LINE
  8
0
 62
     0
 10
36.8625
 20
66.6997
 30
0.0
 11
36.2095
 21
71.7917
 31
0.0
  0
LINE
  8
0
 62
     0
 10
36.2095
 20
71.7917
 30
0.0
 11
35.5025
 21
76.7595
 31
0.0
  0
LINE
  8
0
 62
     0
 10
35.5025
 20
76.7595
 30
0.0
 11
34.7431
 21
81.5619
 31
0.0
  0
LINE
  8
0
 62
     0
 10
34.7431
 20
81.5619
 30
0.0
 11
33.9273
 21
86.1603
 31
0.0
  0
LINE
  8
0
 62
     0
 10
33.9273
 20
86.1603
 30
0.0
 11
33.0536
 21
90.5108
 31
0.0
  0
LINE
  8
0
 62
     0
 10
33.0536
 20
90.5108
 30
0.0
 11
32.1207
 21
94.5748
 31
0.0
  0
LINE
  8
0
 62
     0
 10
32.1207
 20
94.5748
 30
0.0
 11
31.1271
 21
98.3107
 31
0.0
  0
LINE
  8
0
 62
     0
 10
31.1271
 20
98.3107
 30
0.0
 11
30.0716
 21
101.676
 31
0.0
  0
LINE
  8
0
 62
     0
 10
30.0716
 20
101.676
 30
0.0
 11
28.9512
 21
104.632
 31
0.0
  0
LINE
  8
0
 62
     0
 10
28.9512
 20
104.632
 30
0.0
 11
27.7647
 21
107.135
 31
0.0
  0
LINE
  8
0
 62
     0
 10
27.7647
 20
107.135
 30
0.0
 11
26.5107
 21
109.149
 31
0.0
  0
LINE
  8
0
 62
     0
 10
26.5107
 20
109.149
 30
0.0
 11
25.1864
 21
110.628
 31
0.0
  0
LINE
  8
0
 62
     0
 10
25.1864
 20
110.628
 30
0.0
 11
23.7905
 21
111.533
 31
0.0
  0
LINE
  8
0
 62
     0
 10
23.7905
 20
111.533
 30
0.0
 11
22.3228
 21
111.822
 31
0.0
  0
LINE
  8
0
 62
     0
 10
22.3228
 20
111.822
 30
0.0
 11
20.767
 21
111.472
 31
0.0
  0
LINE
  8
0
 62
     0
 10
20.767
 20
111.472
 30
0.0
 11
19.2801
 21
110.512
 31
0.0
  0
LINE
  8
0
 62
     0
 10
19.2801
 20
110.512
 30
0.0
 11
17.8594
 21
108.982
 31
0.0
  0
LINE
  8
0
 62
     0
 10
17.8594
 20
108.982
 30
0.0
 11
16.5034
 21
106.925
 31
0.0
  0
LINE
  8
0
 62
     0
 10
16.5034
 20
106.925
 30
0.0
 11
15.2108
 21
104.38
 31
0.0
  0
LINE
  8
0
 62
     0
 10
15.2108
 20
104.38
 30
0.0
 11
13.9816
 21
101.388
 31
0.0
  0
LINE
  8
0
 62
     0
 10
13.9816
 20
101.388
 30
0.0
 11
12.8144
 21
97.9897
 31
0.0
  0
LINE
  8
0
 62
     0
 10
12.8144
 20
97.9897
 30
0.0
 11
11.7064
 21
94.2262
 31
0.0
  0
LINE
  8
0
 62
     0
 10
11.7064
 20
94.2262
 30
0.0
 11
10.6577
 21
90.139
 31
0.0
  0
LINE
  8
0
 62
     0
 10
10.6577
 20
90.139
 30
0.0
 11
9.66833
 21
85.7663
 31
0.0
  0
LINE
  8
0
 62
     0
 10
9.66833
 20
85.7663
 30
0.0
 11
8.73538
 21
81.1512
 31
0.0
  0
LINE
  8
0
 62
     0
 10
8.73538
 20
81.1512
 30
0.0
 11
7.85756
 21
76.3351
 31
0.0
  0
LINE
  8
0
 62
     0
 10
7.85756
 20
76.3351
 30
0.0
 11
7.03351
 21
71.355
 31
0.0
  0
LINE
  8
0
 62
     0
 10
7.03351
 20
71.355
 30
0.0
 11
6.26318
 21
66.2548
 31
0.0
  0
LINE
  8
0
 62
     0
 10
6.26318
 20
66.2548
 30
0.0
 11
5.54524
 21
61.0732
 31
0.0
  0
LINE
  8
0
 62
     0
 10
5.54524
 20
61.0732
 30
0.0
 11
4.87825
 21
55.8532
 31
0.0
  0
LINE
  8
0
 62
     0
 10
4.87825
 20
55.8532
 30
0.0
 11
4.26089
 21
50.6331
 31
0.0
  0
LINE
  8
0
 62
     0
 10
4.26089
 20
50.6331
 30
0.0
 11
3.69175
 21
45.4561
 31
0.0
  0
LINE
  8
0
 62
     0
 10
3.69175
 20
45.4561
 30
0.0
 11
3.16949
 21
40.3599
 31
0.0
  0
LINE
  8
0
 62
     0
 10
3.16949
 20
40.3599
 30
0.0
 11
2.69407
 21
35.3882
 31
0.0
  0
LINE
  8
0
 62
     0
 10
2.69407
 20
35.3882
 30
0.0
 11
2.26274
 21
30.58
 31
0.0
  0
LINE
  8
0
 62
     0
 10
2.26274
 20
30.58
 30
0.0
 11
1.87551
 21
25.976
 31
0.0
  0
LINE
  8
0
 62
     0
 10
1.87551
 20
25.976
 30
0.0
 11
1.531
 21
21.6173
 31
0.0
  0
LINE
  8
0
 62
     0
 10
1.531
 20
21.6173
 30
0.0
 11
1.22783
 21
17.5452
 31
0.0
  0
LINE
  8
0
 62
     0
 10
1.22783
 20
17.5452
 30
0.0
 11
0.964629
 21
13.7997
 31
0.0
  0
LINE
  8
0
 62
     0
 10
0.964629
 20
13.7997
 30
0.0
 11
0.741384
 21
10.4207
 31
0.0
  0
LINE
  8
0
 62
     0
 10
0.741384
 20
10.4207
 30
0.0
 11
0.55397
 21
7.44968
 31
0.0
  0
LINE
  8
0
 62
     0
 10
0.55397
 20
7.44968
 30
0.0
 11
0.403765
 21
4.92788
 31
0.0
  0
LINE
  8
0
 62
     0
 10
0.403765
 20
4.92788
 30
0.0
 11
0.289388
 21
2.89664
 31
0.0
  0
LINE
  8
0
 62
     0
 10
0.289388
 20
2.89664
 30
0.0
 11
0.209462
 21
1.39458
 31
0.0
  0
LINE
  8
0
 62
     0
 10
0.209462
 20
1.39458
 30
0.0
 11
0.162609
 21
0.463021
 31
0.0
  0
LINE
  8
0
 62
     0
 10
0.162609
 20
0.463021
 30
0.0
 11
0.14745
 21
0.143316
 31
0.0
  0
ENDSEC
  0
EOF
