  0
SECTION
  2
HEADER
  9
$ACADVER
  1
AC1009
  9
$EXTMIN
 10
0.0
 20
0.0
 30
0.0
  9
$EXTMAX
 10
1000.0
 20
1000.0
 30
0.0
  9
$FILLMODE
 70
 0
  9
$SPLFRAME
 70
 1
  0
ENDSEC
  0
SECTION
  2
TABLES
  0
TABLE
  2
LAYER
 70
1
  0
LAYER
  2
0
 70
     0
 62
     7
  6
CONTINUOUS
  0
ENDTAB
  0
ENDSEC
  0
SECTION
  2
ENTITIES
  0
LINE
  8
0
 62
     33
 10
0.858516
 20
51.2466
 30
0.0
 11
0.143316
 21
0.143316
 31
0.0
  0
LINE
  8
0
 62
     33
 10
0.143316
 20
0.143316
 30
0.0
 11
38.7396
 21
0.858516
 31
0.0
  0
LINE
  8
0
 62
     33
 10
38.7396
 20
0.858516
 30
0.0
 11
38.6084
 21
1.13688
 31
0.0
  0
LINE
  8
0
 62
     33
 10
38.6084
 20
1.13688
 30
0.0
 11
38.2517
 21
1.94579
 31
0.0
  0
LINE
  8
0
 62
     33
 10
38.2517
 20
1.94579
 30
0.0
 11
37.7169
 21
3.24528
 31
0.0
  0
LINE
  8
0
 62
     33
 10
37.7169
 20
3.24528
 30
0.0
 11
37.0526
 21
4.99678
 31
0.0
  0
LINE
  8
0
 62
     33
 10
37.0526
 20
4.99678
 30
0.0
 11
36.3086
 21
7.1603
 31
0.0
  0
LINE
  8
0
 62
     33
 10
36.3086
 20
7.1603
 30
0.0
 11
35.5353
 21
9.69726
 31
0.0
  0
LINE
  8
0
 62
     33
 10
35.5353
 20
9.69726
 30
0.0
 11
34.7803
 21
12.5691
 31
0.0
  0
LINE
  8
0
 62
     33
 10
34.7803
 20
12.5691
 30
0.0
 11
34.0927
 21
15.7345
 31
0.0
  0
LINE
  8
0
 62
     33
 10
34.0927
 20
15.7345
 30
0.0
 11
33.5235
 21
19.1561
 31
0.0
  0
LINE
  8
0
 62
     33
 10
33.5235
 20
19.1561
 30
0.0
 11
33.1198
 21
22.7928
 31
0.0
  0
LINE
  8
0
 62
     33
 10
33.1198
 20
22.7928
 30
0.0
 11
32.9324
 21
26.6072
 31
0.0
  0
LINE
  8
0
 62
     33
 10
32.9324
 20
26.6072
 30
0.0
 11
33.0095
 21
30.5594
 31
0.0
  0
LINE
  8
0
 62
     33
 10
33.0095
 20
30.5594
 30
0.0
 11
33.4009
 21
34.6094
 31
0.0
  0
LINE
  8
0
 62
     33
 10
33.4009
 20
34.6094
 30
0.0
 11
34.156
 21
38.7188
 31
0.0
  0
LINE
  8
0
 62
     33
 10
34.156
 20
38.7188
 30
0.0
 11
35.3219
 21
42.8487
 31
0.0
  0
LINE
  8
0
 62
     33
 10
35.3219
 20
42.8487
 30
0.0
 11
36.9521
 21
46.9579
 31
0.0
  0
LINE
  8
0
 62
     33
 10
36.9521
 20
46.9579
 30
0.0
 11
37.9497
 21
49.0305
 31
0.0
  0
LINE
  8
0
 62
     33
 10
37.9497
 20
49.0305
 30
0.0
 11
39.0592
 21
51.1623
 31
0.0
  0
LINE
  8
0
 62
     33
 10
39.0592
 20
51.1623
 30
0.0
 11
40.2636
 21
53.3658
 31
0.0
  0
LINE
  8
0
 62
     33
 10
40.2636
 20
53.3658
 30
0.0
 11
41.5452
 21
55.6507
 31
0.0
  0
LINE
  8
0
 62
     33
 10
41.5452
 20
55.6507
 30
0.0
 11
42.8872
 21
58.0238
 31
0.0
  0
LINE
  8
0
 62
     33
 10
42.8872
 20
58.0238
 30
0.0
 11
44.2764
 21
60.4957
 31
0.0
  0
LINE
  8
0
 62
     33
 10
44.2764
 20
60.4957
 30
0.0
 11
45.6942
 21
63.0784
 31
0.0
  0
LINE
  8
0
 62
     33
 10
45.6942
 20
63.0784
 30
0.0
 11
47.1248
 21
65.7779
 31
0.0
  0
LINE
  8
0
 62
     33
 10
47.1248
 20
65.7779
 30
0.0
 11
48.5525
 21
68.6043
 31
0.0
  0
LINE
  8
0
 62
     33
 10
48.5525
 20
68.6043
 30
0.0
 11
49.9593
 21
71.5698
 31
0.0
  0
LINE
  8
0
 62
     33
 10
49.9593
 20
71.5698
 30
0.0
 11
51.332
 21
74.6799
 31
0.0
  0
LINE
  8
0
 62
     33
 10
51.332
 20
74.6799
 30
0.0
 11
52.6507
 21
77.9473
 31
0.0
  0
LINE
  8
0
 62
     33
 10
52.6507
 20
77.9473
 30
0.0
 11
53.902
 21
81.3788
 31
0.0
  0
LINE
  8
0
 62
     33
 10
53.902
 20
81.3788
 30
0.0
 11
55.0693
 21
84.9863
 31
0.0
  0
LINE
  8
0
 62
     33
 10
55.0693
 20
84.9863
 30
0.0
 11
56.1344
 21
88.7786
 31
0.0
  0
LINE
  8
0
 62
     33
 10
56.1344
 20
88.7786
 30
0.0
 11
57.0826
 21
92.764
 31
0.0
  0
LINE
  8
0
 62
     33
 10
57.0826
 20
92.764
 30
0.0
 11
57.8968
 21
96.9532
 31
0.0
  0
LINE
  8
0
 62
     33
 10
57.8968
 20
96.9532
 30
0.0
 11
58.5611
 21
101.355
 31
0.0
  0
LINE
  8
0
 62
     33
 10
58.5611
 20
101.355
 30
0.0
 11
59.0599
 21
105.978
 31
0.0
  0
LINE
  8
0
 62
     33
 10
59.0599
 20
105.978
 30
0.0
 11
59.3771
 21
110.834
 31
0.0
  0
LINE
  8
0
 62
     33
 10
59.3771
 20
110.834
 30
0.0
 11
59.4942
 21
115.93
 31
0.0
  0
LINE
  8
0
 62
     33
 10
59.4942
 20
115.93
 30
0.0
 11
59.3975
 21
121.278
 31
0.0
  0
LINE
  8
0
 62
     33
 10
59.3975
 20
121.278
 30
0.0
 11
59.0695
 21
126.886
 31
0.0
  0
LINE
  8
0
 62
     33
 10
59.0695
 20
126.886
 30
0.0
 11
58.4937
 21
132.763
 31
0.0
  0
LINE
  8
0
 62
     33
 10
58.4937
 20
132.763
 30
0.0
 11
57.6545
 21
138.919
 31
0.0
  0
LINE
  8
0
 62
     33
 10
57.6545
 20
138.919
 30
0.0
 11
56.534
 21
145.364
 31
0.0
  0
LINE
  8
0
 62
     33
 10
56.534
 20
145.364
 30
0.0
 11
55.1187
 21
152.106
 31
0.0
  0
LINE
  8
0
 62
     33
 10
55.1187
 20
152.106
 30
0.0
 11
53.3908
 21
159.156
 31
0.0
  0
LINE
  8
0
 62
     33
 10
53.3908
 20
159.156
 30
0.0
 11
51.3334
 21
166.523
 31
0.0
  0
LINE
  8
0
 62
     33
 10
51.3334
 20
166.523
 30
0.0
 11
48.9313
 21
174.217
 31
0.0
  0
LINE
  8
0
 62
     33
 10
48.9313
 20
174.217
 30
0.0
 11
46.1684
 21
182.246
 31
0.0
  0
LINE
  8
0
 62
     33
 10
46.1684
 20
182.246
 30
0.0
 11
43.028
 21
190.62
 31
0.0
  0
LINE
  8
0
 62
     33
 10
43.028
 20
190.62
 30
0.0
 11
42.4575
 21
190.816
 31
0.0
  0
LINE
  8
0
 62
     33
 10
42.4575
 20
190.816
 30
0.0
 11
41.7354
 21
189.024
 31
0.0
  0
LINE
  8
0
 62
     33
 10
41.7354
 20
189.024
 30
0.0
 11
40.8397
 21
185.513
 31
0.0
  0
LINE
  8
0
 62
     33
 10
40.8397
 20
185.513
 30
0.0
 11
39.751
 21
180.551
 31
0.0
  0
LINE
  8
0
 62
     33
 10
39.751
 20
180.551
 30
0.0
 11
38.4528
 21
174.403
 31
0.0
  0
LINE
  8
0
 62
     33
 10
38.4528
 20
174.403
 30
0.0
 11
36.9231
 21
167.341
 31
0.0
  0
LINE
  8
0
 62
     33
 10
36.9231
 20
167.341
 30
0.0
 11
35.1455
 21
159.629
 31
0.0
  0
LINE
  8
0
 62
     33
 10
35.1455
 20
159.629
 30
0.0
 11
33.0991
 21
151.536
 31
0.0
  0
LINE
  8
0
 62
     33
 10
33.0991
 20
151.536
 30
0.0
 11
30.7661
 21
143.33
 31
0.0
  0
LINE
  8
0
 62
     33
 10
30.7661
 20
143.33
 30
0.0
 11
28.1258
 21
135.279
 31
0.0
  0
LINE
  8
0
 62
     33
 10
28.1258
 20
135.279
 30
0.0
 11
25.1616
 21
127.651
 31
0.0
  0
LINE
  8
0
 62
     33
 10
25.1616
 20
127.651
 30
0.0
 11
21.8515
 21
120.712
 31
0.0
  0
LINE
  8
0
 62
     33
 10
21.8515
 20
120.712
 30
0.0
 11
18.1791
 21
114.73
 31
0.0
  0
LINE
  8
0
 62
     33
 10
18.1791
 20
114.73
 30
0.0
 11
14.1235
 21
109.974
 31
0.0
  0
LINE
  8
0
 62
     33
 10
14.1235
 20
109.974
 30
0.0
 11
9.66555
 21
106.711
 31
0.0
  0
LINE
  8
0
 62
     33
 10
9.66555
 20
106.711
 30
0.0
 11
4.78868
 21
105.209
 31
0.0
  0
LINE
  8
0
 62
     33
 10
4.78868
 20
105.209
 30
0.0
 11
5.00366
 21
104.891
 31
0.0
  0
LINE
  8
0
 62
     33
 10
5.00366
 20
104.891
 30
0.0
 11
5.58655
 21
103.96
 31
0.0
  0
LINE
  8
0
 62
     33
 10
5.58655
 20
103.96
 30
0.0
 11
6.44645
 21
102.465
 31
0.0
  0
LINE
  8
0
 62
     33
 10
6.44645
 20
102.465
 30
0.0
 11
7.49102
 21
100.446
 31
0.0
  0
LINE
  8
0
 62
     33
 10
7.49102
 20
100.446
 30
0.0
 11
8.62651
 21
97.948
 31
0.0
  0
LINE
  8
0
 62
     33
 10
8.62651
 20
97.948
 30
0.0
 11
9.76341
 21
95.0143
 31
0.0
  0
LINE
  8
0
 62
     33
 10
9.76341
 20
95.0143
 30
0.0
 11
10.8079
 21
91.6877
 31
0.0
  0
LINE
  8
0
 62
     33
 10
10.8079
 20
91.6877
 30
0.0
 11
11.6678
 21
88.011
 31
0.0
  0
LINE
  8
0
 62
     33
 10
11.6678
 20
88.011
 30
0.0
 11
12.2508
 21
84.0299
 31
0.0
  0
LINE
  8
0
 62
     33
 10
12.2508
 20
84.0299
 30
0.0
 11
12.4657
 21
79.7856
 31
0.0
  0
LINE
  8
0
 62
     33
 10
12.4657
 20
79.7856
 30
0.0
 11
12.2204
 21
75.3223
 31
0.0
  0
LINE
  8
0
 62
     33
 10
12.2204
 20
75.3223
 30
0.0
 11
11.4226
 21
70.685
 31
0.0
  0
LINE
  8
0
 62
     33
 10
11.4226
 20
70.685
 30
0.0
 11
9.97839
 21
65.9144
 31
0.0
  0
LINE
  8
0
 62
     33
 10
9.97839
 20
65.9144
 30
0.0
 11
7.79833
 21
61.0553
 31
0.0
  0
LINE
  8
0
 62
     33
 10
7.79833
 20
61.0553
 30
0.0
 11
4.78868
 21
56.1523
 31
0.0
  0
LINE
  8
0
 62
     33
 10
4.78868
 20
56.1523
 30
0.0
 11
0.858516
 21
51.2466
 31
0.0
  0
LINE
  8
0
 62
     0
 10
0.858516
 20
51.2466
 30
0.0
 11
0.143316
 21
0.143316
 31
0.0
  0
LINE
  8
0
 62
     0
 10
0.143316
 20
0.143316
 30
0.0
 11
38.7396
 21
0.858516
 31
0.0
  0
LINE
  8
0
 62
     0
 10
38.7396
 20
0.858516
 30
0.0
 11
38.6084
 21
1.13688
 31
0.0
  0
LINE
  8
0
 62
     0
 10
38.6084
 20
1.13688
 30
0.0
 11
38.2517
 21
1.94579
 31
0.0
  0
LINE
  8
0
 62
     0
 10
38.2517
 20
1.94579
 30
0.0
 11
37.7169
 21
3.24528
 31
0.0
  0
LINE
  8
0
 62
     0
 10
37.7169
 20
3.24528
 30
0.0
 11
37.0526
 21
4.99678
 31
0.0
  0
LINE
  8
0
 62
     0
 10
37.0526
 20
4.99678
 30
0.0
 11
36.3086
 21
7.1603
 31
0.0
  0
LINE
  8
0
 62
     0
 10
36.3086
 20
7.1603
 30
0.0
 11
35.5353
 21
9.69726
 31
0.0
  0
LINE
  8
0
 62
     0
 10
35.5353
 20
9.69726
 30
0.0
 11
34.7803
 21
12.5691
 31
0.0
  0
LINE
  8
0
 62
     0
 10
34.7803
 20
12.5691
 30
0.0
 11
34.0927
 21
15.7345
 31
0.0
  0
LINE
  8
0
 62
     0
 10
34.0927
 20
15.7345
 30
0.0
 11
33.5235
 21
19.1561
 31
0.0
  0
LINE
  8
0
 62
     0
 10
33.5235
 20
19.1561
 30
0.0
 11
33.1198
 21
22.7928
 31
0.0
  0
LINE
  8
0
 62
     0
 10
33.1198
 20
22.7928
 30
0.0
 11
32.9324
 21
26.6072
 31
0.0
  0
LINE
  8
0
 62
     0
 10
32.9324
 20
26.6072
 30
0.0
 11
33.0095
 21
30.5594
 31
0.0
  0
LINE
  8
0
 62
     0
 10
33.0095
 20
30.5594
 30
0.0
 11
33.4009
 21
34.6094
 31
0.0
  0
LINE
  8
0
 62
     0
 10
33.4009
 20
34.6094
 30
0.0
 11
34.156
 21
38.7188
 31
0.0
  0
LINE
  8
0
 62
     0
 10
34.156
 20
38.7188
 30
0.0
 11
35.3219
 21
42.8487
 31
0.0
  0
LINE
  8
0
 62
     0
 10
35.3219
 20
42.8487
 30
0.0
 11
36.9521
 21
46.9579
 31
0.0
  0
LINE
  8
0
 62
     0
 10
36.9521
 20
46.9579
 30
0.0
 11
37.9497
 21
49.0305
 31
0.0
  0
LINE
  8
0
 62
     0
 10
37.9497
 20
49.0305
 30
0.0
 11
39.0592
 21
51.1623
 31
0.0
  0
LINE
  8
0
 62
     0
 10
39.0592
 20
51.1623
 30
0.0
 11
40.2636
 21
53.3658
 31
0.0
  0
LINE
  8
0
 62
     0
 10
40.2636
 20
53.3658
 30
0.0
 11
41.5452
 21
55.6507
 31
0.0
  0
LINE
  8
0
 62
     0
 10
41.5452
 20
55.6507
 30
0.0
 11
42.8872
 21
58.0238
 31
0.0
  0
LINE
  8
0
 62
     0
 10
42.8872
 20
58.0238
 30
0.0
 11
44.2764
 21
60.4957
 31
0.0
  0
LINE
  8
0
 62
     0
 10
44.2764
 20
60.4957
 30
0.0
 11
45.6942
 21
63.0784
 31
0.0
  0
LINE
  8
0
 62
     0
 10
45.6942
 20
63.0784
 30
0.0
 11
47.1248
 21
65.7779
 31
0.0
  0
LINE
  8
0
 62
     0
 10
47.1248
 20
65.7779
 30
0.0
 11
48.5525
 21
68.6043
 31
0.0
  0
LINE
  8
0
 62
     0
 10
48.5525
 20
68.6043
 30
0.0
 11
49.9593
 21
71.5698
 31
0.0
  0
LINE
  8
0
 62
     0
 10
49.9593
 20
71.5698
 30
0.0
 11
51.332
 21
74.6799
 31
0.0
  0
LINE
  8
0
 62
     0
 10
51.332
 20
74.6799
 30
0.0
 11
52.6507
 21
77.9473
 31
0.0
  0
LINE
  8
0
 62
     0
 10
52.6507
 20
77.9473
 30
0.0
 11
53.902
 21
81.3788
 31
0.0
  0
LINE
  8
0
 62
     0
 10
53.902
 20
81.3788
 30
0.0
 11
55.0693
 21
84.9863
 31
0.0
  0
LINE
  8
0
 62
     0
 10
55.0693
 20
84.9863
 30
0.0
 11
56.1344
 21
88.7786
 31
0.0
  0
LINE
  8
0
 62
     0
 10
56.1344
 20
88.7786
 30
0.0
 11
57.0826
 21
92.764
 31
0.0
  0
LINE
  8
0
 62
     0
 10
57.0826
 20
92.764
 30
0.0
 11
57.8968
 21
96.9532
 31
0.0
  0
LINE
  8
0
 62
     0
 10
57.8968
 20
96.9532
 30
0.0
 11
58.5611
 21
101.355
 31
0.0
  0
LINE
  8
0
 62
     0
 10
58.5611
 20
101.355
 30
0.0
 11
59.0599
 21
105.978
 31
0.0
  0
LINE
  8
0
 62
     0
 10
59.0599
 20
105.978
 30
0.0
 11
59.3771
 21
110.834
 31
0.0
  0
LINE
  8
0
 62
     0
 10
59.3771
 20
110.834
 30
0.0
 11
59.4942
 21
115.93
 31
0.0
  0
LINE
  8
0
 62
     0
 10
59.4942
 20
115.93
 30
0.0
 11
59.3975
 21
121.278
 31
0.0
  0
LINE
  8
0
 62
     0
 10
59.3975
 20
121.278
 30
0.0
 11
59.0695
 21
126.886
 31
0.0
  0
LINE
  8
0
 62
     0
 10
59.0695
 20
126.886
 30
0.0
 11
58.4937
 21
132.763
 31
0.0
  0
LINE
  8
0
 62
     0
 10
58.4937
 20
132.763
 30
0.0
 11
57.6545
 21
138.919
 31
0.0
  0
LINE
  8
0
 62
     0
 10
57.6545
 20
138.919
 30
0.0
 11
56.534
 21
145.364
 31
0.0
  0
LINE
  8
0
 62
     0
 10
56.534
 20
145.364
 30
0.0
 11
55.1187
 21
152.106
 31
0.0
  0
LINE
  8
0
 62
     0
 10
55.1187
 20
152.106
 30
0.0
 11
53.3908
 21
159.156
 31
0.0
  0
LINE
  8
0
 62
     0
 10
53.3908
 20
159.156
 30
0.0
 11
51.3334
 21
166.523
 31
0.0
  0
LINE
  8
0
 62
     0
 10
51.3334
 20
166.523
 30
0.0
 11
48.9313
 21
174.217
 31
0.0
  0
LINE
  8
0
 62
     0
 10
48.9313
 20
174.217
 30
0.0
 11
46.1684
 21
182.246
 31
0.0
  0
LINE
  8
0
 62
     0
 10
46.1684
 20
182.246
 30
0.0
 11
43.028
 21
190.62
 31
0.0
  0
LINE
  8
0
 62
     0
 10
43.028
 20
190.62
 30
0.0
 11
42.4575
 21
190.816
 31
0.0
  0
LINE
  8
0
 62
     0
 10
42.4575
 20
190.816
 30
0.0
 11
41.7354
 21
189.024
 31
0.0
  0
LINE
  8
0
 62
     0
 10
41.7354
 20
189.024
 30
0.0
 11
40.8397
 21
185.513
 31
0.0
  0
LINE
  8
0
 62
     0
 10
40.8397
 20
185.513
 30
0.0
 11
39.751
 21
180.551
 31
0.0
  0
LINE
  8
0
 62
     0
 10
39.751
 20
180.551
 30
0.0
 11
38.4528
 21
174.403
 31
0.0
  0
LINE
  8
0
 62
     0
 10
38.4528
 20
174.403
 30
0.0
 11
36.9231
 21
167.341
 31
0.0
  0
LINE
  8
0
 62
     0
 10
36.9231
 20
167.341
 30
0.0
 11
35.1455
 21
159.629
 31
0.0
  0
LINE
  8
0
 62
     0
 10
35.1455
 20
159.629
 30
0.0
 11
33.0991
 21
151.536
 31
0.0
  0
LINE
  8
0
 62
     0
 10
33.0991
 20
151.536
 30
0.0
 11
30.7661
 21
143.33
 31
0.0
  0
LINE
  8
0
 62
     0
 10
30.7661
 20
143.33
 30
0.0
 11
28.1258
 21
135.279
 31
0.0
  0
LINE
  8
0
 62
     0
 10
28.1258
 20
135.279
 30
0.0
 11
25.1616
 21
127.651
 31
0.0
  0
LINE
  8
0
 62
     0
 10
25.1616
 20
127.651
 30
0.0
 11
21.8515
 21
120.712
 31
0.0
  0
LINE
  8
0
 62
     0
 10
21.8515
 20
120.712
 30
0.0
 11
18.1791
 21
114.73
 31
0.0
  0
LINE
  8
0
 62
     0
 10
18.1791
 20
114.73
 30
0.0
 11
14.1235
 21
109.974
 31
0.0
  0
LINE
  8
0
 62
     0
 10
14.1235
 20
109.974
 30
0.0
 11
9.66555
 21
106.711
 31
0.0
  0
LINE
  8
0
 62
     0
 10
9.66555
 20
106.711
 30
0.0
 11
4.78868
 21
105.209
 31
0.0
  0
LINE
  8
0
 62
     0
 10
4.78868
 20
105.209
 30
0.0
 11
5.00366
 21
104.891
 31
0.0
  0
LINE
  8
0
 62
     0
 10
5.00366
 20
104.891
 30
0.0
 11
5.58655
 21
103.96
 31
0.0
  0
LINE
  8
0
 62
     0
 10
5.58655
 20
103.96
 30
0.0
 11
6.44645
 21
102.465
 31
0.0
  0
LINE
  8
0
 62
     0
 10
6.44645
 20
102.465
 30
0.0
 11
7.49102
 21
100.446
 31
0.0
  0
LINE
  8
0
 62
     0
 10
7.49102
 20
100.446
 30
0.0
 11
8.62651
 21
97.948
 31
0.0
  0
LINE
  8
0
 62
     0
 10
8.62651
 20
97.948
 30
0.0
 11
9.76341
 21
95.0143
 31
0.0
  0
LINE
  8
0
 62
     0
 10
9.76341
 20
95.0143
 30
0.0
 11
10.8079
 21
91.6877
 31
0.0
  0
LINE
  8
0
 62
     0
 10
10.8079
 20
91.6877
 30
0.0
 11
11.6678
 21
88.011
 31
0.0
  0
LINE
  8
0
 62
     0
 10
11.6678
 20
88.011
 30
0.0
 11
12.2508
 21
84.0299
 31
0.0
  0
LINE
  8
0
 62
     0
 10
12.2508
 20
84.0299
 30
0.0
 11
12.4657
 21
79.7856
 31
0.0
  0
LINE
  8
0
 62
     0
 10
12.4657
 20
79.7856
 30
0.0
 11
12.2204
 21
75.3223
 31
0.0
  0
LINE
  8
0
 62
     0
 10
12.2204
 20
75.3223
 30
0.0
 11
11.4226
 21
70.685
 31
0.0
  0
LINE
  8
0
 62
     0
 10
11.4226
 20
70.685
 30
0.0
 11
9.97839
 21
65.9144
 31
0.0
  0
LINE
  8
0
 62
     0
 10
9.97839
 20
65.9144
 30
0.0
 11
7.79833
 21
61.0553
 31
0.0
  0
LINE
  8
0
 62
     0
 10
7.79833
 20
61.0553
 30
0.0
 11
4.78868
 21
56.1523
 31
0.0
  0
LINE
  8
0
 62
     0
 10
4.78868
 20
56.1523
 30
0.0
 11
0.858516
 21
51.2466
 31
0.0
  0
LINE
  8
0
 62
     33
 10
0.63803
 20
16.717
 30
0.0
 11
0.741384
 21
23.7174
 31
0.0
  0
LINE
  8
0
 62
     33
 10
0.741384
 20
23.7174
 30
0.0
 11
0.858516
 21
30.824
 31
0.0
  0
LINE
  8
0
 62
     33
 10
0.858516
 20
30.824
 30
0.0
 11
0.975653
 21
37.2057
 31
0.0
  0
LINE
  8
0
 62
     33
 10
0.975653
 20
37.2057
 30
0.0
 11
1.079
 21
42.0317
 31
0.0
  0
LINE
  8
0
 62
     33
 10
1.079
 20
42.0317
 30
0.0
 11
1.29536
 21
51.1761
 31
0.0
  0
LINE
  8
0
 62
     33
 10
1.29536
 20
51.1761
 30
0.0
 11
3.31005
 21
53.7048
 31
0.0
  0
LINE
  8
0
 62
     33
 10
3.31005
 20
53.7048
 30
0.0
 11
8.18691
 21
61.2482
 31
0.0
  0
LINE
  8
0
 62
     33
 10
8.18691
 20
61.2482
 30
0.0
 11
11.4143
 21
69.518
 31
0.0
  0
LINE
  8
0
 62
     33
 10
11.4143
 20
69.518
 30
0.0
 11
12.186
 21
73.4868
 31
0.0
  0
LINE
  8
0
 62
     33
 10
12.186
 20
73.4868
 30
0.0
 11
12.5801
 21
78.117
 31
0.0
  0
LINE
  8
0
 62
     33
 10
12.5801
 20
78.117
 30
0.0
 11
12.5718
 21
82.8255
 31
0.0
  0
LINE
  8
0
 62
     33
 10
12.5718
 20
82.8255
 30
0.0
 11
12.1392
 21
87.0285
 31
0.0
  0
LINE
  8
0
 62
     33
 10
12.1392
 20
87.0285
 30
0.0
 11
11.3633
 21
90.5302
 31
0.0
  0
LINE
  8
0
 62
     33
 10
11.3633
 20
90.5302
 30
0.0
 11
10.2471
 21
94.2453
 31
0.0
  0
LINE
  8
0
 62
     33
 10
10.2471
 20
94.2453
 30
0.0
 11
8.86905
 21
97.9428
 31
0.0
  0
LINE
  8
0
 62
     33
 10
8.86905
 20
97.9428
 30
0.0
 11
7.30635
 21
101.387
 31
0.0
  0
LINE
  8
0
 62
     33
 10
7.30635
 20
101.387
 30
0.0
 11
6.64626
 21
102.745
 31
0.0
  0
LINE
  8
0
 62
     33
 10
6.64626
 20
102.745
 30
0.0
 11
6.13777
 21
103.889
 31
0.0
  0
LINE
  8
0
 62
     33
 10
6.13777
 20
103.889
 30
0.0
 11
5.82909
 21
104.698
 31
0.0
  0
LINE
  8
0
 62
     33
 10
5.82909
 20
104.698
 30
0.0
 11
5.77261
 21
105.049
 31
0.0
  0
LINE
  8
0
 62
     33
 10
5.77261
 20
105.049
 30
0.0
 11
6.09646
 21
105.195
 31
0.0
  0
LINE
  8
0
 62
     33
 10
6.09646
 20
105.195
 30
0.0
 11
6.58703
 21
105.254
 31
0.0
  0
LINE
  8
0
 62
     33
 10
6.58703
 20
105.254
 30
0.0
 11
7.0225
 21
105.356
 31
0.0
  0
LINE
  8
0
 62
     33
 10
7.0225
 20
105.356
 30
0.0
 11
7.76386
 21
105.631
 31
0.0
  0
LINE
  8
0
 62
     33
 10
7.76386
 20
105.631
 30
0.0
 11
8.70645
 21
106.036
 31
0.0
  0
LINE
  8
0
 62
     33
 10
8.70645
 20
106.036
 30
0.0
 11
9.74549
 21
106.532
 31
0.0
  0
LINE
  8
0
 62
     33
 10
9.74549
 20
106.532
 30
0.0
 11
13.1024
 21
108.716
 31
0.0
  0
LINE
  8
0
 62
     33
 10
13.1024
 20
108.716
 30
0.0
 11
16.2857
 21
111.853
 31
0.0
  0
LINE
  8
0
 62
     33
 10
16.2857
 20
111.853
 30
0.0
 11
19.3725
 21
116.039
 31
0.0
  0
LINE
  8
0
 62
     33
 10
19.3725
 20
116.039
 30
0.0
 11
22.4469
 21
121.366
 31
0.0
  0
LINE
  8
0
 62
     33
 10
22.4469
 20
121.366
 30
0.0
 11
24.6324
 21
125.867
 31
0.0
  0
LINE
  8
0
 62
     33
 10
24.6324
 20
125.867
 30
0.0
 11
26.7325
 21
130.838
 31
0.0
  0
LINE
  8
0
 62
     33
 10
26.7325
 20
130.838
 30
0.0
 11
28.7693
 21
136.361
 31
0.0
  0
LINE
  8
0
 62
     33
 10
28.7693
 20
136.361
 30
0.0
 11
30.7702
 21
142.518
 31
0.0
  0
LINE
  8
0
 62
     33
 10
30.7702
 20
142.518
 30
0.0
 11
32.7601
 21
149.39
 31
0.0
  0
LINE
  8
0
 62
     33
 10
32.7601
 20
149.39
 30
0.0
 11
34.7624
 21
157.061
 31
0.0
  0
LINE
  8
0
 62
     33
 10
34.7624
 20
157.061
 30
0.0
 11
36.8032
 21
165.61
 31
0.0
  0
LINE
  8
0
 62
     33
 10
36.8032
 20
165.61
 30
0.0
 11
38.9089
 21
175.12
 31
0.0
  0
LINE
  8
0
 62
     33
 10
38.9089
 20
175.12
 30
0.0
 11
39.7827
 21
179.179
 31
0.0
  0
LINE
  8
0
 62
     33
 10
39.7827
 20
179.179
 30
0.0
 11
40.5102
 21
182.498
 31
0.0
  0
LINE
  8
0
 62
     33
 10
40.5102
 20
182.498
 30
0.0
 11
41.1057
 21
185.14
 31
0.0
  0
LINE
  8
0
 62
     33
 10
41.1057
 20
185.14
 30
0.0
 11
41.5865
 21
187.162
 31
0.0
  0
LINE
  8
0
 62
     33
 10
41.5865
 20
187.162
 30
0.0
 11
41.9654
 21
188.631
 31
0.0
  0
LINE
  8
0
 62
     33
 10
41.9654
 20
188.631
 30
0.0
 11
42.2575
 21
189.604
 31
0.0
  0
LINE
  8
0
 62
     33
 10
42.2575
 20
189.604
 30
0.0
 11
42.4794
 21
190.143
 31
0.0
  0
LINE
  8
0
 62
     33
 10
42.4794
 20
190.143
 30
0.0
 11
42.6448
 21
190.308
 31
0.0
  0
LINE
  8
0
 62
     33
 10
42.6448
 20
190.308
 30
0.0
 11
42.7662
 21
190.219
 31
0.0
  0
LINE
  8
0
 62
     33
 10
42.7662
 20
190.219
 30
0.0
 11
42.9493
 21
189.903
 31
0.0
  0
LINE
  8
0
 62
     33
 10
42.9493
 20
189.903
 30
0.0
 11
43.2167
 21
189.302
 31
0.0
  0
LINE
  8
0
 62
     33
 10
43.2167
 20
189.302
 30
0.0
 11
43.5913
 21
188.35
 31
0.0
  0
LINE
  8
0
 62
     33
 10
43.5913
 20
188.35
 30
0.0
 11
44.1
 21
186.983
 31
0.0
  0
LINE
  8
0
 62
     33
 10
44.1
 20
186.983
 30
0.0
 11
44.7657
 21
185.141
 31
0.0
  0
LINE
  8
0
 62
     33
 10
44.7657
 20
185.141
 30
0.0
 11
45.6131
 21
182.755
 31
0.0
  0
LINE
  8
0
 62
     33
 10
45.6131
 20
182.755
 30
0.0
 11
46.6658
 21
179.766
 31
0.0
  0
LINE
  8
0
 62
     33
 10
46.6658
 20
179.766
 30
0.0
 11
50.497
 21
168.062
 31
0.0
  0
LINE
  8
0
 62
     33
 10
50.497
 20
168.062
 30
0.0
 11
53.6265
 21
156.758
 31
0.0
  0
LINE
  8
0
 62
     33
 10
53.6265
 20
156.758
 30
0.0
 11
56.0546
 21
145.86
 31
0.0
  0
LINE
  8
0
 62
     33
 10
56.0546
 20
145.86
 30
0.0
 11
57.7797
 21
135.37
 31
0.0
  0
LINE
  8
0
 62
     33
 10
57.7797
 20
135.37
 30
0.0
 11
58.8024
 21
125.294
 31
0.0
  0
LINE
  8
0
 62
     33
 10
58.8024
 20
125.294
 30
0.0
 11
59.122
 21
115.634
 31
0.0
  0
LINE
  8
0
 62
     33
 10
59.122
 20
115.634
 30
0.0
 11
58.7389
 21
106.393
 31
0.0
  0
LINE
  8
0
 62
     33
 10
58.7389
 20
106.393
 30
0.0
 11
57.6516
 21
97.572
 31
0.0
  0
LINE
  8
0
 62
     33
 10
57.6516
 20
97.572
 30
0.0
 11
56.7256
 21
92.7488
 31
0.0
  0
LINE
  8
0
 62
     33
 10
56.7256
 20
92.7488
 30
0.0
 11
55.5681
 21
88.0152
 31
0.0
  0
LINE
  8
0
 62
     33
 10
55.5681
 20
88.0152
 30
0.0
 11
54.1472
 21
83.2954
 31
0.0
  0
LINE
  8
0
 62
     33
 10
54.1472
 20
83.2954
 30
0.0
 11
52.4344
 21
78.511
 31
0.0
  0
LINE
  8
0
 62
     33
 10
52.4344
 20
78.511
 30
0.0
 11
50.3975
 21
73.5859
 31
0.0
  0
LINE
  8
0
 62
     33
 10
50.3975
 20
73.5859
 30
0.0
 11
48.0109
 21
68.4417
 31
0.0
  0
LINE
  8
0
 62
     33
 10
48.0109
 20
68.4417
 30
0.0
 11
45.2395
 21
63.0026
 31
0.0
  0
LINE
  8
0
 62
     33
 10
45.2395
 20
63.0026
 30
0.0
 11
42.0592
 21
57.1885
 31
0.0
  0
LINE
  8
0
 62
     33
 10
42.0592
 20
57.1885
 30
0.0
 11
40.5211
 21
54.4463
 31
0.0
  0
LINE
  8
0
 62
     33
 10
40.5211
 20
54.4463
 30
0.0
 11
39.2536
 21
52.1339
 31
0.0
  0
LINE
  8
0
 62
     33
 10
39.2536
 20
52.1339
 30
0.0
 11
38.2129
 21
50.1703
 31
0.0
  0
LINE
  8
0
 62
     33
 10
38.2129
 20
50.1703
 30
0.0
 11
37.3585
 21
48.4685
 31
0.0
  0
LINE
  8
0
 62
     33
 10
37.3585
 20
48.4685
 30
0.0
 11
36.649
 21
46.9441
 31
0.0
  0
LINE
  8
0
 62
     33
 10
36.649
 20
46.9441
 30
0.0
 11
36.044
 21
45.514
 31
0.0
  0
LINE
  8
0
 62
     33
 10
36.044
 20
45.514
 30
0.0
 11
35.5039
 21
44.0916
 31
0.0
  0
LINE
  8
0
 62
     33
 10
35.5039
 20
44.0916
 30
0.0
 11
34.9856
 21
42.5937
 31
0.0
  0
LINE
  8
0
 62
     33
 10
34.9856
 20
42.5937
 30
0.0
 11
33.1129
 21
34.3021
 31
0.0
  0
LINE
  8
0
 62
     33
 10
33.1129
 20
34.3021
 30
0.0
 11
32.7312
 21
25.3022
 31
0.0
  0
LINE
  8
0
 62
     33
 10
32.7312
 20
25.3022
 30
0.0
 11
33.8308
 21
15.8226
 31
0.0
  0
LINE
  8
0
 62
     33
 10
33.8308
 20
15.8226
 30
0.0
 11
36.4024
 21
6.08954
 31
0.0
  0
LINE
  8
0
 62
     33
 10
36.4024
 20
6.08954
 30
0.0
 11
36.999
 21
4.27605
 31
0.0
  0
LINE
  8
0
 62
     33
 10
36.999
 20
4.27605
 30
0.0
 11
37.4646
 21
2.7671
 31
0.0
  0
LINE
  8
0
 62
     33
 10
37.4646
 20
2.7671
 30
0.0
 11
37.7543
 21
1.72255
 31
0.0
  0
LINE
  8
0
 62
     33
 10
37.7543
 20
1.72255
 30
0.0
 11
37.8217
 21
1.29673
 31
0.0
  0
LINE
  8
0
 62
     33
 10
37.8217
 20
1.29673
 30
0.0
 11
36.7482
 21
1.22094
 31
0.0
  0
LINE
  8
0
 62
     33
 10
36.7482
 20
1.22094
 30
0.0
 11
33.9466
 21
1.12034
 31
0.0
  0
LINE
  8
0
 62
     33
 10
33.9466
 20
1.12034
 30
0.0
 11
29.8607
 21
1.00597
 31
0.0
  0
LINE
  8
0
 62
     33
 10
29.8607
 20
1.00597
 30
0.0
 11
24.9356
 21
0.886079
 31
0.0
  0
LINE
  8
0
 62
     33
 10
24.9356
 20
0.886079
 30
0.0
 11
19.615
 21
0.773081
 31
0.0
  0
LINE
  8
0
 62
     33
 10
19.615
 20
0.773081
 30
0.0
 11
14.344
 21
0.676617
 31
0.0
  0
LINE
  8
0
 62
     33
 10
14.344
 20
0.676617
 30
0.0
 11
9.56635
 21
0.604957
 31
0.0
  0
LINE
  8
0
 62
     33
 10
9.56635
 20
0.604957
 30
0.0
 11
5.72714
 21
0.569129
 31
0.0
  0
LINE
  8
0
 62
     33
 10
5.72714
 20
0.569129
 30
0.0
 11
0.413413
 21
0.545705
 31
0.0
  0
LINE
  8
0
 62
     33
 10
0.413413
 20
0.545705
 30
0.0
 11
0.63803
 21
16.717
 31
0.0
  0
ENDSEC
  0
EOF
