<?xml version="1.0" encoding="UTF-8" standalone="no"?>
<!-- Created with Inkscape (http://www.inkscape.org/) -->

<svg
   xmlns:dc="http://purl.org/dc/elements/1.1/"
   xmlns:cc="http://creativecommons.org/ns#"
   xmlns:rdf="http://www.w3.org/1999/02/22-rdf-syntax-ns#"
   xmlns:svg="http://www.w3.org/2000/svg"
   xmlns="http://www.w3.org/2000/svg"
   xmlns:sodipodi="http://sodipodi.sourceforge.net/DTD/sodipodi-0.dtd"
   xmlns:inkscape="http://www.inkscape.org/namespaces/inkscape"
   width="210mm"
   height="297mm"
   viewBox="0 0 744.09448819 1052.3622047"
   id="svg2"
   version="1.1"
   inkscape:version="0.91 r13725"
   sodipodi:docname="wing.svg">
  <defs
     id="defs4" />
  <sodipodi:namedview
     id="base"
     pagecolor="#ffffff"
     bordercolor="#666666"
     borderopacity="1.0"
     inkscape:pageopacity="0.0"
     inkscape:pageshadow="2"
     inkscape:zoom="0.78972534"
     inkscape:cx="442.55568"
     inkscape:cy="607.71454"
     inkscape:document-units="px"
     inkscape:current-layer="layer1"
     showgrid="false"
     inkscape:window-width="1855"
     inkscape:window-height="1056"
     inkscape:window-x="65"
     inkscape:window-y="1104"
     inkscape:window-maximized="1" />
  <metadata
     id="metadata7">
    <rdf:RDF>
      <cc:Work
         rdf:about="">
        <dc:format>image/svg+xml</dc:format>
        <dc:type
           rdf:resource="http://purl.org/dc/dcmitype/StillImage" />
        <dc:title></dc:title>
      </cc:Work>
    </rdf:RDF>
  </metadata>
  <g
     inkscape:label="Layer 1"
     inkscape:groupmode="layer"
     id="layer1">
    <path
       style="fill:none;fill-rule:evenodd;stroke:#000000;stroke-width:1px;stroke-linecap:butt;stroke-linejoin:miter;stroke-opacity:1"
       d="m 255.78513,624.3653 -2.53252,181.07561 136.7564,-2.53252 c 0,0 -41.78668,-86.10589 -6.33131,-163.34794 35.45536,-77.24204 147.58165,-185.87726 21.52647,-509.03773 -9.42115,-24.15247 -39.21818,292.57865 -135.49014,302.63686 0,0 69.64447,98.76852 -13.9289,191.20572 z"
       id="path3338"
       inkscape:connector-curvature="0"
       sodipodi:nodetypes="cccsssc" />
    <path
       style="fill:#a0a0a0;stroke:none;stroke-width:1px;stroke-linecap:butt;stroke-linejoin:miter;stroke-opacity:1"
       d="m 255.00459,746.71471 c 0.43736,-31.51412 1.1407,-71.87806 1.56297,-89.69762 l 0.76777,-32.39921 7.13742,-8.95983 c 13.40289,-16.82507 23.1128,-35.7705 28.7184,-56.0337 4.49869,-16.26191 5.65737,-44.28892 2.56512,-62.04689 -2.72797,-15.66606 -9.42504,-35.56108 -17.12402,-50.87045 -3.38808,-6.73718 -5.83175,-12.57782 -5.43038,-12.9792 0.40138,-0.40136 1.69789,-0.72977 2.88113,-0.72977 1.18324,0 6.22033,-2.03563 11.19354,-4.52362 16.40568,-8.20742 30.39144,-24.54245 45.00522,-52.565 21.14961,-40.55526 38.06827,-95.80095 58.32901,-190.4658 8.99521,-42.02861 11.89484,-53.81618 13.23826,-53.81618 0.94552,0 3.25668,6.05935 14.24778,37.35476 39.51089,112.50096 52.53111,209.91155 38.92816,291.2405 -7.73536,46.24803 -23.14482,86.15398 -55.25254,143.08772 -15.91867,28.22718 -20.14072,36.9388 -25.06298,51.71402 -12.37568,37.14828 -10.59101,83.12804 5.02061,129.34969 3.05576,9.04725 5.31826,16.68721 5.02776,16.97769 -0.5746,0.5746 -83.26744,2.45155 -113.71793,2.58115 l -18.83049,0.0801 0.79519,-57.2984 z"
       id="path3340"
       inkscape:connector-curvature="0" />
    <path
       style="fill:#a0a0a0;stroke:none;stroke-width:1px;stroke-linecap:butt;stroke-linejoin:miter;stroke-opacity:1"
       d="m 259.96055,805.27937 c 0,-0.69644 -1.06994,-1.26626 -2.37764,-1.26626 -2.08823,0 -2.46811,-1.34866 -3.12089,-11.0798 -0.40878,-6.09389 -1.08867,-13.07417 -1.51087,-15.51172 -0.51851,-2.99366 -0.37527,-3.86844 0.4414,-2.69559 2.64574,3.79968 3.43109,-72.39693 0.9119,-88.47535 -0.47297,-3.01871 -0.35386,-3.64162 0.37353,-1.95348 1.50116,3.48387 2.73302,-14.06558 2.74245,-39.06966 l 0.008,-20.12979 4.5167,-5.51203 c 2.48418,-3.03161 4.13051,-5.51203 3.65851,-5.51203 -0.47201,0 0.48702,-1.12069 2.13118,-2.4904 1.64415,-1.36972 2.58922,-2.50936 2.10014,-2.53253 -0.48908,-0.0232 0.51376,-1.55598 2.22853,-3.40626 1.71478,-1.85026 2.87469,-3.6072 2.57759,-3.9043 -0.2971,-0.29711 0.57275,-1.65312 1.93301,-3.01338 1.36025,-1.36026 2.13386,-3.02223 1.71914,-3.69326 -0.41473,-0.67104 -0.24801,-1.22008 0.37049,-1.22008 1.21571,0 6.87255,-11.30435 6.58253,-13.1542 -0.097,-0.61857 0.35745,-1.47329 1.00986,-1.89939 1.55827,-1.0177 6.91217,-15.47433 6.05007,-16.33643 -0.36667,-0.36667 -0.12043,-1.32485 0.5472,-2.12929 1.20422,-1.45102 2.26614,-6.75709 3.30178,-16.49808 0.29618,-2.78578 0.81888,-5.81861 1.16156,-6.73961 0.34267,-0.92102 -0.0264,-2.88815 -0.82025,-4.3714 -1.08128,-2.02037 -1.08014,-2.81789 0.005,-3.17944 1.91098,-0.63701 1.9362,-12.93421 0.0265,-12.93421 -0.97845,0 -0.92737,-0.59517 0.16394,-1.91011 1.05295,-1.26873 1.28072,-3.50097 0.67831,-6.64788 -0.49882,-2.60578 -0.84739,-6.31878 -0.77459,-8.25111 0.0808,-2.1457 -0.6571,-3.81627 -1.8957,-4.29156 -1.50706,-0.57833 -1.62808,-1.02544 -0.4711,-1.74049 0.98098,-0.60628 1.18264,-1.82929 0.54513,-3.30601 -0.5565,-1.28906 -1.12256,-2.91357 -1.25791,-3.61002 -0.13535,-0.69644 -0.37522,-1.55117 -0.53305,-1.89939 -0.15783,-0.34823 -0.53616,-2.05768 -0.84074,-3.79879 -0.30457,-1.74111 -0.92529,-4.02039 -1.37937,-5.06506 -0.45408,-1.04466 -0.94604,-2.32675 -1.09324,-2.84909 -0.14721,-0.52233 -0.38122,-1.09215 -0.52003,-1.26626 -0.1388,-0.17411 -0.49624,-1.63057 -0.79429,-3.23658 -0.29805,-1.606 -3.66309,-9.82387 -7.47786,-18.26195 -5.22075,-11.54801 -6.59366,-15.75435 -5.55183,-17.00968 0.76127,-0.91727 1.86673,-1.36949 2.45658,-1.00493 1.53414,0.94814 16.09849,-6.63713 19.74452,-10.28316 1.6886,-1.6886 3.50232,-3.07018 4.03049,-3.07018 0.52816,0 2.89332,-1.99437 5.25589,-4.43192 2.36257,-2.43756 3.82205,-4.43192 3.24329,-4.43192 -0.57876,0 0.45452,-1.18526 2.29619,-2.63392 1.84167,-1.44867 3.06143,-3.0984 2.71057,-3.66611 -0.35086,-0.5677 0.21353,-1.35891 1.2542,-1.75826 1.04066,-0.39934 1.89212,-1.53772 1.89212,-2.52974 0,-0.992 0.89084,-2.1455 1.97965,-2.56332 1.08881,-0.41781 1.625,-1.3335 1.19153,-2.03487 -0.43346,-0.70136 -0.26385,-1.2752 0.37691,-1.2752 0.64077,0 2.52631,-2.70664 4.19009,-6.01475 1.66378,-3.30811 3.37982,-6.29966 3.81342,-6.64788 1.54703,-1.24242 9.9883,-18.99432 9.04109,-19.01333 -0.53109,-0.0101 -0.34914,-0.43803 0.40433,-0.9497 1.32562,-0.90021 10.24339,-21.77521 10.94587,-25.62244 0.19075,-1.04467 0.68958,-2.18431 1.10852,-2.53253 0.769,-0.63919 6.242,-16.51379 6.67391,-19.35784 0.12825,-0.84452 0.58453,-2.10532 1.01396,-2.80176 1.35538,-2.19813 4.74288,-14.56203 3.98976,-14.56203 -0.39596,0 -0.16264,-0.71227 0.51849,-1.58282 1.974,-2.52298 2.7867,-7.28102 1.24363,-7.28102 -0.76435,0 -0.40129,-0.72277 0.8068,-1.60614 1.20809,-0.88338 2.38129,-3.0202 2.60711,-4.74848 0.22582,-1.7283 0.75436,-3.99708 1.17454,-5.04174 0.42017,-1.04467 1.09528,-3.60885 1.50023,-5.69819 1.14075,-5.88563 1.23971,-6.22266 2.34844,-7.99839 0.57249,-0.91688 0.70386,-2.0041 0.29194,-2.41601 -0.41192,-0.41192 -0.26264,-1.3712 0.33173,-2.13172 2.01055,-2.57258 2.849,-8.34722 1.21199,-8.34722 -0.84283,0 -0.42721,-0.80814 0.92358,-1.79586 1.35079,-0.98773 2.03447,-2.21739 1.51926,-2.73259 -0.51519,-0.51519 -0.35184,-1.64144 0.36299,-2.50277 0.71484,-0.86132 1.17906,-2.05339 1.03159,-2.64903 -0.14747,-0.59564 0.45231,-3.60867 1.33284,-6.69562 0.88053,-3.08696 1.76059,-6.79078 1.95566,-8.23071 0.19508,-1.43994 0.66734,-3.4728 1.04949,-4.51747 1.8521,-5.06308 2.14729,-8.86384 0.68843,-8.86384 -0.89781,0 -0.66392,-0.65548 0.56479,-1.58283 1.15346,-0.87055 2.32583,-3.57719 2.60525,-6.01475 0.27942,-2.43755 0.81844,-5.28665 1.19783,-6.33131 1.15003,-3.16673 3.48264,-13.80038 3.25695,-14.84744 -0.11624,-0.53947 0.247,-2.03554 0.80727,-3.32461 0.6726,-1.54752 0.41826,-2.72394 -0.74866,-3.46283 -1.47893,-0.93645 -1.45738,-1.12286 0.13204,-1.14227 1.40457,-0.0172 2.84381,-4.36836 5.52454,-16.70215 1.99382,-9.17343 4.3392,-18.71618 5.21194,-21.20611 l 1.58679,-4.52714 2.06908,4.90313 c 1.13799,2.69672 2.06907,5.40336 2.06907,6.01475 0,0.61139 0.60345,1.11162 1.341,1.11162 0.73755,0 1.0371,0.49172 0.66565,1.09272 -0.80869,1.30849 9.27681,29.75735 10.75207,30.3291 0.56535,0.21911 0.71404,1.21629 0.33043,2.21596 -0.3836,0.99967 -0.0846,1.81758 0.66453,1.81758 0.7491,0 1.03401,0.85473 0.63313,1.8994 -0.40088,1.04467 -0.11599,1.89939 0.63314,1.89939 0.74909,0 1.034,0.85473 0.63313,1.8994 -0.40089,1.04467 -0.11599,1.89939 0.63313,1.89939 0.74909,0 1.034,0.85473 0.63313,1.8994 -0.40089,1.04466 -0.0645,1.89939 0.7476,1.89939 0.81206,0 1.11596,0.58331 0.67535,1.29625 -0.77911,1.26061 4.06434,17.69737 5.58813,18.96396 0.41895,0.34822 0.88774,2.33711 1.04178,4.41976 0.15404,2.08264 0.86986,3.98322 1.59072,4.2235 0.72086,0.24029 1.01996,0.90723 0.66468,1.48209 -0.85098,1.37692 4.56007,21.53123 5.78074,21.53123 0.51902,0 0.64565,1.13963 0.2814,2.53252 -0.36425,1.39289 -0.0794,2.53253 0.63313,2.53253 0.71248,0 0.99739,1.13964 0.63313,2.53252 -0.36425,1.39289 -0.0794,2.53253 0.63314,2.53253 0.71247,0 0.99738,1.13964 0.63313,2.53253 -0.38493,1.47197 -0.0389,2.53252 0.82641,2.53252 0.81877,0 1.14083,0.56284 0.71567,1.25075 -0.93221,1.50835 3.21772,21.54199 4.46238,21.54199 0.48126,0 0.60271,1.42454 0.26987,3.16566 -0.36792,1.92466 -0.0217,3.16565 0.88346,3.16565 0.81874,0 1.13761,0.56792 0.70863,1.26205 -0.88993,1.43993 3.33362,27.862 4.45372,27.862 0.40333,0 0.50049,1.99437 0.21591,4.43192 -0.28457,2.43756 -0.0277,4.43766 0.57083,4.44466 0.59854,0.008 1.24245,4.99292 1.43092,11.0798 0.18847,6.08689 0.75829,11.20837 1.26626,11.38107 0.50798,0.1727 0.73052,3.73406 0.49455,7.91415 -0.37605,6.66162 -0.1415,7.61248 1.8994,7.70011 1.39802,0.06 1.68034,0.36037 0.70655,0.75166 -1.25096,0.50266 -1.62445,7.21289 -1.63313,29.34065 -0.006,16.40246 -0.78896,35.678 -1.82719,45.00837 -0.99876,8.97569 -1.53665,16.77131 -1.1953,17.32361 0.34135,0.55232 0.008,1.38292 -0.74107,1.84577 -0.74893,0.46287 -1.24332,2.06924 -1.09863,3.56973 0.14467,1.50048 -0.0504,3.58287 -0.43338,4.62754 -1.19917,3.27053 -7.87768,32.19288 -7.89467,34.1891 -0.009,1.04467 -0.33305,2.18431 -0.72034,2.53253 -0.3873,0.34822 -2.88751,6.90113 -5.55605,14.56202 -6.42196,18.43634 -13.65992,34.64858 -27.23806,61.01022 -6.16326,11.96583 -10.88187,22.0801 -10.48581,22.47616 0.39605,0.39607 0.16024,0.72012 -0.52403,0.72012 -1.64449,0 -6.96244,9.52112 -5.9073,10.57625 0.45107,0.45106 0.26026,0.82011 -0.42402,0.82011 -1.49469,0 -7.38536,10.12169 -5.90685,10.14949 0.5669,0.0101 0.39104,0.43803 -0.39078,0.9497 -1.62009,1.06029 -10.38813,18.09132 -11.06073,21.48437 -0.24407,1.23128 -1.34941,4.27989 -2.45629,6.77472 -1.10687,2.49483 -2.28285,6.19865 -2.61327,8.23071 -0.33043,2.03206 -0.73443,3.97957 -0.89777,4.3278 -0.16335,0.34822 -0.40774,1.20295 -0.54308,1.89939 -0.13535,0.69645 -0.72089,2.37172 -1.30121,3.72285 -0.69922,1.62795 -0.52851,2.63213 0.50607,2.97699 1.16269,0.38756 1.09265,0.89178 -0.27441,1.97533 -2.5322,2.00708 -4.16677,16.00977 -1.87197,16.03635 1.25675,0.0146 1.20982,0.31292 -0.18829,1.19711 -2.72174,1.72129 -2.48299,27.64885 0.42606,46.26836 0.32643,2.08934 0.9375,6.64789 1.35793,10.13011 0.42043,3.48222 1.63741,6.98604 2.70441,7.78625 1.10415,0.82809 1.37121,1.64643 0.61985,1.89939 -1.24095,0.4178 -0.15469,6.90385 2.08911,12.47396 0.42081,1.04467 0.66937,2.34261 0.55234,2.88433 -0.117,0.54171 0.69501,1.33328 1.80454,1.75905 1.23713,0.47473 1.50464,1.09096 0.6917,1.59339 -0.86815,0.53654 -0.065,4.73622 2.32746,12.16983 l 3.65308,11.35058 -26.05888,0.88101 c -18.51044,0.6258 -26.33909,1.33438 -27.02623,2.4462 -0.75829,1.22693 -2.04691,1.24179 -5.96229,0.0688 -8.7753,-2.62921 -64.54595,-1.54763 -62.83636,1.21854 0.36836,0.59603 -0.50351,1.08368 -1.93751,1.08368 -1.43399,0 -2.60725,-0.56982 -2.60725,-1.26627 z"
       id="path3361"
       inkscape:connector-curvature="0" />
  </g>
</svg>
